<svg xmlns="http://www.w3.org/2000/svg" width="9.031" height="17.878" viewBox="0 0 9.031 17.878">
  <path id="XMLID_835_" d="M76.993,9.521h1.959v8.068a.292.292,0,0,0,.288.288h3.322a.292.292,0,0,0,.288-.288V9.559h2.253a.292.292,0,0,0,.286-.256l.342-2.97a.288.288,0,0,0-.286-.321h-2.6V4.151c0-.561.3-.846.9-.846h1.7a.292.292,0,0,0,.288-.288V.292A.292.292,0,0,0,85.446,0H83a4.48,4.48,0,0,0-2.93,1.1,3.073,3.073,0,0,0-1.022,2.731V6.013H76.993a.292.292,0,0,0-.288.288V9.233a.292.292,0,0,0,.288.288Z" transform="translate(-76.705)" fill="#fff"/>
</svg>
