<svg xmlns="http://www.w3.org/2000/svg" width="17" height="17" viewBox="0 0 17 17">
  <g id="g-sm-icon" transform="translate(-134 -633)">
    <rect id="Rectangle_3538" data-name="Rectangle 3538" width="17" height="17" rx="2" transform="translate(134 633)" fill="#fff"/>
    <g id="google" transform="translate(1320.85 1400.317)">
      <path id="Path_3416" data-name="Path 3416" d="M-1089.33-687.239v2.461h3.42a2.93,2.93,0,0,1-1.277,1.912l2.062,1.6a6.208,6.208,0,0,0,1.895-4.673,7.3,7.3,0,0,0-.116-1.3Z" transform="translate(-88.893 -72.733)" fill="#4285f4"/>
      <path id="Path_3417" data-name="Path 3417" d="M-1172.249-651.791l-.465.356-1.646,1.282h0a6.353,6.353,0,0,0,5.672,3.506,6.064,6.064,0,0,0,4.205-1.537l-2.062-1.6a3.785,3.785,0,0,1-2.143.612,3.793,3.793,0,0,1-3.558-2.617Z" transform="translate(-9.535 -105.816)" fill="#34a853"/>
      <path id="Path_3418" data-name="Path 3418" d="M-1183.9-712.61a6.276,6.276,0,0,0-.682,2.848,6.276,6.276,0,0,0,.682,2.848c0,.006,2.114-1.641,2.114-1.641a3.811,3.811,0,0,1-.2-1.207,3.811,3.811,0,0,1,.2-1.207Z" transform="translate(0 -49.055)" fill="#fbbc05"/>
      <path id="Path_3419" data-name="Path 3419" d="M-1168.689-762.641a3.467,3.467,0,0,1,2.432.947l1.82-1.82a6.1,6.1,0,0,0-4.252-1.658,6.343,6.343,0,0,0-5.673,3.506l2.114,1.641A3.794,3.794,0,0,1-1168.689-762.641Z" transform="translate(-9.534 0)" fill="#ea4335"/>
    </g>
  </g>
</svg>
