<svg xmlns="http://www.w3.org/2000/svg" width="21.383" height="21.383" viewBox="0 0 21.383 21.383">
  <path id="instagram-11" d="M10.692,1.927c2.855,0,3.193.011,4.321.062,2.9.132,4.251,1.507,4.383,4.383.052,1.127.061,1.466.061,4.32s-.011,3.193-.061,4.32c-.133,2.873-1.483,4.251-4.383,4.383-1.128.052-1.465.062-4.321.062S7.5,19.447,6.371,19.4c-2.9-.133-4.251-1.514-4.383-4.384-.052-1.127-.062-1.465-.062-4.32s.012-3.192.062-4.32C2.121,3.5,3.471,2.12,6.371,1.989c1.128-.051,1.466-.061,4.32-.061Zm0-1.927c-2.9,0-3.267.012-4.408.064C2.4.242.243,2.4.065,6.283.012,7.424,0,7.788,0,10.692S.012,13.96.064,15.1c.178,3.883,2.333,6.041,6.219,6.219,1.141.052,1.5.064,4.408.064s3.268-.012,4.408-.064c3.879-.178,6.042-2.333,6.218-6.219.053-1.14.065-1.5.065-4.408s-.012-3.267-.064-4.408C21.144,2.4,18.987.243,15.1.065,13.96.012,13.6,0,10.692,0Zm0,5.2a5.491,5.491,0,1,0,5.49,5.49A5.49,5.49,0,0,0,10.692,5.2Zm0,9.054a3.564,3.564,0,1,1,3.564-3.564A3.563,3.563,0,0,1,10.692,14.255ZM16.4,3.7a1.283,1.283,0,1,0,1.282,1.283A1.284,1.284,0,0,0,16.4,3.7Z" fill="#fff"/>
</svg>
