<svg xmlns="http://www.w3.org/2000/svg" xmlns:xlink="http://www.w3.org/1999/xlink" width="17" height="17" viewBox="0 0 17 17">
  <defs>
    <linearGradient id="linear-gradient" x1="0.5" x2="0.5" y2="1" gradientUnits="objectBoundingBox">
      <stop offset="0" stop-color="#ff40ac"/>
      <stop offset="1" stop-color="#de3692"/>
    </linearGradient>
  </defs>
  <g id="insta-sm-icon" transform="translate(-7118 15922)">
    <rect id="Rectangle_1429" data-name="Rectangle 1429" width="17" height="17" rx="2" transform="translate(7118 -15922)" fill="url(#linear-gradient)"/>
    <path id="iconmonstr-instagram-11" d="M6,1.081c1.6,0,1.792.006,2.425.035a2.254,2.254,0,0,1,2.46,2.46c.029.633.035.823.035,2.425s-.006,1.792-.035,2.424a2.255,2.255,0,0,1-2.46,2.46c-.633.029-.822.035-2.425.035s-1.792-.006-2.424-.035a2.255,2.255,0,0,1-2.46-2.46C1.087,7.792,1.081,7.6,1.081,6s.007-1.792.035-2.424a2.254,2.254,0,0,1,2.46-2.46C4.208,1.088,4.4,1.082,6,1.082ZM6,0C4.371,0,4.167.007,3.526.036a3.312,3.312,0,0,0-3.49,3.49C.007,4.167,0,4.371,0,6S.007,7.834.036,8.474a3.312,3.312,0,0,0,3.49,3.49C4.167,11.993,4.371,12,6,12s1.834-.007,2.474-.036a3.312,3.312,0,0,0,3.49-3.49C11.993,7.834,12,7.629,12,6s-.007-1.833-.036-2.474A3.312,3.312,0,0,0,8.474.036C7.834.007,7.629,0,6,0ZM6,2.919A3.081,3.081,0,1,0,9.081,6,3.081,3.081,0,0,0,6,2.919ZM6,8A2,2,0,1,1,8,6,2,2,0,0,1,6,8ZM9.2,2.077a.72.72,0,1,0,.719.72A.72.72,0,0,0,9.2,2.077Z" transform="translate(7120.5 -15919.5)" fill="#fff"/>
  </g>
</svg>
