<svg xmlns="http://www.w3.org/2000/svg" xmlns:xlink="http://www.w3.org/1999/xlink" width="1369.87" height="159.396" viewBox="0 0 1369.87 159.396">
  <defs>
    <clipPath id="clip-path">
      <path id="Path_1039" data-name="Path 1039" d="M10794.668-22777.994c12.109-6.016,17.869-13.324,0-20.941s-99.762-6.922-116.717-1.363-24.133,18.348-12.057,23.594S10782.561-22771.971,10794.668-22777.994Z" transform="translate(-10659.882 22804.559)" fill="#252a25"/>
    </clipPath>
    <clipPath id="clip-path-2">
      <path id="Path_1041" data-name="Path 1041" d="M10675.986-22789.33c-8.238-5.414,19.316-24.594,36.693-24.594s42.084,16.246,32.945,21.66c-4.486,2.66-17.516.766-34.924,1.5S10680.178-22786.572,10675.986-22789.33Z" transform="translate(-10674.484 22813.922)" fill="#252a25"/>
    </clipPath>
    <clipPath id="clip-path-3">
      <path id="Path_1043" data-name="Path 1043" d="M10671.2-22781.844c-22.512-4.687-20.406-12.27,0-16.437s59.109-7.637,81.621-2.949,28.84,18.422,8.434,22.59S10693.713-22777.148,10671.2-22781.844Z" transform="translate(-10655.098 22803.475)" fill="#252a25"/>
    </clipPath>
    <clipPath id="clip-path-4">
      <path id="Path_1045" data-name="Path 1045" d="M10665.657-22782.715c-21.824-4.227-12.553-11.617,7.232-15.371s57.309-7.684,79.139-3.453,27.961,16.613,8.176,20.371S10687.487-22778.48,10665.657-22782.715Z" transform="translate(-10653.075 22803.369)" fill="#252a25"/>
    </clipPath>
  </defs>
  <g id="Group_5551" data-name="Group 5551" transform="translate(0 0.002)">
    <g id="Group_4617" data-name="Group 4617">
      <path id="Path_1033" data-name="Path 1033" d="M10675.986-22789.33c-8.238-5.414,19.316-24.594,36.693-24.594s42.084,16.246,32.945,21.66c-4.486,2.66-17.516.766-34.924,1.5S10680.178-22786.572,10675.986-22789.33Z" transform="translate(-10641.929 22813.922)" fill="#d02d29"/>
      <path id="Path_1034" data-name="Path 1034" d="M1.51,21.66C-6.729,16.246,20.688,0,38.064,0S80.148,16.246,71.01,21.66,9.746,27.074,1.51,21.66Z" transform="translate(109.572 159.395) rotate(180)" fill="#5bb9f9"/>
      <path id="Path_1035" data-name="Path 1035" d="M10794.668-22777.994c12.109-6.016,17.869-13.324,0-20.941s-99.762-6.922-116.717-1.363-24.133,18.348-12.057,23.594S10782.561-22771.971,10794.668-22777.994Z" transform="translate(-10659.882 22866.918)" fill="#ffc21f"/>
      <path id="Path_1036" data-name="Path 1036" d="M10671.2-22781.844c-22.512-4.687-20.406-12.27,0-16.437s59.109-7.637,81.621-2.949,28.84,18.422,8.434,22.59S10693.713-22777.148,10671.2-22781.844Z" transform="translate(-10641.269 22904.674)" fill="#1da1f2"/>
      <path id="Path_1037" data-name="Path 1037" d="M10665.657-22782.715c-21.824-4.227-12.553-11.617,7.232-15.371s57.309-7.684,79.139-3.453,27.961,16.613,8.176,20.371S10687.487-22778.48,10665.657-22782.715Z" transform="translate(-10642.783 22834.586)" fill="#5fbd66"/>
      <g id="Group_4611" data-name="Group 4611" transform="translate(0 14.13)" opacity="0.58">
        <g id="Mask_Group_96" data-name="Mask Group 96" transform="translate(0 62.359)" opacity="0.2" clip-path="url(#clip-path)">
          <path id="Path_1038" data-name="Path 1038" d="M10671.2-22781.844c-22.512-4.687-20.406-12.27,0-16.437s59.109-7.637,81.621-2.949,28.84,18.422,8.434,22.59S10693.713-22777.148,10671.2-22781.844Z" transform="translate(-10641.269 22828.184)" fill="#252a25"/>
        </g>
        <g id="Mask_Group_97" data-name="Mask Group 97" transform="translate(32.555)" opacity="0.2" clip-path="url(#clip-path-2)">
          <path id="Path_1040" data-name="Path 1040" d="M10665.657-22782.715c-21.824-4.227-12.553-11.617,7.232-15.371s57.309-7.684,79.139-3.453,27.961,16.613,8.176,20.371S10687.487-22778.48,10665.657-22782.715Z" transform="translate(-10675.339 22820.455)" fill="#252a25"/>
        </g>
        <g id="Mask_Group_98" data-name="Mask Group 98" transform="translate(13.829 101.198)" opacity="0.2" clip-path="url(#clip-path-3)">
          <path id="Path_1042" data-name="Path 1042" d="M1.51,21.66C-6.729,16.246,20.688,0,38.064,0S80.148,16.246,71.01,21.66,9.746,27.074,1.51,21.66Z" transform="translate(95.744 44.066) rotate(180)" fill="#252a25"/>
        </g>
        <g id="Mask_Group_99" data-name="Mask Group 99" transform="translate(10.292 31.217)" opacity="0.2" clip-path="url(#clip-path-4)">
          <path id="Path_1044" data-name="Path 1044" d="M10794.668-22777.994c12.109-6.016,17.869-13.324,0-20.941s-99.762-6.922-116.717-1.363-24.133,18.348-12.057,23.594S10782.561-22771.971,10794.668-22777.994Z" transform="translate(-10670.174 22821.57)" fill="#252a25"/>
        </g>
      </g>
    </g>
    <g id="logo_giveawayhopper_text_only_white" transform="translate(193.967 6.431)">
      <path id="Path_1057" data-name="Path 1057" d="M-1228.633-510.45a55.939,55.939,0,0,0-21.23-7.841c-11.646-1.76-22.881-1.017-32.728,6.223-10.721,7.88-15.035,19.053-15.263,31.945-.212,12.218,2.731,23.356,12.28,31.893,6.3,5.635,13.916,8.081,22.139,8.778a46.782,46.782,0,0,0,21.064-2.583,3.3,3.3,0,0,0,1.9-2.206c.131-9.212.086-18.424.086-28h-21.8v-14.15h37.848c.057.972.16,1.886.16,2.806.011,15.584-.04,31.173.057,46.757a4.881,4.881,0,0,1-2.657,4.766c-11.326,6.966-23.8,8.726-36.756,8.2-12.932-.526-24.642-4.486-34.494-13.127a48.141,48.141,0,0,1-15.727-27.425c-2.7-13.435-2.388-26.756,3.464-39.34,8.1-17.43,22.041-27.487,41.1-30.145a68.506,68.506,0,0,1,37.459,4.84c2.309,1.006,3.332,2.217,3.166,4.875C-1228.834-519.844-1228.633-515.473-1228.633-510.45Z" transform="translate(1315.384 540.766)" fill="#fff"/>
      <path id="Path_1058" data-name="Path 1058" d="M-527.112-483.84c5.326.851,10.087,1.617,15.127,2.423-.263,1.057-.423,1.869-.674,2.652q-11.572,36.491-23.133,72.982c-.543,1.714-1.3,2.389-3.177,2.331-5.132-.143-10.269-.051-15.761-.051-5.72-20.79-11.424-41.506-17.161-62.353-3.383,12.566-6.709,24.984-10.081,37.391-2.063,7.6-4.246,15.167-6.28,22.773-.434,1.629-1.126,2.286-2.9,2.229-4.566-.137-9.143.04-13.709-.12a3.145,3.145,0,0,1-2.349-1.651c-8.058-25.3-16.013-50.643-24.116-76.422,5.349-.869,10.521-1.7,16.058-2.6q8.812,32,17.418,63.232c5.96-20.893,12.018-42.117,18.093-63.415h15.715c6.16,21.321,12.344,42.723,18.441,63.833Q-536.5-451.707-527.112-483.84Z" transform="translate(1022.243 519.254)" fill="#fff"/>
      <path id="Path_1059" data-name="Path 1059" d="M375.4-373.749H359.8v-111.39c5.206.823,10.246,1.617,15.55,2.457v8.761a85.357,85.357,0,0,1,6.292-6.509c12.132-10.081,33-7.949,43.031,4.24,10.092,12.258,11.687,26.436,9.229,41.414-1.7,10.395-6.452,19.173-15.058,25.607-10.332,7.726-31.813,9.664-42.471-6.086a7.682,7.682,0,0,0-.977-.874v42.38Zm-.057-70.627c.171,1.68.326,4.44.76,7.149a29.992,29.992,0,0,0,1.5,5.475c3.1,8.469,11.406,14.6,19.624,14.549,8.772-.046,16.43-5.846,19.373-15.035,2.989-9.338,3.04-18.738-.834-27.847-3.212-7.549-8.766-12.549-17.361-12.618s-15.492,3.44-19.716,11.235C375.973-456.48,375.538-450.983,375.338-444.377Z" transform="translate(597.508 520.279)" fill="#fff"/>
      <path id="Path_1060" data-name="Path 1060" d="M-48.164-427.42h-15.43v-3.338c0-15.1.023-30.213-.023-45.317a40.73,40.73,0,0,0-.577-7.372c-1.966-10.469-12.658-15.224-22.91-10.315-7.526,3.606-11.475,9.8-11.709,17.858-.429,14.9-.3,29.825-.4,44.734-.006,1.206,0,2.417,0,3.76H-114.78v-110c4.989-.8,10.075-1.611,15.5-2.48v44.277c2.177-2.635,3.772-5.212,5.96-7.109,8.841-7.681,19.173-8.538,29.716-4.84,10.041,3.52,15.138,11.7,15.43,21.933.543,19.081.229,38.185.257,57.284A3.8,3.8,0,0,1-48.164-427.42Z" transform="translate(800.883 543.016)" fill="#fff"/>
      <path id="Path_1061" data-name="Path 1061" d="M31.29-442.649c.1-15.23,3.972-26.933,14.1-35.694,21.533-18.63,55.706-7.138,61.73,20.733,2.829,13.1,2.029,25.939-5.366,37.619-7.48,11.824-18.7,16.755-32.408,16.612C56.8-403.51,46.337-407.916,38.925-418.4A42.955,42.955,0,0,1,31.29-442.649Zm60.53-2.126c.246-.051.491-.1.737-.148-1.126-5.143-1.8-10.446-3.486-15.4-2.72-7.972-8.481-12.549-17.155-13.167-7.692-.549-14.092,1.669-18.487,8.275-7.6,11.424-7.566,28.5.006,39.871,7.921,11.887,26.2,11.5,33.625-.674C90.579-431.8,91.825-438.123,91.82-444.775Z" transform="translate(738.286 520.54)" fill="#fff"/>
      <path id="Path_1062" data-name="Path 1062" d="M530.189-438.579c1.983,12.749,11.235,20.91,23.63,21.533,8.846.446,17.218-.874,25.3-5.995,0,4.766.08,8.989-.08,13.207-.023.651-1.012,1.5-1.754,1.857-6.641,3.229-13.772,4.269-21.058,4.315-9.315.063-18.19-1.651-25.962-7.177-10.441-7.423-15.384-17.847-16.144-30.345-.583-9.612.634-18.95,5.372-27.579,11.5-20.944,42.768-24.344,57.192-6.138,6.372,8.046,7.7,17.618,7.475,27.465-.206,8.858-.36,8.858-9.223,8.858H530.189Zm38.454-12.441c1.389-14.892-8.132-24.247-21.756-21.99-10.058,1.669-16.944,13.275-16.5,21.99Z" transform="translate(531.435 520.236)" fill="#fff"/>
      <path id="Path_1063" data-name="Path 1063" d="M-843.748-438.468h-53.266c-.063,7.56,5.886,16.007,13.607,19.018,10.892,4.252,21.6,3.3,32.014-1.794.834-.406,1.634-.874,2.926-1.571,0,4.732.08,9.046-.091,13.349-.023.6-1.189,1.326-1.966,1.7-6.755,3.229-14.007,4.183-21.373,4.172-7.783-.017-15.349-1.274-22.224-5.263-9.664-5.6-15.858-13.812-18.081-24.739-2.366-11.629-1.8-23.1,3.617-33.894a34.528,34.528,0,0,1,35.431-18.858c17.7,2.074,28.516,13.6,29.6,31.888C-843.257-449.3-843.663-444.1-843.748-438.468Zm-14.75-12.487c-.183-2.372-.217-4.44-.52-6.475-.851-5.789-3.195-10.841-8.532-13.727-6.56-3.549-13.327-3.1-19.493.851-6.869,4.406-9.526,11.361-10.475,19.35Z" transform="translate(1143.175 520.182)" fill="#fff"/>
      <path id="Path_1064" data-name="Path 1064" d="M-356.187-452c-.3-3.732-.32-6.886-.857-9.943-1.137-6.469-5.469-10.332-12.018-11.081a39.931,39.931,0,0,0-25.224,5.212c-.8.463-1.629.88-2.966,1.594,0-5.143-.074-9.835.091-14.527.023-.594,1.223-1.309,2.012-1.68,9.806-4.583,20.178-5.194,30.7-3.9a34.115,34.115,0,0,1,9.795,2.88c8.486,3.869,12.418,11.109,13.744,19.961a58.89,58.89,0,0,1,.577,8.515c.051,15.772.029,31.545.029,47.317v2.926h-15.555v-8.909c-.931,1.034-1.394,1.543-1.846,2.057a21.537,21.537,0,0,1-14.721,7.3c-9.686.857-18.881-.137-25.682-8.338a23.071,23.071,0,0,1,7.475-35.362,39.289,39.289,0,0,1,17.07-4C-367.965-452.066-362.37-452-356.187-452Zm-.274,11.9c-6.018,0-11.8-.286-17.521.126A17,17,0,0,0-381.6-437.2c-6.309,4.08-6.64,13.675-.886,18.121,5.909,4.572,17.681,3.274,22.5-2.417C-355.238-427.121-356.638-433.779-356.461-440.093Z" transform="translate(924.574 520.316)" fill="#fff"/>
      <path id="Path_1065" data-name="Path 1065" d="M-703.235-404.858h-15.253v-9.2c-4.446,6.183-9.995,9.063-16.561,9.646-9.566.84-18.55-.24-25.5-8.143-7.715-8.783-8.572-27.75,7.377-35.574a39.212,39.212,0,0,1,16.784-3.977c5.6-.1,11.206-.023,16.715-.023,3.863-12.544-4.5-22.316-17.727-21.4a43.883,43.883,0,0,0-20.5,6.172,20.173,20.173,0,0,1-1.863.857c0-4.955-.057-9.572.069-14.184.017-.589.891-1.4,1.549-1.68,13-5.583,26.356-6.726,39.694-1.743,10.395,3.886,14.9,12.687,15.207,23.087.537,18.407.234,36.842.269,55.261A3.049,3.049,0,0,1-703.235-404.858Zm-15.63-35.459c-6.155,0-11.732-.114-17.3.063a16.078,16.078,0,0,0-5.469,1.389,11.462,11.462,0,0,0-7.435,10.778c.08,5.1,2.48,9.006,7.178,10.526a19.48,19.48,0,0,0,14.709-.623c4.12-1.949,6.972-5.092,7.583-9.641C-719.054-431.923-719.088-436.1-718.865-440.317Z" transform="translate(1079.912 520.465)" fill="#fff"/>
      <path id="Path_1066" data-name="Path 1066" d="M-196.4-480.776c-5.406,14.515-10.635,28.562-15.875,42.6-4.412,11.824-8.692,23.7-13.292,35.442-3.617,9.235-8.669,17.578-17.144,23.287a30.365,30.365,0,0,1-22.876,4.726c-.766-.131-1.943-1.12-1.972-1.76-.183-3.869-.091-7.755-.091-11.892,1.137.086,1.966.109,2.783.217,12.738,1.692,20.561-6.3,24.11-16.092.286-.794-.246-1.989-.623-2.9q-14.409-35.471-28.865-70.919c-.388-.954-.766-1.914-1.286-3.206,5.235-.823,10.178-1.7,15.161-2.269.669-.074,1.886,1.286,2.234,2.206q9.849,25.939,19.533,51.946c.6,1.594,1.206,3.189,1.989,5.252.48-1.217.84-2.017,1.12-2.84,6.08-17.773,12.212-35.522,18.161-53.341.863-2.589,2.069-3.086,4.526-2.572C-204.834-482.056-200.794-481.508-196.4-480.776Z" transform="translate(868.055 518.87)" fill="#fff"/>
      <path id="Path_1067" data-name="Path 1067" d="M-1060.92-480.359c4.72-.754,9.469-1.6,14.252-2.166.554-.069,1.611,1.309,1.9,2.189q7.723,23.676,15.275,47.4c1.7,5.326,3.252,10.7,5.006,16.51.354-1.006.594-1.652.806-2.309q10.106-31.116,20.264-62.215c.229-.692,1.234-1.692,1.76-1.629,4.686.589,9.343,1.383,14.333,2.172-2.7,7.418-5.258,14.435-7.812,21.453-6.515,17.921-13.058,35.831-19.481,53.78-.709,1.972-1.652,2.583-3.675,2.514-4.469-.149-8.955.04-13.424-.12a3.229,3.229,0,0,1-2.411-1.623q-13.475-37.494-26.756-75.05A5.6,5.6,0,0,1-1060.92-480.359Z" transform="translate(1206.337 518.459)" fill="#fff"/>
      <path id="Path_1068" data-name="Path 1068" d="M669.24-482.3c5.057-.806,10.024-1.6,15.418-2.457v12.847a81.325,81.325,0,0,1,4.892-6.949c5.32-6.04,12.309-7.492,19.967-6.715.531.051,1.4.851,1.411,1.326.109,4.623.063,9.246.063,13.589-4.395,0-8.663-.857-12.4.183-7.555,2.1-10.869,8.521-12.709,15.555a40.711,40.711,0,0,0-1.034,9.869c-.114,12.447-.046,24.9-.046,37.345v3.486H669.24Z" transform="translate(464.902 519.822)" fill="#fff"/>
      <path id="Path_1069" data-name="Path 1069" d="M-1116.75-482.73c4.9.783,9.68,1.469,14.412,2.417.617.126,1.349,1.611,1.36,2.474.1,8.063.063,16.132.063,24.2v50.62h-15.835Z" transform="translate(1230.262 518.521)" fill="#fff"/>
      <path id="Path_1070" data-name="Path 1070" d="M-1100.556-535.342a9.989,9.989,0,0,1-10.052,9.835,9.682,9.682,0,0,1-9.652-9.841,9.86,9.86,0,0,1,9.835-10.012A10,10,0,0,1-1100.556-535.342Z" transform="translate(1231.766 545.36)" fill="#fff"/>
      <path id="Path_1071" data-name="Path 1071" d="M214.1-373.749H198.5V-482.282l15.55-3.257v11.618a85.363,85.363,0,0,1,6.292-6.509c12.132-10.081,33-7.949,43.031,4.24,10.092,12.258,11.686,26.436,9.229,41.414-1.7,10.395-6.452,19.173-15.058,25.607-10.332,7.726-31.814,9.664-42.471-6.086a7.674,7.674,0,0,0-.977-.874v21.259C214.1-387.95,214.1-381.03,214.1-373.749Zm-.057-70.627c.171,1.68.326,4.44.76,7.149a29.991,29.991,0,0,0,1.5,5.475c3.1,8.469,11.406,14.6,19.624,14.549,8.772-.046,16.43-5.846,19.373-15.035,2.989-9.338,3.04-18.738-.834-27.847-3.212-7.549-8.766-12.549-17.361-12.618s-15.492,3.44-19.716,11.235C214.673-456.48,214.238-450.983,214.038-444.377Z" transform="translate(666.631 520.279)" fill="#fff"/>
    </g>
  </g>
</svg>
