<svg xmlns="http://www.w3.org/2000/svg" width="31.094" height="24.069" viewBox="0 0 31.094 24.069">
  <path id="Path_5334" data-name="Path 5334" d="M26.339,2.016A25.325,25.325,0,0,0,19.925,0,18.826,18.826,0,0,0,19.1,1.706a23.554,23.554,0,0,0-7.109,0A18.236,18.236,0,0,0,11.162,0a25.24,25.24,0,0,0-6.42,2.021A26.9,26.9,0,0,0,.132,20.036,25.648,25.648,0,0,0,8,24.067a19.571,19.571,0,0,0,1.685-2.775A16.564,16.564,0,0,1,7.031,20c.223-.165.44-.337.651-.515a18.131,18.131,0,0,0,15.73,0c.213.177.43.35.65.515A16.52,16.52,0,0,1,21.4,21.295a19.473,19.473,0,0,0,1.685,2.775,25.6,25.6,0,0,0,7.872-4.034A26.877,26.877,0,0,0,26.339,2.016ZM10.382,16.409a3.018,3.018,0,0,1-2.8-3.18,3,3,0,0,1,2.8-3.182,2.983,2.983,0,0,1,2.8,3.182A3,3,0,0,1,10.382,16.409Zm10.33,0a3.018,3.018,0,0,1-2.8-3.18,3,3,0,0,1,2.8-3.182,2.983,2.983,0,0,1,2.8,3.182A3,3,0,0,1,20.712,16.409Z" fill="#3f4eef"/>
</svg>