<svg xmlns="http://www.w3.org/2000/svg" width="27.893" height="28" viewBox="0 0 27.893 28">
  <path id="iconmonstr-steam-4" d="M27.985,14a14,14,0,0,1-27.7,2.874L5.841,19.21a3.67,3.67,0,0,0,7.269-.694l.008,0,4.2-3.131A4.774,4.774,0,1,0,12.6,10.518l-3.08,4.308a3.618,3.618,0,0,0-2.089.6L.092,12.334A14,14,0,0,1,27.985,14ZM8.645,20.39l-1.8-.757a2.837,2.837,0,1,0,2.6-3.976,2.814,2.814,0,0,0-1,.187l1.8.756A2.056,2.056,0,0,1,8.645,20.39Zm8.731-6.536a3.246,3.246,0,1,1,3.244-3.246A3.25,3.25,0,0,1,17.376,13.854Zm0-.8a2.452,2.452,0,1,0-2.452-2.451A2.452,2.452,0,0,0,17.376,13.058Z" transform="translate(-0.092)" fill="#171d25"/>
</svg>