<svg xmlns="http://www.w3.org/2000/svg" xmlns:xlink="http://www.w3.org/1999/xlink" width="137.988" height="131.361" viewBox="0 0 137.988 131.361">
  <defs>
    <linearGradient id="linear-gradient" x1="0.5" x2="0.5" y2="1" gradientUnits="objectBoundingBox">
      <stop offset="0" stop-color="#81e28a"/>
      <stop offset="0.278" stop-color="#61ca6a"/>
      <stop offset="0.7" stop-color="#56ad5c"/>
      <stop offset="1" stop-color="#46914c"/>
    </linearGradient>
    <linearGradient id="linear-gradient-2" x1="0.5" x2="0.5" y2="1" gradientUnits="objectBoundingBox">
      <stop offset="0" stop-color="#7d7d7d"/>
      <stop offset="1" stop-color="#101111"/>
    </linearGradient>
    <linearGradient id="linear-gradient-3" x1="0.5" x2="0.5" y2="1" gradientUnits="objectBoundingBox">
      <stop offset="0" stop-color="#888"/>
      <stop offset="1" stop-color="#101111"/>
    </linearGradient>
  </defs>
  <g id="achievement-icon-2" transform="translate(-881.005 -9230.229)">
    <path id="Subtraction_46" data-name="Subtraction 46" d="M12416.453-7423.2v0c-2.385-10.9-7.386-16.306-15.289-16.515-.13,0-.242,0-.344,0-4.2,0-6.226,2.148-8.368,4.423a19.91,19.91,0,0,1-4.449,3.839,15.373,15.373,0,0,1-7.642,1.924l-.211,0c-5.923,0-9.613-4.913-13.521-10.115l-.281-.374c-.128-.169-.255-.339-.384-.509-4.544-6.015-8.916-10.995-16.424-10.995l-.268,0c-9.09.143-14.966,7.24-20.15,13.5-3.771,4.555-7.028,8.488-10.688,8.488-4.275,0-7.091-2-9.814-3.935-2.7-1.919-5.494-3.9-9.7-3.9h-.2a10.469,10.469,0,0,0-4.855,1.479,18.141,18.141,0,0,0-5.793,5.33,76.449,76.449,0,0,1,1.021-43.809,73.535,73.535,0,0,1,9.552-19.1,75.489,75.489,0,0,1,14.437-15.564,69.282,69.282,0,0,1,18.019-10.632,60.068,60.068,0,0,1,20.295-4.3c.606-.02,1.228-.029,1.845-.029a65.481,65.481,0,0,1,20.68,3.484,76.678,76.678,0,0,1,19.4,9.736,74.921,74.921,0,0,1,16.023,14.908,63.917,63.917,0,0,1,10.551,19,63.319,63.319,0,0,1,2.961,13.1,72.833,72.833,0,0,1,.3,13.681,79.9,79.9,0,0,1-2.187,13.708,81.475,81.475,0,0,1-4.517,13.179Z" transform="translate(-11404.352 16754.229)" fill="#f5f5f5"/>
    <g id="Group_10159" data-name="Group 10159" transform="translate(0.317 -6.427)">
      <path id="iconmonstr-filter-8" d="M1,0H74.366L44.352,47V80.035l-13.339-6.67V47Z" transform="translate(912 9287.982)" fill="url(#linear-gradient)"/>
      <g id="Group_10160" data-name="Group 10160" transform="translate(5.678 6.24)">
        <path id="Subtraction_48" data-name="Subtraction 48" d="M12310.162-7490.295h-12.3c.013-2.857-.127-4.382-3.287-5.111l-.137-.032c-2.29-.529-4.454-1.028-5.24-2.144a7.915,7.915,0,0,1,2.5-.957l.293-.067c3.288-.759,6.394-1.476,7.2-3.255a3.149,3.149,0,0,0-.38-2.85c-3.406-6.283-4.094-11.739-1.936-15.364a7.285,7.285,0,0,1,2.972-2.788,9.028,9.028,0,0,1,4.177-.951,9.034,9.034,0,0,1,4.131.929,7.228,7.228,0,0,1,2.967,2.752c2.155,3.58,1.484,9.057-1.888,15.422a3.175,3.175,0,0,0-.358,2.859c.812,1.775,3.954,2.5,7.281,3.27l.188.043a7.9,7.9,0,0,1,2.5.961c-.788,1.108-2.908,1.6-5.153,2.118l-.23.053a3.813,3.813,0,0,0-2.845,1.776,7.314,7.314,0,0,0-.446,3.3v.033Z" transform="translate(-11360.006 16767.813)" fill="url(#linear-gradient-2)"/>
        <path id="iconmonstr-user-1" d="M17.449,15.164c-2.882-.665-5.564-1.249-4.265-3.7C17.138,3.994,14.231,0,10.056,0,5.8,0,2.963,4.147,6.928,11.462c1.338,2.468-1.446,3.051-4.265,3.7C.088,15.759-.008,17.038,0,19.274l0,.838h20.1l0-.812C20.12,17.047,20.033,15.762,17.449,15.164Z" transform="translate(954.899 9257.408)" fill="url(#linear-gradient-3)"/>
        <path id="iconmonstr-user-1-2" data-name="iconmonstr-user-1" d="M17.449,15.164c-2.882-.665-5.564-1.249-4.265-3.7C17.138,3.994,14.231,0,10.056,0,5.8,0,2.963,4.147,6.928,11.462c1.338,2.468-1.446,3.051-4.265,3.7C.088,15.759-.008,17.038,0,19.274l0,.838h20.1l0-.812C20.12,17.047,20.033,15.762,17.449,15.164Z" transform="translate(913 9257.408)" fill="url(#linear-gradient-3)"/>
      </g>
    </g>
  </g>
</svg>
