<svg xmlns="http://www.w3.org/2000/svg" xmlns:xlink="http://www.w3.org/1999/xlink" width="124.988" height="93.46" viewBox="0 0 124.988 93.46">
  <defs>
    <linearGradient id="linear-gradient" x1="0.976" y1="0.472" x2="-0.012" y2="0.623" gradientUnits="objectBoundingBox">
      <stop offset="0" stop-color="#212427"/>
      <stop offset="1" stop-color="#585858"/>
    </linearGradient>
  </defs>
  <g id="achievement-icon-1" transform="translate(2256.996 -1997.838)">
    <path id="Subtraction_57" data-name="Subtraction 57" d="M12404.1-7432.2v0c-2.16-9.93-6.689-14.85-13.849-15.041-.117,0-.219,0-.312,0-3.806,0-5.639,1.957-7.579,4.028a18.056,18.056,0,0,1-4.03,3.5,13.869,13.869,0,0,1-6.922,1.752l-.191,0c-5.364,0-8.707-4.475-12.246-9.211l-.255-.341-.348-.464c-4.116-5.478-8.076-10.013-14.877-10.013h-.242c-8.233.13-13.556,6.593-18.252,12.3-3.416,4.148-6.366,7.73-9.682,7.73-3.872,0-6.423-1.822-8.89-3.583-2.446-1.748-4.977-3.554-8.782-3.554h-.186a9.445,9.445,0,0,0-4.4,1.348,16.475,16.475,0,0,0-5.248,4.854,69.991,69.991,0,0,1,.926-39.9,67.129,67.129,0,0,1,8.651-17.394,68.624,68.624,0,0,1,13.077-14.175,62.686,62.686,0,0,1,16.32-9.683,54.16,54.16,0,0,1,18.384-3.919c.549-.018,1.111-.026,1.671-.026a59.028,59.028,0,0,1,18.731,3.173,69.326,69.326,0,0,1,17.572,8.867,68.022,68.022,0,0,1,14.514,13.577,58.3,58.3,0,0,1,9.557,17.3,57.938,57.938,0,0,1,2.683,11.93,66.656,66.656,0,0,1,.275,12.459,73.125,73.125,0,0,1-1.981,12.484,74.406,74.406,0,0,1-4.091,12Z" transform="translate(-14542.352 9523.497)" fill="#f5f5f5"/>
    <g id="Group_10474" data-name="Group 10474" transform="translate(-2901.426 -7046.1)">
      <path id="Subtraction_52" data-name="Subtraction 52" d="M43,86A43.023,43.023,0,0,1,3.644,25.65L40.672,47.028,45.366,38.9,8.354,17.527A43.171,43.171,0,0,1,23.282,4.777,43.009,43.009,0,1,1,59.737,82.621,42.725,42.725,0,0,1,43,86Z" transform="translate(664.426 9043.938)" fill="#5fbd66"/>
      <ellipse id="Ellipse_9463" data-name="Ellipse 9463" cx="36.5" cy="37" rx="36.5" ry="37" transform="translate(670.426 9049.938)" fill="#fff"/>
      <path id="Subtraction_51" data-name="Subtraction 51" d="M30,60A30.02,30.02,0,0,1,2.013,19.17L27.69,34l4.657-8.062L6.687,11.117A30.01,30.01,0,1,1,30,60Z" transform="translate(676.426 9056.938)" fill="#5fbd66"/>
      <ellipse id="Ellipse_9465" data-name="Ellipse 9465" cx="23.5" cy="24" rx="23.5" ry="24" transform="translate(683.426 9062.938)" fill="#fff"/>
      <path id="Subtraction_50" data-name="Subtraction 50" d="M17.5,35A17.512,17.512,0,0,1,.534,13.2l6.644,6.738,8,1.592L19.865,13.4,15.176,6.5,5.343,4.912A17.5,17.5,0,0,1,29.875,29.874,17.387,17.387,0,0,1,17.5,35Z" transform="translate(689.426 9069.938)" fill="#5fbd66"/>
      <ellipse id="Ellipse_9467" data-name="Ellipse 9467" cx="11.5" cy="11" rx="11.5" ry="11" transform="translate(695.426 9075.938)" fill="#fefefe"/>
      <ellipse id="Ellipse_9468" data-name="Ellipse 9468" cx="4.5" cy="5" rx="4.5" ry="5" transform="translate(702.426 9081.938)" fill="#5fbd66"/>
      <path id="path4297-68" d="M.877,0a1,1,0,0,0-.43.132A.753.753,0,0,0,0,.889v.292L1.652,2.836a20.577,20.577,0,0,1,1.626,1.73c-.019.057.193,2.518.193,2.555a.816.816,0,0,1-.2.259c-.113.109-.894.9-1.736,1.76L0,10.7,0,11a.829.829,0,0,0,.272.674c.094.1.2.129.456.132l.335,0L3.461,9.435,5.855,7.062H7.738a17.752,17.752,0,0,1,1.883.05c0,.028-.742.788-1.649,1.69S6.287,10.51,6.243,10.594a1.291,1.291,0,0,0-.1.646.843.843,0,0,0,.211.35c.186.2.229.221.544.221h.342L9.471,9.6C10.7,8.39,11.742,7.321,11.79,7.229l.087-.168h1.947a10.746,10.746,0,0,1,1.947.064c0,.035-.781.84-1.735,1.788L12.3,10.638v.376c0,.345.017.394.2.587a.539.539,0,0,0,.52.21.918.918,0,0,0,.414-.076c.137-.106.622-.588,2.785-2.772l1.883-1.9-.173-2.435L15.71,2.412C14.488,1.193,13.394.152,13.28.1c-.221-.105-.409-.128-.442-.053a.648.648,0,0,1-.2.138.783.783,0,0,0-.365.806c.038.238.165.383,1.664,1.886.893.9,1.623,1.657,1.623,1.692a10.276,10.276,0,0,1-1.883.066l-1.883,0L9.564,2.418C8.34,1.2,7.263.156,7.172.1,6.99-.011,6.7-.036,6.7.06a.072.072,0,0,1-.079.061c-.119,0-.448.373-.491.557-.1.413-.039.49,1.686,2.227C8.72,3.817,9.446,4.578,9.427,4.6s-.867.04-1.884.047l-1.849.012L3.427,2.389C2.18,1.141,1.118.121,1.067.121S.975.093.975.06.938,0,.878,0Z" transform="translate(650.376 9046.994) rotate(30)" fill="#c4c923"/>
      <path id="path4297-68-2" data-name="path4297-68" d="M2.372,3.073C.853,3.057.479,3.16.149,3.682A.991.991,0,0,0,0,4.318c0,.417.018.459.353.8S.995,5.5,2.416,5.5H44.4C58.76,5.5,59,5.359,59,5.385s-.026,2.895-.026,2.895S70.147,4.454,69.948,4.31C69.833,4.227,59.028-.181,59.028-.181c-.179,3.113.032,2.955.017,2.969s-.357.28-14.753.28C44.292,3.069,3.171,3.081,2.372,3.073Z" transform="translate(650.012 9048.495) rotate(30)" fill="url(#linear-gradient)"/>
    </g>
  </g>
</svg>
