<svg xmlns="http://www.w3.org/2000/svg" xmlns:xlink="http://www.w3.org/1999/xlink" width="140.21" height="113.541" viewBox="0 0 140.21 113.541">
  <defs>
    <clipPath id="clip-path">
      <path id="Path_3476" data-name="Path 3476" d="M-11335.318,16641.8s1.169,126.771-2.481,109.283c-3.174-15.2-10.914-16.861-15.388-16.98-9.479-.252-8.039,9.93-20.8,10.184s-15.261-22.242-31.09-21.99-22.242,21.99-30.837,21.99-11.121-7.963-19.715-7.836c-3.713.055-11.733,3.59-15.361,17.285-4.6,17.371-4.354-111.936-4.354-111.936Z" transform="translate(12585 -7423.59)" fill="#f5f5f5"/>
    </clipPath>
    <linearGradient id="linear-gradient" x1="0.5" x2="0.5" y2="1" gradientUnits="objectBoundingBox">
      <stop offset="0" stop-color="#fff"/>
      <stop offset="1" stop-color="#f5f5f5"/>
    </linearGradient>
    <linearGradient id="linear-gradient-2" x1="0.5" x2="0.5" y2="1" gradientUnits="objectBoundingBox">
      <stop offset="0" stop-color="#68db7c"/>
      <stop offset="1" stop-color="#4b9b51"/>
    </linearGradient>
    <linearGradient id="linear-gradient-3" x1="0.5" x2="0.5" y2="1" gradientUnits="objectBoundingBox">
      <stop offset="0" stop-color="#f7ff00"/>
      <stop offset="1" stop-color="#c8ce00"/>
    </linearGradient>
  </defs>
  <g id="achievement-icon-3" transform="translate(-1121.649 -9032.207)">
    <path id="Subtraction_47" data-name="Subtraction 47" d="M12416.475-7441.968h0c-2.378-10.957-7.385-16.388-15.308-16.6-.113,0-.228,0-.34,0-4.206,0-6.23,2.149-8.373,4.425a19.91,19.91,0,0,1-4.449,3.839,15.374,15.374,0,0,1-7.643,1.924l-.21,0c-5.922,0-9.613-4.912-13.521-10.113-.223-.3-.443-.59-.665-.884-4.542-6.016-8.914-11-16.427-11l-.268,0c-9.087.145-14.962,7.24-20.146,13.5-3.771,4.555-7.029,8.489-10.689,8.489-4.274,0-7.091-2-9.815-3.934-2.7-1.92-5.5-3.9-9.7-3.9h-.2a11.363,11.363,0,0,0-5.64,1.95,20.087,20.087,0,0,0-6.5,7.2,65.937,65.937,0,0,1-4.143-19.387,48.37,48.37,0,0,1,2.409-18.434,46.982,46.982,0,0,1,9.714-16.108,63.721,63.721,0,0,1,15.481-12.333,81.17,81.17,0,0,1,40.033-10.668c.357,0,.707,0,1.069.007a76.883,76.883,0,0,1,20.764,3.245,74.317,74.317,0,0,1,18.674,8.531,65.691,65.691,0,0,1,15.054,13.144,56.763,56.763,0,0,1,9.907,17.082,61.308,61.308,0,0,1,3.483,19.622A72.652,72.652,0,0,1,12416.475-7441.968Z" transform="translate(-11157.352 16582.527)" fill="#f5f5f5"/>
    <g id="Mask_Group_180" data-name="Mask Group 180" transform="translate(12 -186)" clip-path="url(#clip-path)">
      <g id="Group_10162" data-name="Group 10162" transform="translate(11225.939 -7094.771)">
        <path id="Path_3457" data-name="Path 3457" d="M168.4,59.765a49.263,49.263,0,0,1,.461,7.573c0,26.736-.151,53.47-.227,80.2H106.686c-.213-28.279-.069-57.192.078-85.5.026-.352.1-1.307.134-1.548a5.8,5.8,0,0,1,1.277-2.915,6.423,6.423,0,0,1,3.7-1.892,27.426,27.426,0,0,1,4.2-.261c1.127-.033,1.862-.046,3.346-.155l.384.136a9.569,9.569,0,0,0,.3,2.36,3.77,3.77,0,0,0,1.388,2.114,2.612,2.612,0,0,0,1.016.5c2.874.476,30.091.44,31.449.067a4.162,4.162,0,0,0,3.014-2.684c.222-.815.1-1.7.329-2.508l.218.058c6.112-.271,10.166.978,10.874,4.451Z" transform="translate(-10181.19 16273.219)" fill="url(#linear-gradient)"/>
        <path id="Path_3458" data-name="Path 3458" d="M474.733,273.246a.744.744,0,0,1-.166.594.7.7,0,0,1-.373.139,4.157,4.157,0,0,1-1.046.019h-.01L473.1,259.38h.051l1.481.176Z" transform="translate(-10483.042 16104.765)" fill="#5b5b5b"/>
        <path id="Path_3459" data-name="Path 3459" d="M144.917,42.514c-.227.812-.107,1.693-.329,2.508a4.156,4.156,0,0,1-3.014,2.684c-1.358.372-28.575.409-31.449-.067a2.612,2.612,0,0,1-1.016-.5,3.776,3.776,0,0,1-1.388-2.114,9.581,9.581,0,0,1-.3-2.36l-.384-.136c-1.494.109-2.228.122-3.346.155a26.749,26.749,0,0,0-4.2.261,6.427,6.427,0,0,0-3.7,1.892,5.753,5.753,0,0,0-1.277,2.915c-.039.241-.107,1.189-.134,1.548-.146,28.3-.291,57.217-.078,85.5H91.656q-.153-19.339-.13-38.679,0-4.209.018-8.415,0-1.749.014-3.5.016-4.266.042-8.533.014-2.413.032-4.822.016-2.371.037-4.741.058-7.221.143-14.442c.028-2.445,0-4.787.981-7.024.958-2.18,3.537-4.544,5.927-4.563h.028c18.042-.236,32.684-.458,50.725-.125a9.321,9.321,0,0,1,6.571,2.353,8.239,8.239,0,0,1,2.492,5.328c.335,4.829.151,9.749.164,14.6l.037,15.365v.86l.037,14.619.037,15.254q.033,13.236.065,26.468h-2.642c.076-26.734.225-53.469.227-80.2A49.135,49.135,0,0,0,156,47.021c-.7-3.473-4.755-4.722-10.856-4.444Z" transform="translate(-10168.672 16285.687)" fill="#262626"/>
        <path id="Path_3460" data-name="Path 3460" d="M85.774,189.193h.077q-.021,2.369-.037,4.741h-.2a1.812,1.812,0,0,1-.56.012.609.609,0,0,1-.444-.31.919.919,0,0,1-.06-.324,22.909,22.909,0,0,1-.026-3.579.6.6,0,0,1,.079-.282.528.528,0,0,1,.294-.176A2.231,2.231,0,0,1,85.774,189.193Z" transform="translate(-10162.854 16162.601)" fill="#5b5b5b"/>
        <path id="Path_3461" data-name="Path 3461" d="M84.242,242.826h.319q-.026,4.266-.042,8.533h-.264c-.329.137-.743.262-1.007.025a.923.923,0,0,1-.222-.643c-.164-2.214.1-4.435.074-6.654A2.03,2.03,0,0,1,83.3,243,.628.628,0,0,1,84.242,242.826Z" transform="translate(-10161.625 16118.529)" fill="#5b5b5b"/>
        <path id="Path_3462" data-name="Path 3462" d="M84.548,311.862q-.014,4.208-.018,8.415l-1,.044a.338.338,0,0,1-.428-.4c-.123-2.2-.051-4.4.021-6.617a1.6,1.6,0,0,1,.382-1.2A1.484,1.484,0,0,1,84.548,311.862Z" transform="translate(-10161.675 16061.529)" fill="#5b5b5b"/>
        <path id="Path_3463" data-name="Path 3463" d="M351.544,56.065a1.361,1.361,0,0,0-.176-.629,1.422,1.422,0,0,0-.889-.664,1.635,1.635,0,0,0-.606-.035,1.039,1.039,0,0,0-.738.488.6.6,0,0,0-.055.1,1.523,1.523,0,0,0-.21.682,1.425,1.425,0,0,0,.44,1.022,1.312,1.312,0,0,0,1.265.324,1.358,1.358,0,0,0,.484-.247.974.974,0,0,0,.278-.3.576.576,0,0,0,.1-.234l-.042.1c.028-.092.086-.176.109-.271A1.233,1.233,0,0,0,351.544,56.065Zm-.852-.159Z" transform="translate(-10380.692 16273.376)"/>
        <path id="Path_3464" data-name="Path 3464" d="M256.643,59.476a16.834,16.834,0,0,0-3.936-.3c-1.381-.019-2.763,0-4.144,0-2.615,0-5.511-.3-8.058.4a.424.424,0,0,0,0,.812c2.549.7,5.441.393,8.058.395,1.381,0,2.763.016,4.144,0a16.732,16.732,0,0,0,3.936-.3.518.518,0,0,0,0-1Z" transform="translate(-10291.165 16269.766)"/>
        <path id="Path_3465" data-name="Path 3465" d="M104.225,89.793c-.292,5.62-.231,11.272-.287,16.891-.056,5.543-.085,11.1-.114,16.63q-.086,16.822-.093,33.64c0,3.109.021,6.216.039,9.324.018,3.2-.076,6.436.143,9.632a.428.428,0,0,0,.854,0c.153-2.857.042-5.738.03-8.6q-.019-4.143-.028-8.278c-.012-5.543-.042-11.085-.051-16.626-.018-11.216.028-22.432.018-33.64,0-6.316.143-12.655-.12-18.965a.2.2,0,0,0-.389,0Z" transform="translate(-10178.729 16244.621)"/>
        <path id="Path_3466" data-name="Path 3466" d="M394.821,54.378a17.308,17.308,0,0,1,7.781,1.147,4.667,4.667,0,0,1,2.8,3.949,68.473,68.473,0,0,1,.319,8.264q0,5.46-.025,10.9c-.04,14.423-.134,28.846-.188,43.269-.032,8.146-.213,16.308.127,24.448a.282.282,0,0,0,.564,0c.352-7.5.259-15.011.287-22.514s.044-15.008.056-22.513.023-15.01.026-22.514V67.561a64.192,64.192,0,0,0-.373-8.371c-.715-5.421-7.1-5.543-11.365-5.307-.315.018-.321.5,0,.495Z" transform="translate(-10418.357 16274.122)"/>
        <path id="Path_3467" data-name="Path 3467" d="M119.272,54.381a28.1,28.1,0,0,0-4.474,0,13.57,13.57,0,0,0-5.108.8,6.023,6.023,0,0,0-3.63,6.217c.048.252.4.206.467,0,.329-.96.176-2.048.518-3.035a5,5,0,0,1,3.875-3.116c2.76-.638,5.636.032,8.378-.7.093-.025.063-.148-.021-.159Z" transform="translate(-10180.601 16273.735)"/>
        <path id="Path_3468" data-name="Path 3468" d="M217.51,53.885c-.38,1.339-.164,2.765-1.233,3.825a4.2,4.2,0,0,1-2.113,1.125,16.142,16.142,0,0,1-1.726.093c-2.492.083-4.988.1-7.482.118-6.117.042-12.243.049-18.356-.134-.985-.03-1.973-.058-2.954-.136-2.409-.192-2.809-2.66-3.1-4.7-.053-.372-.609-.255-.627.085-.107,2.078.528,4.917,2.97,5.391a14.517,14.517,0,0,0,2.124.157c2.806.122,5.617.144,8.424.176,6.279.051,12.577.1,18.846-.134a12.648,12.648,0,0,0,2.145-.148,4.78,4.78,0,0,0,2.453-1.453c1.115-1.243.791-2.607,1.1-4.125a.248.248,0,0,0-.477-.132Z" transform="translate(-10241.488 16274.196)"/>
        <path id="Path_3469" data-name="Path 3469" d="M96.548,40.477c-2.6-.116-4.972,1.8-6.186,3.984C88.777,47.307,89.05,50.833,89,53.971q-.15,10.391-.254,20.783-.159,18.6-.049,37.207c.044,7.794-.09,15.626.291,23.413a.428.428,0,0,0,.854,0c.176-6.8-.053-13.623-.1-20.431q-.063-8.956-.076-17.914-.025-18.564.139-37.131.021-2.962.046-5.923a50.327,50.327,0,0,1,.176-5.74A9.009,9.009,0,0,1,92.1,43.328a6.526,6.526,0,0,1,4.437-2.517.176.176,0,0,0,0-.335Z" transform="translate(-10166.311 16285.118)"/>
        <path id="Path_3470" data-name="Path 3470" d="M419.9,40.116a8.676,8.676,0,0,1,7.725,4.019,9.4,9.4,0,0,1,1.124,4.368c.09,1.735.12,3.471.121,5.21,0,6.858-.118,13.719-.12,20.579,0,13.59-.026,27.18,0,40.772.016,6.578-.063,13.167.106,19.746a.446.446,0,0,0,.891,0c.125-6.092.016-12.192,0-18.284q-.034-10.3-.079-20.582c-.076-14.307-.016-28.622-.229-42.927-.049-3.3.213-7.006-1.863-9.794a9.208,9.208,0,0,0-7.667-3.427.162.162,0,0,0,0,.322Z" transform="translate(-10439.102 16285.677)"/>
        <path id="Path_3471" data-name="Path 3471" d="M131.225,38.13q19.606-.2,39.224-.037c3.833.032,7.7.252,11.531.113a.441.441,0,0,0,0-.881c-3.382-.247-6.821-.148-10.215-.176q-4.87-.028-9.738-.011-9.634.053-19.27.234c-3.845.069-7.69.21-11.535.273a.241.241,0,1,0,0,.483Z" transform="translate(-10201.179 16287.869)"/>
        <path id="Path_3472" data-name="Path 3472" d="M84.543,188.256c-.43-.058-1.1-.127-1.395.291a1.55,1.55,0,0,0-.143.7c-.048.539-.081,1.087-.081,1.627,0,.919-.1,3.17,1.5,2.388a.164.164,0,0,0-.039-.3,2.166,2.166,0,0,1-.324-.074.8.8,0,0,1-.518-.717,9.247,9.247,0,0,1-.081-1.465c-.023-.435-.044-.865-.026-1.3.032-.742.331-.837,1.073-.881.15-.009.206-.255.037-.28Z" transform="translate(-10161.586 16163.399)"/>
        <path id="Path_3473" data-name="Path 3473" d="M82.732,241.671c-.444-.571-1.164-.146-1.388.4a4.737,4.737,0,0,0-.159,1.629c-.021.722-.063,1.442-.1,2.165s-.06,1.45-.062,2.154A7.93,7.93,0,0,0,81.12,250c.229.84.951.854,1.634.507.247-.127.074-.511-.187-.442-1.057.28-.891-1.122-.9-1.714,0-.72.018-1.441.042-2.161.023-.666.042-1.332.051-2,0-.551-.236-2.709.824-2.29.155.062.222-.148.144-.248Z" transform="translate(-10160.011 16119.578)"/>
        <path id="Path_3474" data-name="Path 3474" d="M83.685,310.816c-2.4-.6-1.784,2.633-1.71,4.009.035.7,0,1.395-.011,2.091A11.057,11.057,0,0,0,81.93,319c.155.847.9.618,1.64.6.326,0,.321-.528,0-.5-.62.042-1.057.306-1.279-.451a5.447,5.447,0,0,1-.109-1.044,18.188,18.188,0,0,1-.032-2.439c.055-.819.217-1.615.255-2.439a3.578,3.578,0,0,1,.074-.933c.2-.606.717-.631,1.2-.727a.134.134,0,0,0,0-.257Z" transform="translate(-10160.702 16062.449)"/>
        <path id="Path_3475" data-name="Path 3475" d="M471.826,258.754a11.114,11.114,0,0,0,1.457.278l-.2-.262q.026,3.686.065,7.367c.014,1.169-.025,2.339,0,3.508.018.643.053,1.286.079,1.929a3.159,3.159,0,0,1,.014.881c-.275.516-.808.511-1.289.439s-.555.634-.086.639c.75,0,1.635.011,1.79-.859a13.884,13.884,0,0,0,.037-1.973c.023-.817.03-1.636.014-2.455-.06-3.156-.06-6.314-.085-9.472a.28.28,0,0,0-.271-.273,11.567,11.567,0,0,0-1.483-.083.176.176,0,0,0-.046.34Z" transform="translate(-10481.765 16105.558)"/>
      </g>
    </g>
    <path id="blob_7_" data-name="blob (7)" d="M-34.121-49.1a17.8,17.8,0,0,1-6.124,19.077c-5.8,4.363-14.877,4.932-20.893.7s-8.97-13.278-6.585-20.053c2.358-6.775,10.053-11.273,17.316-11.137C-43.118-60.373-36.289-55.576-34.121-49.1Z" transform="translate(1245.947 9125.975)" fill="url(#linear-gradient-2)"/>
    <path id="iconmonstr-check-mark-2" d="M7.759,18.543,0,11.1,2.406,8.622l5.307,5.064L18.239,2.965,20.69,5.393Z" transform="translate(1184.654 9071.748)" fill="url(#linear-gradient-3)"/>
  </g>
</svg>
