<svg xmlns="http://www.w3.org/2000/svg" width="30.378" height="52.994" viewBox="0 0 30.378 52.994"><path id="iconmonstr-help-1" d="M26.054,47.474a5.518,5.518,0,1,1-5.518-5.52A5.516,5.516,0,0,1,26.054,47.474ZM20.71,0C11.814,0,5.121,5.946,5.121,17.665h8.733c0-5.087,2-9.25,6.677-9.25a5.746,5.746,0,0,1,5.927,5.324c.272,3.679-1.694,5.545-4.178,7.909-6.456,6.138-6.218,8.941-6.218,15.889h8.706c0-3.206-.347-5.538,4.058-10.287,2.939-3.171,6.593-7.114,6.671-13.123C35.6,5.377,29.423,0,20.71,0Z" transform="translate(-5.121)" fill="#5fbd66"></path></svg>