<svg xmlns="http://www.w3.org/2000/svg" width="46.535" height="46.714" viewBox="0 0 46.535 46.714"><path id="iconmonstr-steam-4" d="M46.627,23.357A23.356,23.356,0,0,1,.411,28.151l9.273,3.9a6.122,6.122,0,0,0,12.128-1.158l.014-.006,7.011-5.224a7.965,7.965,0,1,0-7.869-8.115l-5.139,7.188a6.036,6.036,0,0,0-3.486.993L.092,20.577a23.35,23.35,0,0,1,46.535,2.779ZM14.361,34.017l-3.005-1.263a4.733,4.733,0,1,0,4.335-6.633,4.694,4.694,0,0,0-1.674.311l3,1.261a3.43,3.43,0,0,1-2.657,6.324Zm14.567-10.9A5.415,5.415,0,1,1,34.341,17.7,5.422,5.422,0,0,1,28.928,23.114Zm0-1.327A4.09,4.09,0,1,0,24.837,17.7,4.091,4.091,0,0,0,28.928,21.786Z" transform="translate(-0.092)" fill="#171d25"></path></svg>