<svg xmlns="http://www.w3.org/2000/svg" width="31.02" height="31.02" viewBox="0 0 31.02 31.02">
  <path id="serv-icon-1" d="M30.5,11.522a24.285,24.285,0,0,1-.538-4.357C29.746,3.351,27.92,1,23.642.925A19.428,19.428,0,0,1,19.091.414,15.7,15.7,0,0,0,15.511,0a15.54,15.54,0,0,0-4.093.547,19.82,19.82,0,0,1-3.952.38C3.187,1,1.361,3.351,1.145,7.166a26.557,26.557,0,0,1-.353,3.443,15.559,15.559,0,0,0,0,9.8,26.518,26.518,0,0,1,.353,3.442c.216,3.814,2.042,6.17,6.32,6.239a19.791,19.791,0,0,1,3.956.381,15.605,15.605,0,0,0,7.67.129,19.414,19.414,0,0,1,4.551-.511c4.279-.069,6.106-2.425,6.32-6.239a24.309,24.309,0,0,1,.535-4.343,15.576,15.576,0,0,0,0-7.989ZM28.672,7.239l.008.137a15.537,15.537,0,0,0-5.238-5.162l.18,0c3.3.054,4.858,1.6,5.051,5.021Zm-4.933,4.526L27.11,9.846a12.772,12.772,0,0,1,0,11.329l-3.371-1.919a8.98,8.98,0,0,0,0-7.49ZM15.51,28.435A12.832,12.832,0,0,1,9.827,27.1l1.919-3.371a8.976,8.976,0,0,0,7.527,0L21.193,27.1A12.832,12.832,0,0,1,15.51,28.435Zm0-6.462a6.462,6.462,0,1,1,6.462-6.462A6.47,6.47,0,0,1,15.51,21.972Zm0-19.387a12.832,12.832,0,0,1,5.683,1.334L19.273,7.29a8.976,8.976,0,0,0-7.527,0L9.827,3.919A12.832,12.832,0,0,1,15.51,2.585ZM7.486,2.219h.085A15.549,15.549,0,0,0,2.439,7.207c.2-3.4,1.759-4.935,5.047-4.988ZM7.281,19.254,3.91,21.173a12.772,12.772,0,0,1,0-11.329l3.371,1.919a8.98,8.98,0,0,0,0,7.49Zm-4.839,4.57A15.533,15.533,0,0,0,7.587,28.8l-.1,0c-3.284-.053-4.842-1.59-5.045-4.976ZM23.621,28.8l-.194,0a15.529,15.529,0,0,0,5.253-5.153l-.008.131c-.193,3.417-1.751,4.966-5.051,5.019Z" fill="#fefefe"/>
</svg>
