<svg xmlns="http://www.w3.org/2000/svg" width="23.4" height="29.052" viewBox="0 0 23.4 29.052">
  <g id="serv-icon-2" transform="translate(-1116 -7700)">
    <path id="iconmonstr-media-control-42" d="M17.55,7.875V10.8L23.4,6.9,17.55,3V5.925c-5.688,0-7.25,3.395-8.629,6.392C7.612,15.165,6.48,16.551,1.95,16.551H0V18.5H1.95c5.78,0,7.354-2.349,8.744-5.37C11.991,10.31,13.111,7.875,17.55,7.875Z" transform="translate(1116 7697)" fill="#fefefe"/>
    <path id="iconmonstr-media-control-42-2" data-name="iconmonstr-media-control-42" d="M17.55,12.626V9.7l5.85,3.9-5.85,3.9V14.576c-5.688,0-7.25-3.395-8.629-6.392C7.612,5.336,6.48,3.95,1.95,3.95H0V2H1.95C7.73,2,9.3,4.349,10.694,7.37,11.991,10.19,13.111,12.626,17.55,12.626Z" transform="translate(1116 7711.551)" fill="#fefefe"/>
    <path id="iconmonstr-media-control-42-3" data-name="iconmonstr-media-control-42" d="M17.55,13.925V11l5.85,3.9-5.85,3.9V15.875H0v-1.95H17.55Z" transform="translate(1116 7699.626)" fill="#fefefe"/>
  </g>
</svg>
