<svg xmlns="http://www.w3.org/2000/svg" width="29.029" height="29.029" viewBox="0 0 29.029 29.029">
  <path id="serv-icon-3" d="M21.009,0c-3.565,0-5.65,4.207-6.494,6.048H20.98A3.027,3.027,0,1,0,21.009,0Zm-.963,4.38H17.575C18.469,3.024,19.314,2,20.408,2,21.825,2,21.893,4.38,20.046,4.38Zm-12,1.668h6.465C13.67,4.207,11.585,0,8.021,0A3.027,3.027,0,1,0,8.05,6.048ZM8.622,2c1.092,0,1.939,1.022,2.833,2.378H8.983C7.136,4.38,7.2,2,8.622,2ZM29.029,7.257H0v7.257H1.277V29.029H27.753V14.515h1.276ZM13.305,26.61H3.629v-12.1h9.676Zm0-14.515H2.419V9.676H13.305Zm2.419-2.419H26.61V12.1H15.724ZM25.4,26.61H15.724v-12.1H25.4Z" fill="#fefefe"/>
</svg>
