<svg xmlns="http://www.w3.org/2000/svg" width="29.029" height="29.029" viewBox="0 0 29.029 29.029">
  <path id="serv-icon-4" d="M25.892,11.561a15.558,15.558,0,0,1-4.81-.9C22.06,6.69,22.6,0,18.425,0,16.174,0,15.581,2.018,15,4.027c-1.872,6.454-4.773,8.244-7.741,8.952V12.1H0V26.61H7.257V25.517a23.22,23.22,0,0,1,7.462,2.112,16.042,16.042,0,0,0,6.454,1.4c3.07,0,5.2-1.206,6.059-4.458a83.634,83.634,0,0,0,1.8-9.979,2.942,2.942,0,0,0-3.138-3.031ZM4.838,24.191H2.419V14.515H4.838Zm19.227-6.753s.243.012,1.293-.033c1.309-.056,1.271,1.777,0,1.891l-2.13.12a.714.714,0,0,0,.171,1.418s.83-.021,1.383-.05c1.292-.068,1.229,1.728.048,1.876-.513.064-2.111.139-2.111.139a.7.7,0,1,0,.132,1.38l.933-.037c.994-.09,1.213,1-.353,2.009-1.9,1.066-5.667.158-7.76-.743-2.708-1.167-5.368-2.339-8.417-2.426V15.724C11.205,14.818,14.911,13,17.322,4.7c1.086-3.74,2.031-2.336,2.031.694a26.6,26.6,0,0,1-1.114,6.692,19.789,19.789,0,0,0,7.4,1.882c1.276.071,1.239,1.76-.062,1.916l-1.686.2s-.735,1.344.172,1.35Z" fill="#fefefe"/>
</svg>
