<svg xmlns="http://www.w3.org/2000/svg" xmlns:xlink="http://www.w3.org/1999/xlink" width="42" height="42" viewBox="0 0 42 42">
  <defs>
    <linearGradient id="linear-gradient" x1="0.5" x2="0.5" y2="1" gradientUnits="objectBoundingBox">
      <stop offset="0" stop-color="#68db7c"/>
      <stop offset="1" stop-color="#4b9b51"/>
    </linearGradient>
  </defs>
  <g id="serv-icon-8" transform="translate(-990 -8448)">
    <rect id="Rectangle_3622" data-name="Rectangle 3622" width="42" height="42" rx="5" transform="translate(990 8448)" fill="url(#linear-gradient)"/>
    <path id="iconmonstr-trophy-4" d="M33.839,3.82c-.525,5.788-3.959,11.408-9.691,13.307.419-.778.84-1.614,1.244-2.514A12.531,12.531,0,0,0,31.686,5.8H27.9c.083-.634.145-1.3.2-1.981h5.747ZM0,3.82C.525,9.608,3.959,15.228,9.691,17.127c-.419-.778-.84-1.614-1.244-2.514A12.531,12.531,0,0,1,2.153,5.8h3.79c-.082-.633-.144-1.3-.195-1.98H0Zm23.858,0C23.339,10.173,21.1,14.014,19.1,17.453a34.19,34.19,0,0,0-2.176,4.159,34.11,34.11,0,0,0-2.183-4.164c-2-3.436-4.245-7.277-4.764-13.629H23.858ZM26.79,1H7.05c0,13.822,7.2,18.4,7.9,23.97h3.955C19.607,19.4,26.79,14.822,26.79,1ZM16.92,17.281A30.95,30.95,0,0,1,14.3,5.23h-1.95c.527,4.4,2.618,9.9,4.568,12.051Zm2.028,9.1H14.906c-.285,1.674-.888,3.693-3.625,3.693V32.02h11.28V30.072C19.743,30.072,19.218,28.053,18.947,26.38Z" transform="translate(994.08 8452.996)" fill="#fefefe"/>
  </g>
</svg>
