<svg xmlns="http://www.w3.org/2000/svg" width="204.714" height="245.305"><g data-name="Layer 2"><path data-name="Path 2973" d="M100.683 65.495c.052 1.1.048 2.232 0 3.344A15.339 15.339 0 0 1 97 68.821a57.747 57.747 0 0 1 0-3.277z" fill="#252a25"/><path data-name="Path 2974" d="M105.606 65.521q.081 1.628.158 3.252l-3.682.052a42.675 42.675 0 0 1-.055-3.292q1.723-.07 3.454-.11c.041 0 .088 0 .111.033a.088.088 0 0 1 .014.065z" fill="#252a25"/><path data-name="Path 2975" d="M100.271 55.048q.066 1.569.066 3.137c-5.848.519-9.608 2.813-11.677 7h-3.182l-.206-.048a12.312 12.312 0 0 1 5.686-7.568 18.758 18.758 0 0 1 9.313-2.521z" fill="#1ea1f1"/><path data-name="Path 2976" d="M117.265 65.197h-3.388c-2.07-4.191-5.829-6.485-11.677-7q0-1.569.063-3.137a18.866 18.866 0 0 1 9.317 2.534 12.256 12.256 0 0 1 5.685 7.603z" fill="#1ea1f1"/><path data-name="Path 2977" d="m103.272 153.323.033 1.841a5.51 5.51 0 0 1-.1 2.173c-.287.626-1.035.714-1.679.736a3.189 3.189 0 0 1-1.473-.21 1.219 1.219 0 0 1-.736-1.186c.033-1.13.07-2.265.1-3.4l.11-3.572q.4-13.378.81-26.764c.033-1.186.14-2.526 1.046-3.3 1.293 1.436 1.311 3.576 1.274 5.524q-.228 11.983.56 23.962c.022 1.182.04 2.364.063 3.546z" fill="#fff"/><path data-name="Path 2978" d="M81.251 153.293a25.776 25.776 0 0 0-1.145-.063 403.403 403.403 0 0 1-.121-3.108h3.506v.689c0 .545-.018 1.561-.026 2.445a9.713 9.713 0 0 1-2.213.037z" fill="#5fba66"/><path data-name="Path 2979" d="m99.516 149.71-.11 3.572h-.1a28.4 28.4 0 0 1-4.441-.059c-.037-1.149 0-2.243.018-3.34h.081z" fill="#5fba66"/><path data-name="Path 2980" d="M122.561 149.485q-.066 1.959-.147 3.922h-1.1a19.728 19.728 0 0 1-2.419-.247h-.055c.044-.965.088-2.21.129-3.532q1.795.008 3.592-.143z" fill="#5fba66"/><path data-name="Path 2981" d="M107.935 153.297h-.144a34.622 34.622 0 0 0-4.283 0c-.1-1.2-.188-2.4-.269-3.609h.059a30.8 30.8 0 0 0 4.4.081h.188c.007 1.16.026 2.331.049 3.528z" fill="#5fba66"/><path data-name="Path 2982" d="M94.858 153.22c0 .453.037.913.074 1.388a18.944 18.944 0 0 0-.968-.066c-2.6-.125-7.637-.07-9.681-.037h-.84v-1.267c0-.884 0-1.9.026-2.445v-.689q.022-1.385.066-2.766h.059a54.059 54.059 0 0 0 11.368-.1c-.033.895-.074 1.764-.107 2.629-.016 1.11-.034 2.204.003 3.353z" fill="#fff"/><path data-name="Path 2983" d="M94.729 135.385c.28 3.314.368 6.628.317 9.943 0 .659-.026 1.292-.052 1.915a54.055 54.055 0 0 1-11.368.1h-.059c0-.512.026-1.02.044-1.528q.158-4.905.475-9.81a13.38 13.38 0 0 1 .843-4.548 5.811 5.811 0 0 1 2.556-2.828 4.5 4.5 0 0 1 3.756-.228 5.255 5.255 0 0 1 2.7 2.946 13.626 13.626 0 0 1 .788 4.036z" fill="#fff"/><path data-name="Path 2984" d="M108.553 154.604h-.6c0-.442 0-.876-.022-1.311-.018-1.2-.037-2.368-.048-3.52 0-1.009-.022-2-.026-2.99h.129l10.9-.184h.144a246.275 246.275 0 0 1-.081 3.012 245.062 245.062 0 0 1-.129 3.531 93.806 93.806 0 0 1-.063 1.414h-.464z" fill="#fff"/><path data-name="Path 2985" d="M119.077 142.058c0 1.333 0 2.946-.033 4.548h-.166l-10.9.184h-.118a124.114 124.114 0 0 1 .545-12.719c.265-2.666 1.215-5.395 4.158-6.26a4.419 4.419 0 0 1 4.194.932 5.66 5.66 0 0 1 1.326 2.187c1.266 3.409.95 7.548.994 11.128z" fill="#fff"/><path data-name="Path 2986" d="M84.613 156.666a78.167 78.167 0 0 1 9.335.041l.667.2c-.5 1.745-.991 3.572-1.432 5.384h-8.138q-.685-2.839-1.473-5.564l.022-.1z" fill="silver"/><path data-name="Path 2987" d="M93.963 154.56c.261.663.512 1.429.714 2.154-.022.066-.04.133-.059.2l-.667-.2a78.179 78.179 0 0 0-9.335-.041l-1.035-.048a20.9 20.9 0 0 1 .7-2.114c2.044-.039 7.082-.093 9.682.049z" fill="silver"/><path data-name="Path 2988" d="M107.864 156.7a25 25 0 0 1 .689-2.092l9.741-.048q.368.972.674 2.051l-.862.074-9.806.085-.368.107z" fill="silver"/><path data-name="Path 2989" d="m118.098 156.692.884.03q-.8 2.721-1.473 5.564h-8.135c-.435-1.8-.932-3.66-1.436-5.4l.368-.107z" fill="silver"/><path data-name="Path 2990" d="M79.319 162.842c-6.3-.173-12.889-.261-19.149 0l-1.4.063c0-.825.018-1.676.029-2.537 7.612-.2 14.9-.14 22.5.192-.048.81-.118 1.6-.206 2.346z" fill="silver"/><path data-name="Path 2991" d="m123.319 162.845-1.757.048a42.852 42.852 0 0 1-.221-2.342c7.612-.335 14.73-.4 22.367-.2h.144c0 .737.018 1.473.026 2.232l-.169.291-1.23-.052c-6.326-.257-12.822-.161-19.16.023z" fill="silver"/><path data-name="Path 2992" d="M145.764 176.879q-12.462-.136-24.916.261l-2.044.07q1.919-7.28 4.515-14.362c6.338-.181 12.833-.28 19.149-.018v.291q.7 2.243 1.41 4.482a392.613 392.613 0 0 0 3.056 9.294z" fill="#252a25"/><path data-name="Path 2993" d="M55.694 176.894a375.077 375.077 0 0 0 3.053-9.295q.707-2.235 1.41-4.482v-.287c6.29-.25 12.859-.162 19.149 0q2.578 7.063 4.515 14.362l-2.162-.074q-11.077-.346-22.157-.28a1.968 1.968 0 0 0-.416 0z" fill="#252a25"/><path data-name="Path 2994" d="M104.822 204.457a2.578 2.578 0 0 1 2.324-.287c.247.1.545.232.736.074a.626.626 0 0 0 .188-.468c.21-2.559-2.1-4.923-1.595-7.442.457-2.257 3.1-3.5 5.391-3.237s4.29 1.595 6.22 2.854a.931.931 0 0 0 .453.192c.331.018.574-.3.736-.589a10.812 10.812 0 0 0 1.23-7.266c-.368-1.941-1.248-3.756-1.554-5.7s.177-4.246 1.878-5.244v-.2q12.454-.4 24.916-.261a19.605 19.605 0 0 1 4.051 12.988 4.979 4.979 0 0 1 7.052 5.608c-.258 1.079-.862 2.254-.324 3.226.648 1.164 2.327 1.031 3.59 1.473a4.912 4.912 0 0 1 2.92 4.051 14.946 14.946 0 0 1-.49 5.192c-.085.4-.136.9.191 1.153a1.105 1.105 0 0 0 .648.155c1.322.041 2.883-.037 3.624-1.134 1.234-1.841-1.086-4.445-.14-6.444.571-1.208 2.066-1.613 3.388-1.786a12.094 12.094 0 0 1 5.329.265 5.758 5.758 0 0 1 3.778 3.539 7.434 7.434 0 0 1 0 3.554 14.017 14.017 0 0 1-1.587 4.548c-.736 1.252-1.745 2.331-2.534 3.554a5.861 5.861 0 0 0-1.1 4.113 2.919 2.919 0 0 0 3.056 2.482c1.974-.324 3.1-3.126 5.082-2.872 1.639.21 2.187 2.276 2.349 3.922 1.248-2.817 5.745-3.06 7.693-.67s1.282 6.26-1.005 8.319a3 3 0 0 0-.35 1.2 1.514 1.514 0 0 0 .737 1.433 1.819 1.819 0 0 0 1.944-.519c.523-.49.906-1.1 1.473-1.543a3.373 3.373 0 0 1 2.725-.46 6.261 6.261 0 0 1 2.493 1.326 10.407 10.407 0 0 1 3.314 11.338l-201.597-.665v-10.26a7.039 7.039 0 0 1-1.315-6.665c.858-2.209 3.583-3.682 5.741-2.7a7.824 7.824 0 0 0 1.34.571 1.1 1.1 0 0 0 1.256-.416 1.418 1.418 0 0 0 .114-.692 7.581 7.581 0 0 0-.3-1.926c-.368-1.293-1.1-2.5-1.189-3.844a4.642 4.642 0 0 1 4.842-4.574 5.67 5.67 0 0 1 4.975 4.857c1.027-1.226 2.434-2.578 3.981-2.154 1.841.475 2.5 3.115 4.364 3.443a2.129 2.129 0 0 0 2.346-2.361c-.144-.792-.736-1.444-.891-2.235-.276-1.451 1.2-2.806 2.677-2.821a4.794 4.794 0 0 1 3.682 2.139 2.308 2.308 0 0 0 .762.759 1.4 1.4 0 0 0 1.635-.53 2.913 2.913 0 0 0 .468-1.049l.328.059c.689-1.366-.214-3.06-1.429-3.973s-2.718-1.359-3.951-2.246a7.14 7.14 0 0 1-2.681-7.306 6.813 6.813 0 0 1 12.3-2.235 1.721 1.721 0 0 0 .317.508c-.1-.173-.2-.346-.317-.508a2.608 2.608 0 0 1 1.679-3.233 4.116 4.116 0 0 1 4.124 1.65c.667.814 1.326 1.9 2.368 1.893s1.716-1.182 1.65-2.209a6.971 6.971 0 0 0-1.156-2.85 4.407 4.407 0 0 1-.759-2.946 3.374 3.374 0 0 1 1.819-2.173 5.616 5.616 0 0 1 6.533 1.046q-.427-2.983-.858-5.962a8.922 8.922 0 0 1 .074-4.231 3.25 3.25 0 0 1 2.489-2.187h.43q11.081-.07 22.157.28c2.254 1.322 3.509 4.18 3.811 6.9a27.479 27.479 0 0 1 .063 4.264 22.753 22.753 0 0 0-.147 4.419 12.258 12.258 0 0 0 3.436 6.286 3.051 3.051 0 0 0 1.628.994.388.388 0 0 0 .243 0 .423.423 0 0 0 .18-.276c.291-.972-.133-1.808-.118-2.777a4.386 4.386 0 0 1 .821-2.681 4.34 4.34 0 0 1 3.911-1.44 6.433 6.433 0 0 1 4.993 3.542 12.236 12.236 0 0 1 .9 5.292 1.764 1.764 0 0 0 .147.854 1.668 1.668 0 0 0 .737.6z" fill="#fff"/><path data-name="Path 2995" d="M80.106 153.23c.523.018.869.041 1.145.063a58.7 58.7 0 0 1 .033 7.254c-7.6-.331-14.888-.394-22.5-.191.048-3.852.1-7.984.144-11.677 6.551-.191 13.257-.39 20.824-.685h.162a379.399 379.399 0 0 0 .192 5.236z" fill="#fff"/><path data-name="Path 2996" d="M122.561 149.486c.018-.5.037-1 .052-1.5h.191c7.6.295 14.34.493 20.924.689v.35q.074 5.664.136 11.324h-.158c-7.626-.2-14.756-.14-22.367.2a53.991 53.991 0 0 1-.033-7.151h1.1q.089-1.953.155-3.912z" fill="#fff"/><path data-name="Path 2997" d="M102.024 65.532c-.026 1.1 0 2.209.055 3.292l3.682-.052q-.077-1.624-.158-3.252a.089.089 0 0 0-.018-.066c-.022-.033-.07-.033-.11-.033q-1.724.023-3.451.111zm-1.352 3.314a30.683 30.683 0 0 0 0-3.344l-3.682.048a51.15 51.15 0 0 0 0 3.277 15.34 15.34 0 0 0 3.682.011zm-.335-10.653q0-1.569-.066-3.137a18.88 18.88 0 0 0-9.313 2.534 12.322 12.322 0 0 0-5.686 7.571l.206.048h3.182c2.07-4.205 5.829-6.5 11.677-7.019zm16.939 7a12.3 12.3 0 0 0-5.7-7.615 18.838 18.838 0 0 0-9.317-2.534q-.063 1.569-.063 3.137c5.848.519 9.608 2.813 11.677 7h.232zm5.413 80.37c0 .549-.022 1.1-.04 1.65a7.684 7.684 0 0 1-.026.77c0 .5-.033 1-.052 1.5q-1.793.147-3.6.133c.033-.968.059-2 .081-3.012.033-1.617.048-3.215.033-4.548-.044-3.579.273-7.733-1-11.128a5.66 5.66 0 0 0-1.326-2.187 4.419 4.419 0 0 0-4.194-.932c-2.946.862-3.892 3.59-4.158 6.26a124.1 124.1 0 0 0-.545 12.719c0 .987 0 1.981.026 2.99h-.188a30.794 30.794 0 0 1-4.4-.081h-.059c0-.2-.026-.387-.037-.582q-.784-11.964-.56-23.962c.037-1.933 0-4.073-1.274-5.524-.906.77-1.013 2.11-1.046 3.3q-.409 13.386-.81 26.764l-4.552.173h-.081c.033-.865.074-1.734.107-2.629.026-.622.044-1.256.052-1.915.037-3.314-.037-6.647-.317-9.943a13.625 13.625 0 0 0-.8-4.01 5.255 5.255 0 0 0-2.7-2.946 4.5 4.5 0 0 0-3.756.228 5.811 5.811 0 0 0-2.556 2.828 13.56 13.56 0 0 0-.843 4.548q-.313 4.905-.475 9.81c-.018.508-.033 1.016-.044 1.528q-.044 1.381-.066 2.766l-3.485-.015q-.039-1.066-.07-2.132c0-.258-.018-.516-.026-.773 0-.549-.033-1.1-.04-1.646-.026-.851-.04-1.7-.055-2.552-.18-11.611.3-23.218.155-34.781 0-.91-.022-1.815-.044-2.725 0-.7-.029-1.407-.037-2.11a263.576 263.576 0 0 1 2.283-40.721c.258-1.823.538-3.646.888-5.457.221-1.171.475-2.338.77-3.491a.07.07 0 0 1 0-.026c.074-.177.519-1.024.519-1.024 1.963-4.979 6.544-8.595 11.563-10.451a15.555 15.555 0 0 1 5.966-1.1 17.378 17.378 0 0 1 6.128 1.634 19.035 19.035 0 0 1 5.038 3.222c1.786 1.7 4.787 5.133 5.218 6.363l.092-.026c.464 1.624.84 3.277 1.16 4.942.346 1.8.626 3.62.88 5.435a263.187 263.187 0 0 1 2.286 40.464c0 .788-.022 1.572-.041 2.36q-.033 1.359-.044 2.718c-.147 11.567.335 23.174.155 34.788-.026.851-.026 1.687-.063 2.537z" fill="#fff"/><path data-name="Path 2998" d="M82.363 41.574c.49 5.185.549 10.44.6 15.636h.077c-.35 1.812-.63 3.635-.887 5.457a263.646 263.646 0 0 0-2.283 40.721 9.78 9.78 0 0 1-1.657 4.445 14.907 14.907 0 0 1-3.848 3.642c-1.429 1-2.681 2.125-4.106 3.137-3.259 2.316-6.6 4.526-9.744 7-.5.394-1 .8-1.491 1.208-.21-1.8.217-46.672.225-46.911.254-10.156.4-20.313.619-27.619v-.2c0-.49.033-.965.048-1.425.07-2.018.136-3.642.188-4.7v-.173a74.557 74.557 0 0 1 2.044-12.752c.692-2.758 1.6-5.583 3.6-7.711s5.362-3.373 8.138-2.25c2.464 1 3.8 3.473 4.739 5.826a59.969 59.969 0 0 1 3.723 16.66z" fill="#fff"/><path data-name="Path 2999" d="M142.531 41.968c.055 1.057.118 2.681.188 4.7 0 .339.022.689.033 1.042.236 7.343.368 17.772.644 28.2 0 .243.449 46.963.21 46.966q-.773-.648-1.561-1.263c-3.145-2.471-6.481-4.68-9.744-7-1.425-1.013-2.677-2.136-4.1-3.137a14.848 14.848 0 0 1-3.848-3.627 9.747 9.747 0 0 1-1.687-4.7 263.183 263.183 0 0 0-2.287-40.47 109.167 109.167 0 0 0-.88-5.435l.184-.037c.048-5.155.1-10.388.585-15.54a60 60 0 0 1 3.73-16.763c.935-2.353 2.279-4.828 4.739-5.826 2.777-1.1 6.142.122 8.142 2.25s2.906 4.953 3.6 7.711a74.287 74.287 0 0 1 2.051 12.859.408.408 0 0 1 0 .066z" fill="#fff"/><path data-name="Path 3000" d="M53.175 146.463h-3.163c.029-.888.066-1.734.129-2.556l2.979-.07q-.037 1.1-.018 2.169a1.134 1.134 0 0 0 .074.457z" fill="#404040"/><path data-name="Path 3001" d="M56.037 146.3v.158h-2.861a1.134 1.134 0 0 1-.077-.46q-.022-1.083.018-2.169c.928-.018 1.841-.044 2.773-.066q.072 1.274.147 2.537z" fill="#404040"/><path data-name="Path 3002" d="m58.972 146.414-2.946.037v-.148q-.077-1.267-.147-2.53l3.023-.077v2.464a.074.074 0 0 0 .052.063z" fill="#404040"/><path data-name="Path 3003" d="M62.179 143.881a21.523 21.523 0 0 0 .092 2.235v.236l-3.314.066v-.18a.074.074 0 0 1-.052-.063v-2.464l3.263-.088z" fill="#404040"/><path data-name="Path 3004" d="M65.593 143.663q.022 1.245.081 2.486v.1q-1.7.055-3.4.1v-.236a21.518 21.518 0 0 1-.092-2.235v-.272l3.414-.1z" fill="#404040"/><path data-name="Path 3005" d="M68.539 146.006v.147q-1.432.055-2.869.1v-.1q-.059-1.241-.081-2.486v-.151l2.806-.085v.317a19.537 19.537 0 0 0 .144 2.261z" fill="#404040"/><path data-name="Path 3006" d="M71.316 145.685v.368c-.924.041-1.841.081-2.784.114v-.147a19.539 19.539 0 0 1-.133-2.272v-.317l2.791-.088v.446c.048.614.089 1.259.126 1.896z" fill="#404040"/><path data-name="Path 3007" d="m74.342 145.512.018.368q-1.514.085-3.031.147v-.368l-.114-1.915v-.446l2.946-.1v.191a10.284 10.284 0 0 0 .181 2.123z" fill="#404040"/><path data-name="Path 3008" d="M76.931 143.236a20.326 20.326 0 0 0 .026 2.272v.239c-.865.052-1.738.1-2.611.144l-.018-.368a10.286 10.286 0 0 1-.228-2.1v-.192l2.81-.1z" fill="#404040"/><path data-name="Path 3009" d="M79.793 143.019c0 .851.029 1.7.055 2.552q-1.432.1-2.876.177v-.239a20.326 20.326 0 0 1-.026-2.272v-.114l2.824-.1z" fill="#404040"/><path data-name="Path 3010" d="M125.624 143.236a19.462 19.462 0 0 1-.026 2.272v.239c-.972-.055-1.941-.118-2.905-.18.026-.851.04-1.7.055-2.548h.07l2.824.1z" fill="#404040"/><path data-name="Path 3011" d="m125.628 143.122 2.813.1v.191a10.286 10.286 0 0 1-.228 2.1l-.018.368c-.873-.044-1.746-.092-2.611-.144v-.239a19.482 19.482 0 0 0 .026-2.272z" fill="#404040"/><path data-name="Path 3012" d="M131.372 143.324v.445c-.04.637-.077 1.278-.118 1.915v.368c-1.013-.048-2.025-.1-3.031-.151l.018-.368a10.286 10.286 0 0 0 .228-2.1v-.191z" fill="#404040"/><path data-name="Path 3013" d="M134.161 143.413v.317a19.527 19.527 0 0 1-.133 2.272v.151c-.928-.033-1.841-.074-2.784-.114v-.368c.041-.637.077-1.278.118-1.915v-.446z" fill="#404040"/><path data-name="Path 3014" d="M136.967 143.513v.162q-.022 1.245-.077 2.486v.11q-1.436-.044-2.872-.1v-.151a19.539 19.539 0 0 0 .133-2.272v-.317z" fill="#404040"/><path data-name="Path 3015" d="M140.392 143.604v.272a21.5 21.5 0 0 1-.092 2.235v.243q-1.694-.041-3.392-.1v-.11q.055-1.241.077-2.486v-.146z" fill="#404040"/><path data-name="Path 3016" d="M140.281 146.112a21.524 21.524 0 0 0 .111-2.232v-.273l3.263.088v2.464a.074.074 0 0 1-.052.063v.188l-3.315-.062z" fill="#404040"/><path data-name="Path 3017" d="M146.67 143.77q-.077 1.267-.147 2.53v.158c-.98 0-1.959-.022-2.946-.041v-.188a.074.074 0 0 0 .052-.063v-2.462z" fill="#404040"/><path data-name="Path 3018" d="M149.439 143.837q.037 1.1.018 2.169a1.105 1.105 0 0 1-.081.471h-2.853v-.162q.07-1.267.147-2.53c.917.007 1.842.033 2.769.052z" fill="#404040"/><path data-name="Path 3019" d="M152.543 146.477h-3.167a1.1 1.1 0 0 0 .081-.471q.022-1.083-.018-2.169l2.979.07c.058.825.099 1.679.125 2.57z" fill="#404040"/><path data-name="Path 3020" d="M152.418 143.907a24.129 24.129 0 0 0-4.647-13.161 38.452 38.452 0 0 0-5.03-5.524c-1.867-1.812-11.438-8.51-14.122-10.351s-4.916-3.554-6.013-6.628h-.026q0-1.359.044-2.718c.018-.788.029-1.572.04-2.36a9.748 9.748 0 0 0 1.687 4.7 14.848 14.848 0 0 0 3.848 3.616c1.425 1 2.677 2.125 4.1 3.137 3.263 2.316 6.6 4.526 9.744 7q.788.619 1.561 1.263a36.94 36.94 0 0 1 9.088 10.558c2.537 4.7 3.528 10.491 1.9 15.581l-2.011-.063c0-.858-.018-1.679-.041-2.471a51.18 51.18 0 0 0-.122-2.579z" fill="#404040"/><path data-name="Path 3021" d="M59.009 122.817c.49-.412.991-.814 1.491-1.208 3.148-2.471 6.485-4.68 9.744-7 1.425-1.013 2.677-2.136 4.106-3.137a14.907 14.907 0 0 0 3.848-3.627 9.78 9.78 0 0 0 1.657-4.445c0 .7.022 1.407.037 2.11.022.91.037 1.815.044 2.725-1.1 3.067-3.314 4.787-6.006 6.628s-12.259 8.54-14.126 10.351a40.559 40.559 0 0 0-5.03 5.524 24.013 24.013 0 0 0-4.647 13.161c-.063.821-.1 1.668-.129 2.556 0 .8-.029 1.62-.037 2.486l-2.025.066c-1.628-5.086-.622-10.885 1.915-15.584a37.456 37.456 0 0 1 9.158-10.606z" fill="#404040"/><path data-name="Path 3022" d="M104.281 33.451a31.612 31.612 0 0 1 12.152 13.625 38.144 38.144 0 0 1 1.908 5.244l-.092.026c-.435-1.23-3.432-4.662-5.218-6.363a19.035 19.035 0 0 0-5.045-3.237 17.377 17.377 0 0 0-6.128-1.628 15.555 15.555 0 0 0-5.966 1.1c-5.019 1.841-9.6 5.472-11.563 10.451 0 0-.446.847-.519 1.024a39.573 39.573 0 0 1 2.283-6.628 34.572 34.572 0 0 1 6.2-9.295 23.413 23.413 0 0 1 4.272-3.856 7.906 7.906 0 0 1 5.476-1.348 5.892 5.892 0 0 1 2.24.885z" fill="#252a25"/><path data-name="Path 3023" d="M53.18 146.458h2.861l2.946-.037 3.314-.066q1.694-.037 3.4-.1 1.436-.044 2.869-.1c.932-.033 1.841-.074 2.784-.114q1.521-.066 3.031-.147c.873-.044 1.745-.092 2.611-.144q1.447-.081 2.876-.177c0 .549.022 1.1.04 1.646 0 .258 0 .516.026.773h-.162c-7.568.295-14.273.493-20.824.685l-8.956.269c0-.865.018-1.69.037-2.486 1.029-.002 2.085-.002 3.147-.002z" fill="silver"/><path data-name="Path 3024" d="M149.376 146.477h3.167c.022.792.033 1.613.041 2.471l-8.856-.28c-6.584-.2-13.323-.394-20.924-.689h-.191a7.684 7.684 0 0 1 .026-.77c0-.549.033-1.1.041-1.65.965.063 1.933.125 2.906.18.865.052 1.738.1 2.611.144 1.005.055 2.018.1 3.031.151.928.04 1.841.081 2.784.114s1.915.074 2.872.1q1.7.055 3.392.1l3.314.066c.983.018 1.963.029 2.946.04s1.894.023 2.84.023z" fill="silver"/><path data-name="Path 3025" d="M149.439 143.836c-.928-.018-1.841-.044-2.769-.066l-3.027-.077-3.263-.088-3.414-.092-2.806-.085-2.788-.088-2.946-.1-2.813-.1-2.824-.1h-.07c.18-11.615-.3-23.222-.155-34.788h.026c1.1 3.071 3.314 4.787 6.014 6.628s12.255 8.54 14.122 10.351a40.087 40.087 0 0 1 5.03 5.524 24.013 24.013 0 0 1 4.647 13.161z" fill="silver"/><path data-name="Path 3026" d="M83.807 53.734a55.964 55.964 0 0 0-.77 3.491h-.077c-.048-5.2-.107-10.451-.6-15.636A79.2 79.2 0 0 1 96.854 5.132a15.339 15.339 0 0 1 4.758-4.739c3.616 2.578 6.139 6.315 8.289 10.1a83.993 83.993 0 0 1 10.333 31.191h.029c-.482 5.155-.538 10.374-.586 15.54l-.184.037c-.32-1.664-.7-3.314-1.16-4.942a38.15 38.15 0 0 0-1.908-5.244 31.755 31.755 0 0 0-12.148-13.632 5.892 5.892 0 0 0-2.239-.887 7.892 7.892 0 0 0-5.476 1.348 23.671 23.671 0 0 0-4.272 3.856 34.571 34.571 0 0 0-6.2 9.295 39.569 39.569 0 0 0-2.283 6.628.07.07 0 0 0 0 .048z" fill="#5fba66"/><path data-name="Path 3027" d="M55.889 143.771c-.921.022-1.841.048-2.773.066l-2.979.07a24.13 24.13 0 0 1 4.647-13.161 38.884 38.884 0 0 1 5.03-5.524c1.867-1.812 11.438-8.51 14.126-10.351s4.912-3.55 6.006-6.628c.147 11.563-.335 23.17-.155 34.781h-.041l-2.824.1-2.81.1-2.946.1-2.791.088-2.806.085-3.414.1-3.263.088z" fill="silver"/></g><g data-name="Layer 4"><path data-name="Path 3028" d="M100.683 65.496c.052 1.1.048 2.232 0 3.344A15.339 15.339 0 0 1 97 68.822a57.747 57.747 0 0 1 0-3.277z" fill="#252a25"/><path data-name="Path 3029" d="M105.606 65.522q.081 1.628.158 3.252l-3.682.052a42.675 42.675 0 0 1-.055-3.292q1.723-.07 3.454-.11c.041 0 .088 0 .111.033a.088.088 0 0 1 .014.065z" fill="#252a25"/><path data-name="Path 3030" d="M100.271 55.049q.066 1.569.066 3.137c-5.848.519-9.608 2.813-11.677 7h-3.182l-.206-.048a12.312 12.312 0 0 1 5.686-7.568 18.758 18.758 0 0 1 9.313-2.521z" fill="#1ea1f1"/><path data-name="Path 3031" d="M117.265 65.198h-3.388c-2.07-4.191-5.829-6.485-11.677-7q0-1.569.063-3.137a18.866 18.866 0 0 1 9.317 2.534 12.256 12.256 0 0 1 5.685 7.603z" fill="#1ea1f1"/><path data-name="Path 3032" d="M81.25 153.294a25.776 25.776 0 0 0-1.145-.063 403.403 403.403 0 0 1-.121-3.108h3.506v.689c0 .545-.018 1.561-.026 2.445a9.713 9.713 0 0 1-2.213.037z" fill="#5fba66"/><path data-name="Path 3033" d="m99.515 149.711-.11 3.572h-.1a28.4 28.4 0 0 1-4.441-.059c-.037-1.149 0-2.243.018-3.34h.081z" fill="#5fba66"/><path data-name="Path 3034" d="M122.561 149.486q-.066 1.959-.147 3.922h-1.1a19.728 19.728 0 0 1-2.419-.247h-.055c.044-.965.088-2.21.129-3.532q1.795.008 3.592-.143z" fill="#5fba66"/><path data-name="Path 3035" d="M107.935 153.298h-.144a34.622 34.622 0 0 0-4.283 0c-.1-1.2-.188-2.4-.269-3.609h.059a30.8 30.8 0 0 0 4.4.081h.188c.007 1.16.026 2.331.049 3.528z" fill="#5fba66"/><path data-name="Path 3036" d="M79.319 162.843c-6.3-.173-12.889-.261-19.149 0l-1.4.063c0-.825.018-1.676.029-2.537 7.612-.2 14.9-.14 22.5.192-.048.81-.118 1.6-.206 2.346z" fill="silver"/><path data-name="Path 3037" d="m123.318 162.846-1.757.048a42.852 42.852 0 0 1-.221-2.342c7.612-.335 14.73-.4 22.367-.2h.144c0 .737.018 1.473.026 2.232l-.169.291-1.23-.052c-6.326-.257-12.822-.161-19.16.023z" fill="silver"/><path data-name="Path 3038" d="M80.105 153.231a461.049 461.049 0 0 1-.192-5.24h-.164l-.788.03c0 2.773-.026 5.549-.026 8.322 0 1.322-.041 2.718 0 4.11l2.349.092a58.7 58.7 0 0 0-.033-7.255 36.54 36.54 0 0 0-1.146-.059z" fill="#e9e9e9"/><path data-name="Path 3039" d="M53.175 146.464h-3.163c.029-.888.066-1.734.129-2.556l2.979-.07q-.037 1.1-.018 2.169a1.134 1.134 0 0 0 .074.457z" fill="#404040"/><path data-name="Path 3040" d="M56.036 146.301v.158h-2.861a1.134 1.134 0 0 1-.077-.46q-.022-1.083.018-2.169c.928-.018 1.841-.044 2.773-.066q.072 1.274.147 2.537z" fill="#404040"/><path data-name="Path 3041" d="m58.972 146.415-2.946.037v-.148q-.077-1.267-.147-2.53l3.023-.077v2.464a.074.074 0 0 0 .052.063z" fill="#404040"/><path data-name="Path 3042" d="M62.179 143.882a21.523 21.523 0 0 0 .092 2.235v.236l-3.314.066v-.18a.074.074 0 0 1-.052-.063v-2.464l3.263-.088z" fill="#404040"/><path data-name="Path 3043" d="M65.593 143.664q.022 1.245.081 2.486v.1q-1.7.055-3.4.1v-.236a21.518 21.518 0 0 1-.092-2.235v-.272l3.414-.1z" fill="#404040"/><path data-name="Path 3044" d="M68.539 146.006v.147q-1.432.055-2.869.1v-.1q-.059-1.241-.081-2.486v-.151l2.806-.085v.317a19.537 19.537 0 0 0 .144 2.261z" fill="#404040"/><path data-name="Path 3045" d="M71.315 145.686v.368c-.924.041-1.841.081-2.784.114v-.147a19.539 19.539 0 0 1-.133-2.272v-.317l2.791-.088v.446c.048.614.089 1.259.126 1.896z" fill="#404040"/><path data-name="Path 3046" d="m74.342 145.513.018.368q-1.514.085-3.031.147v-.368l-.114-1.915v-.446l2.946-.1v.191a10.284 10.284 0 0 0 .181 2.123z" fill="#404040"/><path data-name="Path 3047" d="M76.931 143.237a20.326 20.326 0 0 0 .026 2.272v.239c-.865.052-1.738.1-2.611.144l-.018-.368a10.286 10.286 0 0 1-.228-2.1v-.192l2.81-.1z" fill="#404040"/><path data-name="Path 3048" d="M79.792 143.02c0 .851.029 1.7.055 2.552q-1.432.1-2.876.177v-.239a20.326 20.326 0 0 1-.026-2.272v-.114l2.824-.1z" fill="#404040"/><path data-name="Path 3049" d="M125.624 143.237a19.462 19.462 0 0 1-.026 2.272v.239c-.972-.055-1.941-.118-2.905-.18.026-.851.04-1.7.055-2.548h.07l2.824.1z" fill="#404040"/><path data-name="Path 3050" d="m125.628 143.123 2.813.1v.191a10.286 10.286 0 0 1-.228 2.1l-.018.368c-.873-.044-1.746-.092-2.611-.144v-.239a19.482 19.482 0 0 0 .026-2.272z" fill="#404040"/><path data-name="Path 3051" d="M131.372 143.325v.445c-.04.637-.077 1.278-.118 1.915v.368c-1.013-.048-2.025-.1-3.031-.151l.018-.368a10.286 10.286 0 0 0 .228-2.1v-.191z" fill="#404040"/><path data-name="Path 3052" d="M134.161 143.414v.317a19.527 19.527 0 0 1-.133 2.272v.151c-.928-.033-1.841-.074-2.784-.114v-.368c.041-.637.077-1.278.118-1.915v-.446z" fill="#404040"/><path data-name="Path 3053" d="M136.967 143.513v.162q-.022 1.245-.077 2.486v.11q-1.436-.044-2.872-.1v-.151a19.539 19.539 0 0 0 .133-2.272v-.317z" fill="#404040"/><path data-name="Path 3054" d="M140.391 143.605v.272a21.5 21.5 0 0 1-.092 2.235v.243q-1.694-.041-3.392-.1v-.11q.055-1.241.077-2.486v-.146z" fill="#404040"/><path data-name="Path 3055" d="M140.28 146.113a21.524 21.524 0 0 0 .111-2.232v-.273l3.263.088v2.464a.074.074 0 0 1-.052.063v.188l-3.315-.062z" fill="#404040"/><path data-name="Path 3056" d="M146.669 143.771q-.077 1.267-.147 2.53v.158c-.98 0-1.959-.022-2.946-.041v-.188a.074.074 0 0 0 .052-.063v-2.462z" fill="#404040"/><path data-name="Path 3057" d="M149.438 143.838q.037 1.1.018 2.169a1.105 1.105 0 0 1-.081.471h-2.853v-.162q.07-1.267.147-2.53c.917.007 1.842.033 2.769.052z" fill="#404040"/><path data-name="Path 3058" d="M152.543 146.477h-3.167a1.1 1.1 0 0 0 .081-.471q.022-1.083-.018-2.169l2.979.07c.058.825.099 1.679.125 2.57z" fill="#404040"/><path data-name="Path 3059" d="M152.418 143.907a24.129 24.129 0 0 0-4.647-13.161 38.452 38.452 0 0 0-5.03-5.524c-1.867-1.812-11.438-8.51-14.122-10.351s-4.916-3.554-6.013-6.628h-.026q0-1.359.044-2.718c.018-.788.029-1.572.04-2.36a9.748 9.748 0 0 0 1.687 4.7 14.848 14.848 0 0 0 3.848 3.616c1.425 1 2.677 2.125 4.1 3.137 3.263 2.316 6.6 4.526 9.744 7q.788.619 1.561 1.263a36.94 36.94 0 0 1 9.088 10.558c2.537 4.7 3.528 10.491 1.9 15.581l-2.011-.063c0-.858-.018-1.679-.041-2.471a51.18 51.18 0 0 0-.122-2.579z" fill="#404040"/><path data-name="Path 3060" d="M59.009 122.818c.49-.412.991-.814 1.491-1.208 3.148-2.471 6.485-4.68 9.744-7 1.425-1.013 2.677-2.136 4.106-3.137a14.907 14.907 0 0 0 3.848-3.627 9.78 9.78 0 0 0 1.657-4.445c0 .7.022 1.407.037 2.11.022.91.037 1.815.044 2.725-1.1 3.067-3.314 4.787-6.006 6.628s-12.259 8.54-14.126 10.351a40.559 40.559 0 0 0-5.03 5.524 24.013 24.013 0 0 0-4.647 13.161c-.063.821-.1 1.668-.129 2.556 0 .8-.029 1.62-.037 2.486l-2.025.066c-1.628-5.086-.622-10.885 1.915-15.584a37.456 37.456 0 0 1 9.158-10.606z" fill="#404040"/><path data-name="Path 3061" d="M53.18 146.459h2.861l2.946-.037 3.314-.066q1.694-.037 3.4-.1 1.436-.044 2.869-.1c.932-.033 1.841-.074 2.784-.114q1.521-.066 3.031-.147c.873-.044 1.745-.092 2.611-.144q1.447-.081 2.876-.177c0 .549.022 1.1.04 1.646 0 .258 0 .516.026.773h-.162c-7.568.295-14.273.493-20.824.685l-8.956.269c0-.865.018-1.69.037-2.486 1.029-.002 2.085-.002 3.147-.002z" fill="silver"/><path data-name="Path 3062" d="M149.376 146.478h3.167c.022.792.033 1.613.041 2.471l-8.856-.28c-6.584-.2-13.323-.394-20.924-.689h-.191a7.684 7.684 0 0 1 .026-.77c0-.549.033-1.1.041-1.65.965.063 1.933.125 2.906.18.865.052 1.738.1 2.611.144 1.005.055 2.018.1 3.031.151.928.04 1.841.081 2.784.114s1.915.074 2.872.1q1.7.055 3.392.1l3.314.066c.983.018 1.963.029 2.946.04s1.894.023 2.84.023z" fill="silver"/><path data-name="Path 3063" d="M70.994 199.654c2.36-1.388 5.642 0 6.912 2.209a6.6 6.6 0 0 1 .77 3.76c-.085 1.3-.63 2.372-.394 3.682a1.43 1.43 0 0 0 2.4.615v.022a2.988 2.988 0 0 0 .611-.736c1.3-1.2 4.051-1.263 5.476-.685a2.913 2.913 0 0 1 1.8 1.753c.247.77 0 1.539.243 2.335a1.436 1.436 0 0 0 .737.884 6.738 6.738 0 0 0-1.683 4.787 5.869 5.869 0 0 0 .876 2.611 7.492 7.492 0 0 0-1.753.368c-2.29.777-4.121 2.891-5.575 4.739a8.131 8.131 0 0 0-1.841 6.765c.438 2.106 1.889 4.787 3.929 5.7a1.921 1.921 0 0 0 2.6-2.6c-.652-1.329-1.93-2.21-2.4-3.682-.563-1.705.368-3.185 1.289-4.559a12.039 12.039 0 0 1 3.417-3.793A7.734 7.734 0 0 1 90.93 223a6.2 6.2 0 0 0 1.267.563c2.611.836 3.48-2.994 1.1-3.992-3.366-1.414.177-5.226 1.687-6.518a11.354 11.354 0 0 1 3.97-2.243 12.406 12.406 0 0 1 2.858-.876c.1.04 1.418.166 1.521.2 1.727.53.67-.324 0-2.066-.188-.482.11-1.153.037-1.635h.022c.541-1.149.972-1.944 2.029-2.232a3.038 3.038 0 0 0-.593.287l-2.545-1.366a1.669 1.669 0 0 1-.736-.6 1.764 1.764 0 0 1-.147-.854 21.726 21.726 0 0 0-.11-2.3c-.309-.884-.538-1.841-.858-2.622a11.189 11.189 0 0 0-.946-1.86 6.37 6.37 0 0 0-3.977-2.055 4.341 4.341 0 0 0-3.911 1.44 4.386 4.386 0 0 0-.821 2.681c0 .969.409 1.8.118 2.777a.423.423 0 0 1-.18.276.391.391 0 0 1-.243 0 3.052 3.052 0 0 1-1.628-.994 12.232 12.232 0 0 1-3.436-6.286 7.539 7.539 0 0 1-.077-1.164 15.606 15.606 0 0 1-.368-4.9c.088-1.97.368-4.051-.331-5.932a9.117 9.117 0 0 0-.817-1.521 5.833 5.833 0 0 0-3.182-2.088l-1.889-.052a.865.865 0 0 0 .085 1.473c2.578 1.58 2.817 3.484 2.394 6.367-.368 2.578-.946 5.222-.368 7.814a16.564 16.564 0 0 0 3.682 6.584c1.473 1.841 3.369 3.822 5.708 4.537a3.652 3.652 0 0 0 4.787-2.909 5.7 5.7 0 0 0-.317-3.056c-.225-.663-1.127-2.125.258-1.65 1.97.685 2.3 4.927 3.193 6.577a7.472 7.472 0 0 0 2.047 2.43 3.711 3.711 0 0 0-.151.471 3.937 3.937 0 0 0 .114 2.18 9.668 9.668 0 0 0-2.894.236 12.785 12.785 0 0 0-5.189 2.8 6.112 6.112 0 0 0-3.285-4.5 7.141 7.141 0 0 0-3.929-.5 12.6 12.6 0 0 0-2.917 1.016 12.151 12.151 0 0 0-.081-2.644 8.838 8.838 0 0 0-2.5-5.225 7.365 7.365 0 0 0-4.489-1.9 5.845 5.845 0 0 0-4.518 1.69c-.462.37.127 1.095.62.795z" fill="#e9e9e9"/><path data-name="Path 3064" d="M203.674 244.877a10.4 10.4 0 0 0-3.314-11.338 6.263 6.263 0 0 0-2.493-1.325 3.373 3.373 0 0 0-2.725.46 15.343 15.343 0 0 0-1.475 1.54 1.813 1.813 0 0 1-1.944.519 1.513 1.513 0 0 1-.736-1.432 3 3 0 0 1 .35-1.2c2.287-2.07 2.946-5.932 1.005-8.319s-6.444-2.147-7.693.67a5.913 5.913 0 0 0-1.127-3.266 4.687 4.687 0 0 0-.7-.512 1.842 1.842 0 0 0-.519-.144c-1.985-.254-3.108 2.548-5.082 2.872a2.922 2.922 0 0 1-3.054-2.488 5.847 5.847 0 0 1 1.1-4.113c.792-1.223 1.793-2.3 2.534-3.554a14.02 14.02 0 0 0 1.58-4.559 7.53 7.53 0 0 0 0-3.554 5.732 5.732 0 0 0-3.778-3.539 12.035 12.035 0 0 0-5.329-.265c-1.322.173-2.817.578-3.388 1.786-.946 2 1.374 4.607.14 6.444-.736 1.1-2.3 1.175-3.624 1.134a1.1 1.1 0 0 1-.648-.155.991.991 0 0 1-.225-.98 5.847 5.847 0 0 0-.217-.5 5.4 5.4 0 0 0 .5-.913 11.8 11.8 0 0 0 .236-3.948 4.943 4.943 0 0 0-2.92-4.051c-1.263-.438-2.946-.306-3.59-1.473-.538-.972.066-2.147.324-3.226a4.979 4.979 0 0 0-7.052-5.608 19.606 19.606 0 0 0-4.043-12.986h-2.209a.482.482 0 0 0 .133.368 9.643 9.643 0 0 1 1.4 3.461 40.4 40.4 0 0 1 1.013 3.981 26.278 26.278 0 0 1 .5 6.628 6.293 6.293 0 0 0-4.946.262.549.549 0 0 0 .272 1.016 6.787 6.787 0 0 1 5.016 1.58c1.41 1.362 1.256 2.913 1.922 4.566.32.8 1.687 1.311 2.128.28a5.309 5.309 0 0 0-.924-5.064 4.637 4.637 0 0 1 2.294-1.473c1.473-.188 1.049 1.1.759 2.04-.538 1.705-.946 3.568-.1 5.255.968 1.915 2.578 1.672 4.242 2.534 2.29 1.189 1.992 3.351 1.37 5.428a1.7 1.7 0 0 0 1.226 2.279 8.632 8.632 0 0 1-.261 1.27 4.909 4.909 0 0 1-.854 1.631 10.084 10.084 0 0 0-8.414 1.075c-.784.457-.221 1.5.578 1.374 2.578-.394 5.649-.2 7.752 1.473a5.156 5.156 0 0 1 1.79 2.725c.284 1.1-.107 2.047.527 3.067a1.479 1.479 0 0 0 2 .527c2.714-1.841.9-5.921-1.061-8.1a7 7 0 0 0 .935-2.8 4.165 4.165 0 0 0 4.029-.644c1.948-1.58.917-3.764 1.558-5.781.67-2.106 4.526-2.46 6.094-1.271 2.162 1.646 1.775 4.787.77 6.952-1.569 3.414-6.382 8.341-3.093 12.152 1.3 1.517 4.051 2.732 6.013 2.21a6.775 6.775 0 0 0 2.191-1.374c.508-.368.269-.368.685-.177.317.14.766 1.083.994 1.374a1.843 1.843 0 0 1 .026.339c0 1.55-1.049 2.486-1.635 3.811-.516 1.171.35 2.835 1.815 2.357 2.685-.873 3.852-4.566 2.9-7.232 1.421-.825 4.342-.114 5.214.67 1.595 1.429.549 2.946-.622 4.135a8.821 8.821 0 0 0-2.578 3.7 3.079 3.079 0 0 0 2.213 3.955c3.557.99 6.628-4.261 9.748-.567 2.066 2.449 1.388 5.244.622 8z" fill="#e9e9e9"/><path data-name="Path 3065" d="M124.066 201.203a7.339 7.339 0 0 0-3.439 2.478 7.455 7.455 0 0 0-1.171 2.169c-.118.368-.14 1.013-.272 1.506a8.762 8.762 0 0 0-2.456-.125 7.551 7.551 0 0 0-3.473 1.473 10.139 10.139 0 0 0-3.682 6.831c-.258 1.992 3.09 2.427 3.509.475.5-2.36 1.241-5.071 3.929-5.745 1.757-.438 3.542 1.064 4.935-.714 1.208-1.536.648-3.565 2.383-4.935 2.121-1.679 4.467-.652 6.732-.059a.25.25 0 0 0 .3-.306c-.501-3.107-4.775-3.88-7.295-3.048z" fill="#e9e9e9"/><path data-name="Path 3066" d="M60.378 201.148a6.091 6.091 0 0 0-5.866 1.418c-1.031 1.009-1 2.21-1.65 3.358s-2.246.56-3.454.622c-5.288.276-10.252 6.013-7.858 11.272.736 1.642 3.167.711 3.211-.869.059-2.254-.055-4.393 1.922-5.936s3.764-.825 5.988-1.013a3.9 3.9 0 0 0 3.587-3.141c.247-1.016.14-2.062.736-2.979a3.326 3.326 0 0 1 3.222-1.473c.733.073.847-1.079.162-1.259z" fill="#e9e9e9"/><path data-name="Path 3067" d="M148.938 203.35c1.1 1.8.891 3.977.777 6a1.419 1.419 0 0 0 2.629.711c1.779-2.777.924-6.393-1.1-8.838a8.811 8.811 0 0 0-8.282-2.887c-1.1.173-.814 1.922.261 1.93a6.672 6.672 0 0 1 5.719 3.09z" fill="#e9e9e9"/><path data-name="Path 3068" d="M162.033 228.383a8.469 8.469 0 0 0-3.454-1.138 11.465 11.465 0 0 0-2.537 0 10.491 10.491 0 0 1-2.239.368c-.431-.225-1.366-2.014-1.841-2.534a17.543 17.543 0 0 0-3.233-2.784c-.637-.431-1.432.578-.829 1.079a13.422 13.422 0 0 1 3.763 4.835c.762 1.69 1.432 2.025 3.281 1.79 2.209-.28 4.813-.368 6.5 1.34 1.841 1.841.854 3.826-1.049 5.038-.921.582-.667 2.43.615 2.265 5.574-.725 5.026-7.777 1.023-10.259z" fill="#e9e9e9"/><path data-name="Path 3069" d="M68.417 222.134c-.736-.869-2.287.291-1.606 1.237.836 1.164 1.989 2.125 2.736 3.34 1.127 1.841-.243 3.635-.655 5.487a1.031 1.031 0 0 0 1.709.994 5.924 5.924 0 0 0 1.812-6.356c-.726-1.988-2.663-3.162-3.996-4.702z" fill="#e9e9e9"/><path data-name="Path 3070" d="M142.045 121.61q.788.619 1.561 1.263c.239 0-.206-46.723-.21-46.966-.265-10.425-.409-20.854-.644-28.2 0-.368-.022-.7-.033-1.042-.07-2.018-.133-3.642-.188-4.7a.394.394 0 0 0 0-.066 74 74 0 0 0-.924-7.531 54.222 54.222 0 0 0-2.062-7.711 42.965 42.965 0 0 0-1.683-4.11 10.3 10.3 0 0 0-.98-1.219 8.7 8.7 0 0 0-4.327-2.489 75 75 0 0 1 3.432 8.5 73.612 73.612 0 0 1 2.515 12.7c1.064 9.372 1.1 18.895 1.182 28.315.125 17.083-.14 34.173-.313 51.256a69.597 69.597 0 0 1 2.674 2z" fill="#e9e9e9"/><path data-name="Path 3071" d="M79.213 26.668a45.302 45.302 0 0 0-1.37-3.528 7.974 7.974 0 0 0-3.948-4.051 5.841 5.841 0 0 0-1.547-.368c.471.987.961 1.966 1.385 2.986a51.881 51.881 0 0 1 2.014 5.936 82.712 82.712 0 0 1 2.4 13 246.09 246.09 0 0 1 1.473 27.011c.026 12.664-.14 25.332-.3 38a9.665 9.665 0 0 0 .53-2.25 263.575 263.575 0 0 1 2.283-40.721c.258-1.823.538-3.646.887-5.457h-.077c-.04-4.474-.092-8.989-.416-13.471-.092-.829-.184-1.657-.287-2.489a71.032 71.032 0 0 0-3.027-14.598z" fill="#e9e9e9"/><path data-name="Path 3072" d="M122.579 108.229q0-1.359.044-2.718c.018-.788.029-1.572.04-2.36a263.183 263.183 0 0 0-2.287-40.47 109.167 109.167 0 0 0-.88-5.435c-.32-1.664-.7-3.314-1.16-4.942l-.092.026c-.435-1.23-3.432-4.662-5.218-6.363a19.034 19.034 0 0 0-5.041-3.222 22.008 22.008 0 0 0-3.815-1.307.858.858 0 0 0 .442.534 23.75 23.75 0 0 1 12.6 16.067c1.871 7.8 1.539 16.022 1.646 23.98q.368 27.571.895 55.127c.081 4.154.162 8.3.265 12.458.847 0 1.694-.048 2.541-.118.018-.5.037-1 .052-1.5a7.684 7.684 0 0 1 .026-.77c0-.549.033-1.1.04-1.65.026-.851.041-1.7.055-2.548.182-11.612-.302-23.22-.153-34.789z" fill="#e9e9e9"/><path data-name="Path 3073" d="M139.169 148.547c0 2.843-.055 5.69-.029 8.536v3.185c1.385.018 2.78.044 4.194.081.029-.851.044-1.7.074-2.53.1-2.7.07-5.4.1-8.1v-1.042z" fill="#e9e9e9"/><path data-name="Path 3074" d="M116.727 128.729a4.18 4.18 0 0 0-2.512-1.075.836.836 0 0 0 .077.585c2.114 4.051 2.184 9.1 2.092 13.574-.092 4.246-.56 8.514-.512 12.767h2.894c0-.368.041-.836.063-1.414.044-.965.088-2.21.129-3.532.033-.968.059-2 .081-3.012.033-1.617.048-3.215.033-4.548-.022-1.871.052-3.9-.055-5.892a32.42 32.42 0 0 0-.737-3.182 20.147 20.147 0 0 0-1.553-4.271z" fill="#e9e9e9"/><path data-name="Path 3075" d="M95.034 145.354c.037-3.314-.037-6.647-.317-9.943a13.624 13.624 0 0 0-.788-4.051 5.255 5.255 0 0 0-2.7-2.946 4.115 4.115 0 0 0-1.421-.306.6.6 0 0 0 .088.976c1.6 1.061 1.583 4.316 1.665 5.947a47.929 47.929 0 0 1-.328 7.365c-.261 2.482-.611 4.971-.711 7.464a26.637 26.637 0 0 0 0 4.6c1.289 0 2.519.029 3.439.074.272 0 .519.029.736.044.029-.781-.033-1.58 0-2.346.037-1.473.158-2.946.236-4.419l.11-1.974a4.269 4.269 0 0 1-.009-.485z" fill="#e9e9e9"/><path data-name="Path 3076" d="M103.272 153.324v-.655c-.022-1.182-.04-2.364-.063-3.546q-.784-11.964-.56-23.962a9.533 9.533 0 0 0-.736-4.736.342.342 0 0 0-.309.368 74.267 74.267 0 0 1-.118 9.232c-.114 3.211-.066 6.437-.173 9.652-.1 3.1-.2 6.2-.11 9.309.044 1.55.136 3.1.317 4.644.158 1.337.2 2.71 1.259 3.646a1.36 1.36 0 0 0 .339.214.989.989 0 0 0 .092-.147 5.312 5.312 0 0 0 .1-2.173z" fill="#e9e9e9"/><path data-name="Path 3077" d="M93.189 154.513a.552.552 0 0 0-.059.265 16.322 16.322 0 0 1-1.1 4.824c-.272.869-.63 1.782-.821 2.7h1.977a134.58 134.58 0 0 1 1.432-5.384 2.62 2.62 0 0 1 .059-.2 21.717 21.717 0 0 0-.714-2.154z" fill="#878787"/><path data-name="Path 3078" d="m118.097 156.693.862-.074c-.2-.711-.42-1.385-.667-2.029l-.055-.022h-1.024a.549.549 0 0 0-.14.368 29.746 29.746 0 0 1-1.215 5.082c-.166.7-.368 1.473-.541 2.3h2.18q.692-2.839 1.473-5.564z" fill="#878787"/><path data-name="Path 3079" d="M85.013 155.106a2.762 2.762 0 0 0-.464 2.578 24.457 24.457 0 0 0 1.061 3.34c.129.3.538.07.493-.206-.313-1.9-1.414-3.66-.862-5.608a.125.125 0 0 0-.228-.1z" fill="#e9e9e9"/><path data-name="Path 3080" d="M109.712 155.22c-1.425 1.815-.254 4.294.272 6.26.074.284.549.236.527-.074-.162-2.092-1.23-3.856-.479-5.984.059-.177-.2-.339-.32-.188z" fill="#e9e9e9"/><path data-name="Path 3081" d="M146.935 176.893a388.152 388.152 0 0 1-3.056-9.295q-.707-2.235-1.41-4.482v-.291q-2.187-.088-4.4-.125a40.572 40.572 0 0 0 .136 5.093c.276 2 .63 3.992 1.064 5.958a31.562 31.562 0 0 0 .77 3.093c1.9 0 3.811 0 5.715.033z" fill="#1e231e"/><path data-name="Path 3082" d="M123.798 177.064c.935-2.21 1.421-4.651 2.151-6.93a26.837 26.837 0 0 0 1.631-7.391h-.736a22.558 22.558 0 0 0-3.1 6.4c-.854 2.511-1.9 5.281-1.941 7.958z" fill="#5d665d"/><path data-name="Path 3083" d="M83.835 177.212q-1.919-7.28-4.515-14.362-2.147-.063-4.334-.1a11.954 11.954 0 0 0 .306 3.031 34.219 34.219 0 0 0 .611 5.384q.309 2.114.67 4.227a15.322 15.322 0 0 0 .324 1.628q2.386.055 4.787.129z" fill="#1e231e"/><path data-name="Path 3084" d="M63.457 162.732a56.929 56.929 0 0 0-3.148 7.166 42.9 42.9 0 0 0-2.209 6.971h1a1.96 1.96 0 0 1 .416 0h1.333c.667-1.955 1.057-4.051 1.646-5.988.829-2.718 1.572-5.435 2.32-8.16z" fill="#5d665d"/><path data-name="Path 3085" d="M122.604 108.231h-.026c-.147 11.567.335 23.174.155 34.788h.07l2.824.1 2.453.088a120.826 120.826 0 0 0-.678-15.816c-.431-5.016-1.038-9.983-1.889-14.914a10.366 10.366 0 0 1-2.909-4.25z" fill="#878787"/><path data-name="Path 3086" d="m75.948 143.145.994-.037 2.824-.1h.041c-.18-11.611.3-23.218.155-34.781a9.659 9.659 0 0 1-.932 1.919c-.368 3.314-.921 6.581-1.237 9.891-.409 4.25-.806 8.5-1.1 12.76-.288 3.457-.583 6.912-.745 10.348z" fill="#878787"/><path data-name="Path 3087" d="M104.282 33.525a5.892 5.892 0 0 0-2.239-.887 5.639 5.639 0 0 0-.7-.077 1.955 1.955 0 0 0 .2.28 108.909 108.909 0 0 1 8.979 11.319 15.836 15.836 0 0 1 2.5 1.878c1.786 1.7 4.787 5.133 5.218 6.363l.092-.026a38.152 38.152 0 0 0-1.908-5.244 31.7 31.7 0 0 0-12.142-13.606z" fill="#1f211d"/><path data-name="Path 3088" d="M95.881 36.319a35.841 35.841 0 0 0-3.859 3.495 31.545 31.545 0 0 0-2.979 4.316 47.019 47.019 0 0 0-2.548 4.861 19.753 19.753 0 0 1 5.892-5.034 131.286 131.286 0 0 1 1.631-3c.8-1.436 1.359-2.964 2.268-4.338.143-.244-.203-.48-.405-.3z" fill="#5d665d"/><path data-name="Path 3089" d="M97.612 7.844c-1.042 2-2.4 3.8-3.473 5.781-1.1 2.066-2.187 4.18-3.141 6.327a135.981 135.981 0 0 0-4.9 12.7 104.4 104.4 0 0 0-3.459 12.558c.239 4 .284 8.013.32 12h.077c.221-1.171.475-2.338.77-3.491a.07.07 0 0 1 0-.026 39.568 39.568 0 0 1 2.283-6.628c.059-.129.125-.258.184-.387a1.589 1.589 0 0 0 .074-.368 129.853 129.853 0 0 1 3.392-12.984 210.63 210.63 0 0 1 4.146-12.134c.737-2 1.473-4 2.239-5.98a71 71 0 0 1 2.578-6.709c.376-.744-.718-1.385-1.09-.659z" fill="#d4f19c"/><path data-name="Path 3090" d="M109.904 10.476c-2.151-3.782-4.673-7.5-8.289-10.1-.111.063-.21.133-.317.2l.085.055a1.019 1.019 0 0 0 .092.493 198.437 198.437 0 0 1 9.942 26.945 121.069 121.069 0 0 1 2.714 11.968l-.033-.048c-2.662-3.285-6.606-7.707-11.092-8.017-4.68-.324-8.9 2.8-11.416 6.5a3.46 3.46 0 0 0-.144.221c.276-.317.552-.63.84-.932a23.415 23.415 0 0 1 4.272-3.856 7.906 7.906 0 0 1 5.476-1.348 5.892 5.892 0 0 1 2.239.887 31.613 31.613 0 0 1 12.152 13.625 38.148 38.148 0 0 1 1.908 5.244c.368 1.315.692 2.651.968 4a2.548 2.548 0 0 0 .387-.166c.048-4.817.125-9.67.574-14.465h-.029a83.994 83.994 0 0 0-10.329-31.2z" fill="#357735"/></g><g data-name="Layer 3" fill="#231f20"><path data-name="Path 3091" d="M104.524 33.517c-6.371-4.194-12.819 3.683-16.03 8.444-4.736 7-6.1 15.341-7.151 23.568a252.9 252.9 0 0 0-1.922 27.828c-.155 9.409.166 18.821.048 28.234-.136 10.661-.685 21.5.368 32.122a.284.284 0 0 0 .563 0c.151-8.746-.247-17.51-.129-26.267s.085-17.473 0-26.219c-.077-8.47.162-16.939.847-25.38.678-8.385 1.34-17.2 4.01-25.229a34.9 34.9 0 0 1 6.776-11.917c2.972-3.4 7.733-8.164 12.52-5.038.088.059.169-.081.085-.14z"/><path data-name="Path 3092" d="M104.24 33.521a32.818 32.818 0 0 1 13.257 17.407c2.5 7.733 3.163 16.151 3.837 24.2 1.4 16.678.648 33.4.88 50.115.063 4.636.129 9.272.11 13.912-.022 4.846-.309 9.7-.21 14.549a.284.284 0 0 0 .563 0c.91-8.8.567-17.8.449-26.632-.114-8.742-.059-17.47 0-26.212s-.217-17.418-.969-26.09c-.692-8-1.381-16.391-3.9-24.058-2.482-7.545-7.336-13.095-13.946-17.333-.088-.055-.169.085-.081.14z"/><path data-name="Path 3093" d="M80.016 153.501a10.405 10.405 0 0 0 3.428.162c.512-.048.519-.854 0-.81-1.134.1-2.313-.07-3.428.118-.272.039-.25.463 0 .53z"/><path data-name="Path 3094" d="M95.045 154.63a183.094 183.094 0 0 0 0-18.538c-.269-3.5-1.278-8.838-5.984-8.3-5.034.585-5.244 6.459-5.472 10.311q-.482 8.194-.508 16.4a.368.368 0 1 0 .736 0c.04-4.069.118-8.135.291-12.2s-.736-13.169 5.008-13.806c6.076-.674 5.553 8.709 5.642 12.554.1 4.474-.611 9.162.07 13.592.022.129.221.092.225-.029z"/><path data-name="Path 3095" d="M118.786 154.56a134.017 134.017 0 0 0 .589-14.336c.029-3.848.736-11.486-4.228-12.841-4.378-1.2-6.75 3.031-7.166 6.68-.773 6.805-.589 13.706-.49 20.537a.457.457 0 0 0 .913 0c-.092-5.329-.228-10.661.063-15.986.129-2.349.085-4.971.928-7.2 1.027-2.707 4.577-4.7 7.052-2.379 1.882 1.76 2.121 5.321 2.257 7.707.121 2.235.077 4.489.081 6.728 0 3.7-.085 7.4-.033 11.088 0 .022.029.022.033 0z"/><path data-name="Path 3096" d="M83.445 154.748c1.7.147 3.4.144 5.115.133a62.3 62.3 0 0 0 6.371 0 .269.269 0 0 0 .07-.523c-1.963-.582-4.419-.3-6.441-.3a36.874 36.874 0 0 0-5.178.254c-.269.037-.173.423.063.446z"/><path data-name="Path 3097" d="M107.952 154.84c3.605.052 7.5.571 11.069-.052a.236.236 0 0 0 0-.449c-3.568-.593-7.464-.048-11.069.033a.236.236 0 0 0 0 .468z"/><path data-name="Path 3098" d="M94.828 153.457c1.363.173 3.314.736 4.607.04a.272.272 0 0 0-.063-.49 6.894 6.894 0 0 0-2.136-.1c-.8 0-1.606.052-2.408.052-.332-.002-.31.456 0 .498z"/><path data-name="Path 3099" d="M103.747 155.617c-.276-3.351-.2-6.772-.368-10.138s-.306-6.768-.368-10.156-.048-6.776-.033-10.164c0-2.066-.07-4.051-1.4-5.73a.309.309 0 0 0-.442 0c-1.587 1.683-1.226 4.312-1.3 6.452-.125 3.425-.221 6.849-.331 10.271-.214 6.805-.8 13.739-.53 20.541a.32.32 0 0 0 .637 0c.608-6.05.471-12.259.648-18.339l.254-8.8c.04-1.473.085-2.946.118-4.4.022-1.005-.331-3.892.659-4.327s1.016 2.806 1.013 3.539c0 1.473-.063 2.946-.077 4.419q-.041 4.353.048 8.709c.063 2.9.144 5.807.335 8.705.21 3.16.737 6.26 1.031 9.412 0 .066.111.066.1 0z"/><path data-name="Path 3100" d="M99.059 156.678c.066 1.955 3.093 2.453 4.242 1.083.737-.884.335-2.489.317-3.532-.041-2.187-.033-4.386-.228-6.57a.218.218 0 0 0-.435 0c-.1 1.874-.041 3.756 0 5.631a17.068 17.068 0 0 1 .059 2.412q.291 1.414-1.473 2.011a2 2 0 0 1-1.974-1.1.25.25 0 0 0-.493.066z"/><path data-name="Path 3101" d="M103.193 153.485a6.256 6.256 0 0 0 2.147.125c.818 0 1.635.052 2.453.059a.369.369 0 0 0 0-.737 21.606 21.606 0 0 0-2.629-.055 4.46 4.46 0 0 0-2.007.306.169.169 0 0 0 .037.3z"/><path data-name="Path 3102" d="M118.739 153.415a6.918 6.918 0 0 0 3.775.232.25.25 0 0 0 0-.482 24.54 24.54 0 0 0-1.712-.166 10.177 10.177 0 0 0-1.911-.147c-.259.032-.458.419-.152.563z"/><path data-name="Path 3103" d="M83.584 147.464a33.731 33.731 0 0 0 11.46-.033c.21-.037.162-.368-.048-.368-3.815.166-7.564.166-11.383.177-.122 0-.158.2-.029.225z"/><path data-name="Path 3104" d="M107.985 146.915a100.653 100.653 0 0 0 10.9-.092.225.225 0 0 0 0-.446 99.726 99.726 0 0 0-10.9.283.129.129 0 0 0 0 .254z"/><path data-name="Path 3105" d="M118.819 149.773a17.923 17.923 0 0 0 4.025-.129c.225-.052.162-.368-.052-.387-1.311-.081-2.655.191-3.973.18a.169.169 0 0 0 0 .335z"/><path data-name="Path 3106" d="M103.249 149.858a9.712 9.712 0 0 0 4.515.173c.232-.059.261-.457 0-.5a12.475 12.475 0 0 0-2.1-.026c-.788 0-1.587-.044-2.372.029a.166.166 0 0 0-.044.324z"/><path data-name="Path 3107" d="M94.956 150.031a19.444 19.444 0 0 0 4.7-.018c.368-.052.254-.608-.085-.63a19.52 19.52 0 0 0-4.647.368c-.18.033-.114.276.037.291z"/><path data-name="Path 3108" d="M80.097 150.326a11.637 11.637 0 0 0 3.554.1.324.324 0 0 0 0-.619 11.632 11.632 0 0 0-3.554.107.206.206 0 0 0 0 .409z"/><path data-name="Path 3109" d="M79.803 102.862a10.889 10.889 0 0 1-4.3 7.28c-2.125 1.705-4.393 3.344-6.628 4.9a110.628 110.628 0 0 0-12.465 9.435c-6.26 5.829-12.432 15.662-8.9 24.525a.401.401 0 0 0 .773-.214 21.552 21.552 0 0 1 2.132-15.393 38.49 38.49 0 0 1 9.943-11.073c4.121-3.314 8.617-6.1 12.745-9.387 1.753-1.4 3.7-2.6 5.052-4.419a10.382 10.382 0 0 0 1.863-5.642.109.109 0 0 0-.217 0z"/><path data-name="Path 3110" d="M48.16 149.291c5.063.585 10.458-.03 15.547-.188q3.874-.114 7.733-.254a49.046 49.046 0 0 0 8.392-.527c.313-.066.339-.608 0-.656-2.714-.368-5.656 0-8.392.077s-5.369.162-8.054.243c-5.019.158-10.359-.144-15.308.762-.331.059-.206.508.074.541z"/><path data-name="Path 3111" d="M79.789 108.135c-2.007 4.194-6.139 6.4-9.8 8.978-3.145 2.21-6.327 4.419-9.324 6.816a31.344 31.344 0 0 0-8.838 11.029c-2.044 4.478-2.305 9.4-2.261 14.255a.394.394 0 1 0 .788 0c.114-5.31.368-10.48 2.946-15.264a33.293 33.293 0 0 1 9.342-10.506c3.156-2.4 6.4-4.688 9.652-6.96 3.163-2.209 6.654-4.286 7.836-8.2.06-.203-.249-.343-.341-.148z"/><path data-name="Path 3112" d="M50.034 144.091c4.931.276 9.943-.055 14.859-.2s9.906-.317 14.859-.479c.512-.018.512-.818 0-.8-4.953.21-9.906.368-14.859.53s-9.943.081-14.859.575a.184.184 0 1 0 0 .368z"/><path data-name="Path 3113" d="M50.473 146.72c9.906.041 19.745-.092 29.637-.737.556-.033.56-.9 0-.865-9.84.652-19.771 1.13-29.637 1.1a.258.258 0 0 0 0 .512z"/><path data-name="Path 3114" d="M52.881 143.715a7.044 7.044 0 0 0-.2 1.885c0 .442-.026.968.39 1.223a.306.306 0 0 0 .453-.261 12.259 12.259 0 0 0-.173-2.847.247.247 0 0 0-.475 0z"/><path data-name="Path 3115" d="M55.694 143.749a12.214 12.214 0 0 0-.081 1.374 4.094 4.094 0 0 0 .085 1.274c.1.324.641.368.711 0a7.137 7.137 0 0 0-.295-2.707c-.066-.25-.394-.166-.42.059z"/><path data-name="Path 3116" d="M58.64 143.948a16.064 16.064 0 0 0-.081 2.209.39.39 0 0 0 .272.368l.044.018a.335.335 0 0 0 .368-.151v-.018a.309.309 0 0 0-.11-.424l.151.368a12.4 12.4 0 0 0-.059-2.364.291.291 0 1 0-.582 0z"/><path data-name="Path 3117" d="M61.954 143.808a6.224 6.224 0 0 0-.063 2.419c.1.471.806.346.821-.114a11.61 11.61 0 0 0-.261-2.305.258.258 0 0 0-.5 0z"/><path data-name="Path 3118" d="M65.781 146.212a2.751 2.751 0 0 0 .177-1.211 6.728 6.728 0 0 0-.085-1.414.291.291 0 0 0-.56 0 5.679 5.679 0 0 0 0 1.414 2.618 2.618 0 0 0 .269 1.211.125.125 0 0 0 .214 0z"/><path data-name="Path 3119" d="M68.667 146.043a2.847 2.847 0 0 0 .1-1.171 5.274 5.274 0 0 0-.114-1.2.261.261 0 0 0-.5 0 3.474 3.474 0 0 0 .265 2.408.136.136 0 0 0 .247-.033z"/><path data-name="Path 3120" d="M70.918 143.77v1.1a1.841 1.841 0 0 0 .118.965.309.309 0 0 0 .53 0 1.786 1.786 0 0 0 .022-.965l-.122-1.1a.282.282 0 0 0-.563 0z"/><path data-name="Path 3121" d="M73.974 143.376a4.861 4.861 0 0 0 .022 2.232c.11.457.766.258.692-.192a22.413 22.413 0 0 0-.435-2.04.147.147 0 0 0-.28 0z"/><path data-name="Path 3122" d="M77.159 145.586a.077.077 0 1 0-.077-.077.077.077 0 0 0 .077.077z"/><path data-name="Path 3123" d="M76.765 143.193a4.136 4.136 0 0 0-.214 1.182 3.023 3.023 0 0 0 .052 1.234c.114.317.626.368.711 0a4.084 4.084 0 0 0-.044-1.234 6.065 6.065 0 0 0-.173-1.182.173.173 0 0 0-.331 0z"/><path data-name="Path 3124" d="M122.534 102.862a10.453 10.453 0 0 0 1.863 5.642 21.33 21.33 0 0 0 4.588 4.051c4.323 3.362 8.934 6.338 13.213 9.755a38.773 38.773 0 0 1 9.792 10.8 21.521 21.521 0 0 1 2.279 15.662.401.401 0 0 0 .773.214c3.491-8.9-2.629-18.663-8.9-24.522a109.4 109.4 0 0 0-12.461-9.434c-2.1-1.473-4.158-3.031-6.2-4.577a11.034 11.034 0 0 1-4.725-7.608c0-.136-.232-.14-.221 0z"/><path data-name="Path 3125" d="M154.469 148.75c-4.946-.906-10.289-.6-15.3-.762l-8.057-.243a52.373 52.373 0 0 0-8.392-.077c-.339.048-.313.589 0 .656a47.471 47.471 0 0 0 8.061.516q4.051.144 8.072.265c5.089.155 10.484.773 15.547.188.28-.033.409-.479.074-.541z"/><path data-name="Path 3126" d="M122.427 108.283c1.182 3.914 4.673 5.988 7.84 8.2 3.248 2.272 6.492 4.559 9.648 6.96a33.2 33.2 0 0 1 9.342 10.506c2.578 4.787 2.821 9.943 2.946 15.264a.4.4 0 0 0 .792 0c.04-4.85-.221-9.777-2.265-14.255a30.744 30.744 0 0 0-8.838-11.029c-3-2.412-6.175-4.607-9.32-6.816-3.664-2.578-7.792-4.787-9.8-8.978-.1-.191-.405-.055-.346.147z"/><path data-name="Path 3127" d="M152.544 143.726c-4.92-.493-9.921-.42-14.862-.574s-9.906-.32-14.859-.53c-.512-.022-.512.777 0 .8 4.953.162 9.906.335 14.859.479s9.943.471 14.862.2a.184.184 0 1 0 0-.368z"/><path data-name="Path 3128" d="M152.083 146.209c-9.865.04-19.793-.438-29.637-1.1-.556-.037-.556.832 0 .865 9.891.644 19.731.777 29.637.737a.258.258 0 0 0 0-.512z"/><path data-name="Path 3129" d="M149.208 143.715a12.266 12.266 0 0 0-.177 2.847.306.306 0 0 0 .453.261c.416-.254.4-.781.39-1.223a7.047 7.047 0 0 0-.2-1.885.247.247 0 0 0-.471 0z"/><path data-name="Path 3130" d="M146.464 143.689a7.138 7.138 0 0 0-.3 2.707c.07.368.611.324.711 0a3.989 3.989 0 0 0 .085-1.274 13.089 13.089 0 0 0-.077-1.374c-.03-.221-.368-.313-.419-.059z"/><path data-name="Path 3131" d="M143.337 143.947a12.1 12.1 0 0 0-.055 2.364l.151-.368h-.022a.309.309 0 0 0-.11.424v.018a.335.335 0 0 0 .368.151l.044-.018a.368.368 0 0 0 .273-.368 16.047 16.047 0 0 0-.077-2.21.295.295 0 0 0-.586 0z"/><path data-name="Path 3132" d="M140.122 143.807a11.608 11.608 0 0 0-.258 2.305c0 .453.737.589.818.114a6.154 6.154 0 0 0-.059-2.419.261.261 0 0 0-.5 0z"/><path data-name="Path 3133" d="M136.988 146.212a2.616 2.616 0 0 0 .269-1.211 5.855 5.855 0 0 0 0-1.414.295.295 0 0 0-.563 0 6.729 6.729 0 0 0-.081 1.414 2.751 2.751 0 0 0 .177 1.211.122.122 0 0 0 .21 0z"/><path data-name="Path 3134" d="M134.13 146.091a3.478 3.478 0 0 0 .265-2.408.261.261 0 0 0-.5 0 5.278 5.278 0 0 0-.114 1.2 2.975 2.975 0 0 0 .1 1.171.136.136 0 0 0 .247.033z"/><path data-name="Path 3135" d="M131.079 143.77c-.04.368-.077.737-.121 1.1a1.786 1.786 0 0 0 .022.965.309.309 0 0 0 .53 0 1.816 1.816 0 0 0 .122-.965v-1.1a.282.282 0 0 0-.563 0z"/><path data-name="Path 3136" d="M128.302 143.376c-.173.667-.32 1.359-.435 2.04-.074.446.582.648.7.192a4.861 4.861 0 0 0 .018-2.232.147.147 0 0 0-.28 0z"/><path data-name="Path 3137" d="M125.396 145.586a.077.077 0 1 0-.077-.077.077.077 0 0 0 .077.077z"/><path data-name="Path 3138" d="M125.459 143.193a6.359 6.359 0 0 0-.173 1.182 3.967 3.967 0 0 0-.04 1.234c.085.368.6.317.711 0a3.09 3.09 0 0 0 .048-1.234 4.136 4.136 0 0 0-.214-1.182.173.173 0 0 0-.331 0z"/><path data-name="Path 3139" d="M177.216 11.212z"/><path data-name="Path 3140" d="M126.817 108.897a.029.029 0 1 0-.019-.028.03.03 0 0 0 .019.028z"/><path data-name="Path 3141" d="M142.759 44.944a68.459 68.459 0 0 0-2.146-16.829c-1.061-3.966-2.987-8.028-7.162-9.416-3.959-1.315-7.277.869-9.055 4.371-2.379 4.684-3.506 10.119-4.2 15.29a125.45 125.45 0 0 0-.891 18.851.369.369 0 0 0 .737 0c.221-6.032.188-12.067.921-18.07a65.027 65.027 0 0 1 1.749-9.048 27.525 27.525 0 0 1 3.134-7.991 6.259 6.259 0 0 1 8.311-2.294c2.67 1.293 4.224 3.874 5.174 6.584a68.305 68.305 0 0 1 3.288 18.552.077.077 0 1 0 .155 0z"/><path data-name="Path 3142" d="M142.402 40.625a24.847 24.847 0 0 1 .236 4.677c.074 2.453.092 4.909.088 7.365 0 5.332 0 10.679.162 16 .125 4.051.479 8.1.486 12.178.022 10.679-.2 21.358-.169 32.038v6.912c0 .736 0 1.444.029 2.165 0 .346-.114.932.122.685-.309.32.18.81.49.49s.228-1.451.247-1.963c.066-1.793.052-3.587.048-5.38 0-5.616-.088-11.232-.18-16.844-.151-8.89-.567-17.768-.42-26.661.107-6.334-.158-12.679-.46-19.005-.129-2.655-.265-5.306-.368-7.962a25.572 25.572 0 0 0-.25-4.691c0-.037-.063-.022-.055 0z"/><path data-name="Path 3143" d="M142.619 44.388c.044 2.685.018 5.391.258 8.065a.074.074 0 1 0 .147 0c.052-2.685-.173-5.384-.32-8.065a.042.042 0 0 0-.085 0z"/><path data-name="Path 3144" d="M142.475 43.114c.111 5.579-.07 11.3.435 16.855a.21.21 0 1 0 .42 0 143.241 143.241 0 0 0-.692-16.855.081.081 0 1 0-.162 0z"/><path data-name="Path 3145" d="M143.541 149.036a135.318 135.318 0 0 0 .041 13.555.295.295 0 0 0 .589 0 134.281 134.281 0 0 0-.287-13.555.173.173 0 0 0-.342 0z"/><path data-name="Path 3146" d="M121.146 153.853a25.164 25.164 0 0 0 .11 9.125.317.317 0 0 0 .619-.085c.055-2.968-.317-6.01-.368-8.993 0-.2-.331-.261-.368-.048z"/><path data-name="Path 3147" d="M121.563 163.096c3.682.3 7.394.059 11.073.052s7.365.118 11.073.173a.444.444 0 0 0 0-.888c-3.8-.3-7.626-.28-11.416-.239a83.439 83.439 0 0 0-10.771.5c-.247.033-.162.39.055.405z"/><path data-name="Path 3148" d="M121.132 160.754c3.76 0 7.523-.192 11.287-.217s7.527.118 11.291.1a.28.28 0 0 0 0-.556 156.619 156.619 0 0 0-22.577.284.2.2 0 0 0 0 .394z"/><path data-name="Path 3149" d="M123.219 162.628a67.19 67.19 0 0 0-4.688 14.487.284.284 0 0 0 .545.151c.736-2.43 1.421-4.85 2.209-7.266s1.631-4.787 2.243-7.243c.044-.177-.221-.306-.309-.129z"/><path data-name="Path 3150" d="M142.335 163.155c.784 4.68 2.7 9.39 4.235 13.872.162.471.913.269.737-.206-1.558-4.53-2.681-9.446-4.728-13.776-.074-.151-.28-.033-.254.11z"/><path data-name="Path 3151" d="M118.664 177.392c4.688.5 9.6-.04 14.31-.092 4.787-.055 9.545-.129 14.317-.048a.368.368 0 0 0 0-.718c-4.894-.044-9.788-.136-14.682-.081-4.588.052-9.464-.225-13.993.582-.217.037-.14.335.048.368z"/><path data-name="Path 3152" d="M120.977 174.711q6.106-.343 12.211-.368c4.073-.018 8.149.324 12.222.28a.218.218 0 1 0 0-.435 92.064 92.064 0 0 0-12.222-.214c-4.043.085-8.153.339-12.211.737z"/><path data-name="Path 3153" d="M121.397 172.52c7.225-.284 14.483-.177 21.708 0a.171.171 0 0 0 0-.342c-7.247-.247-14.468-.052-21.708.276-.041 0-.041.066 0 .063z"/><path data-name="Path 3154" d="M121.826 170.476c6.787-.523 13.555-.291 20.346-.5a.218.218 0 0 0 0-.435c-6.728-.589-13.625 0-20.346.6-.219-.008-.223.36 0 .335z"/><path data-name="Path 3155" d="M124.122 167.618c6.724.066 13.452.063 20.176.177a.2.2 0 0 0 0-.387c-6.724.1-13.452.081-20.176.129a.041.041 0 0 0 0 .081z"/><path data-name="Path 3156" d="M122.841 165.556c5.892-.037 11.81.029 17.705.144a.184.184 0 1 0 0-.368c-5.892-.085-11.8 0-17.705.169a.028.028 0 0 0 0 .055z"/><path data-name="Path 3157" d="M123.256 91.155c6.076-.42 12.1-.346 18.18-.295a.11.11 0 0 0 0-.221 106.348 106.348 0 0 0-18.18.468c-.032 0-.032.052 0 .048z"/><path data-name="Path 3158" d="M128.283 108.728c4.161-.166 8.293 0 12.45.114.1 0 .1-.151 0-.162a78.511 78.511 0 0 0-12.45 0c-.037 0-.04.063 0 .059z"/><path data-name="Path 3159" d="M122.962 72.961a157.367 157.367 0 0 1 18.357-.041.114.114 0 0 0 0-.228 122.67 122.67 0 0 0-18.357.144c-.081-.001-.081.132 0 .125z"/><path data-name="Path 3160" d="M120.722 55.391c6.448-.04 12.826-.122 19.274.118.158 0 .151-.228 0-.243a92.888 92.888 0 0 0-19.274.026.05.05 0 0 0 0 .1z"/><path data-name="Path 3161" d="M122.126 38.84a129.16 129.16 0 0 1 17.786-.25.092.092 0 0 0 0-.184 68.381 68.381 0 0 0-17.794.368c-.033 0-.026.063 0 .059z"/><path data-name="Path 3162" d="M81.129 153.904c-.052 2.983-.42 6.025-.368 8.993a.313.313 0 0 0 .615.085 25.163 25.163 0 0 0 .114-9.125c-.029-.214-.368-.155-.368.048z"/><path data-name="Path 3163" d="M79.111 162.758c.608 2.445 1.473 4.846 2.243 7.243s1.473 4.835 2.21 7.266a.281.281 0 0 0 .541-.151 66.99 66.99 0 0 0-4.688-14.487.167.167 0 0 0-.306.129z"/><path data-name="Path 3164" d="M60.036 44.944a67.718 67.718 0 0 1 3.285-18.552c.961-2.718 2.5-5.281 5.178-6.584a6.253 6.253 0 0 1 8.311 2.294 27.627 27.627 0 0 1 3.134 7.991 64.481 64.481 0 0 1 1.723 9.048c.736 6 .7 12.038.921 18.07a.369.369 0 1 0 .737 0c.2-10.937-.169-22.666-4.511-32.877-1.432-3.4-3.97-6.463-8.02-5.991-4.253.5-6.886 4.051-8.179 7.847-2.04 5.966-2.637 12.491-2.718 18.755a.077.077 0 1 0 .155 0z"/><path data-name="Path 3165" d="M60.179 40.61a18.843 18.843 0 0 0-.2 3.473c-.1 2.471-.21 4.942-.335 7.409-.276 5.48-.5 10.966-.563 16.453-.052 4.375.122 8.753.04 13.132-.2 11-.582 21.988-.622 32.991 0 2.209-.041 4.419.026 6.61.018.593-.133 2.033.261 2.438.313.32.8-.169.49-.49.236.243.085-.14.118-.471.055-.6 0-1.219.026-1.823.029-1.893 0-3.786 0-5.682V98.193c-.022-8.4-.368-16.807.1-25.2.368-6.168.387-12.336.39-18.515 0-2.6 0-5.207.055-7.811a30.658 30.658 0 0 1 .273-6.043.03.03 0 1 0-.059 0z"/><path data-name="Path 3166" d="M59.936 44.388c-.147 2.681-.368 5.38-.324 8.065a.074.074 0 1 0 .147 0c.243-2.673.214-5.38.261-8.065.001-.054-.08-.054-.084 0z"/><path data-name="Path 3167" d="M59.999 43.113a143.248 143.248 0 0 0-.692 16.855.21.21 0 1 0 .42 0c.508-5.553.324-11.276.435-16.855a.081.081 0 0 0-.162 0z"/><path data-name="Path 3168" d="M58.75 149.036a135.338 135.338 0 0 0-.287 13.555.295.295 0 0 0 .589 0 134.216 134.216 0 0 0 .041-13.555.173.173 0 0 0-.342 0z"/><path data-name="Path 3169" d="M81.133 162.696a82.839 82.839 0 0 0-10.771-.5c-3.8-.04-7.637-.059-11.416.239-.563.044-.578.895 0 .888 3.682-.055 7.365-.18 11.07-.173s7.405.25 11.077-.052c.214 0 .3-.368.055-.405z"/><path data-name="Path 3170" d="M81.508 160.36a156.619 156.619 0 0 0-22.577-.284.28.28 0 0 0 0 .556c3.76.022 7.523-.118 11.29-.1s7.523.232 11.287.217a.2.2 0 0 0 0-.394z"/><path data-name="Path 3171" d="M60.051 163.03c-2.051 4.331-3.174 9.247-4.732 13.776-.162.475.586.678.737.206 1.543-4.482 3.454-9.206 4.239-13.872.022-.144-.184-.261-.254-.11z"/><path data-name="Path 3172" d="M84.016 177.041c-4.529-.806-9.4-.53-13.993-.582-4.894-.055-9.788.037-14.682.081a.368.368 0 0 0 0 .718c4.787-.081 9.541 0 14.314.048 4.71.052 9.626.589 14.31.092.184-.022.269-.32.048-.368z"/><path data-name="Path 3173" d="M81.662 174.7c-4.051-.4-8.135-.652-12.211-.736a91.966 91.966 0 0 0-12.222.214.218.218 0 1 0 0 .435c4.069.044 8.146-.3 12.222-.28s8.142.149 12.211.367z"/><path data-name="Path 3174" d="M81.243 172.457c-7.243-.328-14.461-.523-21.727-.276-.217 0-.221.35 0 .343 7.229-.18 14.483-.287 21.727 0a.032.032 0 0 0 0-.063z"/><path data-name="Path 3175" d="M80.816 170.134c-6.709-.589-13.625-1.186-20.349-.6a.218.218 0 1 0 0 .435c6.791.214 13.559-.018 20.349.5a.171.171 0 0 0 0-.335z"/><path data-name="Path 3176" d="M78.522 167.537c-6.724-.048-13.452-.029-20.173-.129a.2.2 0 0 0 0 .387c6.721-.114 13.448-.11 20.173-.177a.04.04 0 1 0 0-.081z"/><path data-name="Path 3177" d="M79.796 165.501a394.111 394.111 0 0 0-17.709-.169.184.184 0 0 0 0 .368c5.892-.114 11.81-.18 17.709-.144a.029.029 0 0 0 0-.055z"/><path data-name="Path 3178" d="M79.384 91.107a106.325 106.325 0 0 0-18.18-.468.11.11 0 1 0 0 .221c6.08-.052 12.1-.125 18.18.295.029 0 .029-.044 0-.048z"/><path data-name="Path 3179" d="M74.353 108.67a81.177 81.177 0 0 0-12.447 0 .081.081 0 0 0 0 .162c4.158-.1 8.289-.28 12.447-.114a.03.03 0 1 0 0-.059z"/><path data-name="Path 3180" d="M79.674 72.835a122.668 122.668 0 0 0-18.357-.144c-.144 0-.147.239 0 .228a157.366 157.366 0 0 1 18.357.04.063.063 0 0 0 0-.124z"/><path data-name="Path 3181" d="M81.921 55.292a92.92 92.92 0 0 0-19.278-.026c-.151 0-.155.247 0 .243 6.452-.239 12.83-.158 19.278-.118.066 0 .063-.092 0-.1z"/><path data-name="Path 3182" d="M80.521 38.78a68.383 68.383 0 0 0-17.794-.368c-.118 0-.125.191 0 .184a129.1 129.1 0 0 1 17.783.25.03.03 0 0 0 0-.059z"/><path data-name="Path 3183" d="M84.528 52.802c2.692-6.33 10.639-11.817 17.654-11.243 6.5.53 12.609 5.38 15.746 10.959a.368.368 0 0 0 .667-.28 9.3 9.3 0 0 0-1.985-3.023 32.643 32.643 0 0 0-3.682-3.926 19.228 19.228 0 0 0-10.738-4.563c-7.527-.475-15.3 5.115-18.066 11.9-.1.236.313.412.412.177z"/><path data-name="Path 3184" d="M85.448 65.213c.228.405.806.309 1.212.32.736 0 1.473.026 2.232 0a.332.332 0 0 0 0-.663 21.541 21.541 0 0 0-2.758.018c-.081 0-.832.074-.685.335z"/><path data-name="Path 3185" d="M100.399 58.05a12.66 12.66 0 0 0-11.946 7.019c-.136.276.265.516.412.243 2.46-4.57 6.783-5.988 11.567-7 .147-.029.11-.25-.033-.254z"/><path data-name="Path 3186" d="M100.348 54.89c-6.286-.512-14.152 3.7-15.341 10.311a.25.25 0 0 0 .479.133 12.87 12.87 0 0 1 5.6-7.531c2.92-1.8 6-2.073 9.3-2.6.184-.029.122-.291-.04-.306z"/><path data-name="Path 3187" d="M100.109 55.031c-.07 1.057.04 2.1.026 3.16a.206.206 0 0 0 .409 0 27.364 27.364 0 0 0-.111-3.2c-.03-.196-.313-.133-.324.04z"/><path data-name="Path 3188" d="M102.094 58.304c4.787 1.02 9.1 2.438 11.567 7 .147.272.549.033.412-.243a12.66 12.66 0 0 0-11.946-7.019c-.14 0-.18.225-.033.254z"/><path data-name="Path 3189" d="M102.137 55.196c3.314.53 6.371.792 9.3 2.6a12.885 12.885 0 0 1 5.6 7.531.25.25 0 0 0 .479-.133c-1.189-6.6-9.055-10.819-15.341-10.311-.158 0-.225.276-.041.306z"/><path data-name="Path 3190" d="M102.096 54.99a27.377 27.377 0 0 0-.11 3.2.206.206 0 0 0 .409 0c0-1.057.1-2.1.026-3.16-.004-.173-.299-.24-.325-.04z"/><path data-name="Path 3191" d="M117.56 65.179c-.228-.405-.806-.313-1.212-.324a35.34 35.34 0 0 0-2.232 0 .332.332 0 0 0 0 .663 21.544 21.544 0 0 0 2.758 0c.081 0 .832-.074.685-.335z"/><path data-name="Path 3192" d="M96.761 65.632c1.307.114 2.607.125 3.922.118l-.254-.254c0 1.1 0 2.228-.022 3.344l.2-.254c-1.208.191-2.467-.166-3.653.066l.225.169c-.088-1.061.14-2.128.033-3.185-.022-.21-.368-.3-.4-.055a26.423 26.423 0 0 0 0 3.241.162.162 0 0 0 .088.151c1.13.512 2.578.2 3.763.133a.269.269 0 0 0 .265-.265 25.965 25.965 0 0 0 0-3.344.261.261 0 0 0-.258-.258 38.774 38.774 0 0 0-3.922.228.085.085 0 0 0 0 .166z"/><path data-name="Path 3193" d="M101.883 65.397a22.193 22.193 0 0 0-.077 3.428.28.28 0 0 0 .272.269 26.734 26.734 0 0 0 3.764-.048c.162-.022.221-.214.2-.35a21.59 21.59 0 0 1-.158-2.578c0-.273.07-.681-.162-.884s-1.1-.059-1.407-.055c-.781 0-1.558.026-2.335.063-.368 0-.368.6 0 .589.534 0 1.068-.037 1.6-.066.243 0 .486-.026.737-.033a3.5 3.5 0 0 1 .873-.033c.342.166.236.961.254 1.3a15.037 15.037 0 0 1 .041 1.775l.284-.287a26.738 26.738 0 0 0-3.682.066l.269.272c-.074-1.142-.092-2.287-.184-3.428a.14.14 0 0 0-.28 0z"/><path data-name="Path 3194" d="M82.576 41.574a77.7 77.7 0 0 1 6.577-22.286 82.491 82.491 0 0 1 5.207-9.622c2.044-3.237 4.209-6.787 7.442-8.963a.373.373 0 0 0-.368-.648c-3.141 1.664-5.122 4.872-7.015 7.766A77.008 77.008 0 0 0 82.16 41.575c-.033.269.387.265.424 0z"/><path data-name="Path 3195" d="M120.535 41.666a78.332 78.332 0 0 0-6.076-23.1c-2.824-6.514-6.525-14.454-12.653-18.508-.368-.228-.784.317-.457.589 5.818 4.824 9.342 11.537 12.274 18.412a92.542 92.542 0 0 1 6.327 22.7c.048.331.619.258.585-.077z"/><path data-name="Path 3196" d="M86.627 30.594c9.574-.792 18.954-.42 28.51.055.188 0 .173-.261 0-.284-9.372-1.241-19.119-.928-28.51-.085-.2 0-.2.331 0 .313z"/><path data-name="Path 3197" d="M82.248 82.092c6.065.368 12.193.214 18.265.21s12.185-.022 18.261-.35a.107.107 0 0 0 0-.214c-6.083-.022-12.174.162-18.261.232s-12.185-.125-18.265.081a.022.022 0 0 0 0 .041z"/><path data-name="Path 3198" d="M82.576 100.505c6.054.387 12.115.622 18.184.655 6 .033 12.229.239 18.191-.5a.085.085 0 0 0 0-.166c-6.043-.136-12.152.4-18.191.4s-12.13-.14-18.184-.431a.022.022 0 1 0 0 .042z"/><path data-name="Path 3199" d="M103.312 122.726c2.869.055 5.734 0 8.6-.085a64.423 64.423 0 0 0 7.914-.4c.151-.022.107-.247-.033-.254-2.718-.144-5.524.177-8.238.269s-5.5.151-8.245.273a.1.1 0 1 0 0 .2z"/><path data-name="Path 3200" d="M81.419 122.39c3 .21 6.013.309 9.026.368a71.725 71.725 0 0 0 9.029 0 .133.133 0 0 0 0-.261c-2.968-.3-6.047-.1-9.029-.147s-6.017-.144-9.026-.18a.1.1 0 1 0 0 .2z"/><path data-name="Path 3201" d="M59.84 176.806c-2.125-.626-3.605 1.41-3.874 3.314-.409 2.924.567 6.345 1.068 9.206l.608-.368a6.274 6.274 0 0 0-6.768-1.252 3.9 3.9 0 0 0-2.265 2.519c-.339 1.525.6 2.824 1.248 4.106a3.747 3.747 0 0 1 .6 1.952c-.077 1.421-1.771 1.539-2.721.689-.5-.449-.821-1.075-1.363-1.51a4.346 4.346 0 0 0-3.145-1.06 2.837 2.837 0 0 0-2.088 4.327c.265.368.88 0 .611-.368-3.23-4.419-9.9-5.034-12.708.273a7.431 7.431 0 0 0 .368 7.3 7.91 7.91 0 0 0 3.086 2.788c1.908 1.02 4.879 2.268 3.981 5-.173.519.608.7.8.221.7-1.716-.221-3.4-1.606-4.467-1.057-.821-2.36-1.215-3.48-1.926a6.628 6.628 0 0 1 .578-11.574 6.341 6.341 0 0 1 8.367 2.78l.611-.368a2.042 2.042 0 0 1 .685-2.946 2.773 2.773 0 0 1 3.163.228c1.009.652 1.436 1.709 2.316 2.434a1.876 1.876 0 0 0 2.92-.291c1.208-1.687-.029-3.469-.8-5.023-2.379-4.824 4.463-6.047 7.089-3.314.2.21.659.066.622-.258q-.309-2.71-.711-5.417c-.368-2.519-.884-6.6 2.777-6.816a.1.1 0 0 0 .026-.2z"/><path data-name="Path 3202" d="M36.604 213.049a6.143 6.143 0 0 1-.427 1.293q-1.595 1.318-2.294.044c-.449-.339-.77-.888-1.234-1.241a4.225 4.225 0 0 0-3.163-.983 2.9 2.9 0 0 0-2.511 3.447c.11.431.4.788.527 1.2.762 2.478-1.591 3.241-3.053 1.771a12.359 12.359 0 0 0-2.07-2.136c-2-1.23-3.848.412-5.155 1.841l.663.173c-.493-2.987-3.277-5.693-6.466-5.1-3.406.63-4.787 3.948-3.682 7 .295.8 1.44 2.876 1.013 3.712-.552 1.079-2.313-.029-3.075-.151a4.857 4.857 0 0 0-3.815 1.182c-2.791 2.357-2.106 6.43-.14 9.07.317.427 1.038.022.736-.423-2.007-2.85-2.578-8.1 1.915-8.974 1.539-.294 2.515 1 3.918.858a1.37 1.37 0 0 0 1.23-.924c.368-.91-.125-2.371-.4-3.226-.582-1.782-1.554-3.491-.416-5.3 2.578-4.106 7.619-1.322 8.429 2.5a.394.394 0 0 0 .659.173c1.388-1.672 3.274-2.946 5.078-1.053a9.614 9.614 0 0 0 2.077 2.1 2.512 2.512 0 0 0 3.682-1.867c.2-1.587-1.572-2.721-.368-4.231 1.1-1.385 2.754-1.145 4.073-.166.667.5 1.053 1.278 1.709 1.749 1.631 1.175 2.578-.979 2.784-2.279.022-.136-.18-.2-.217-.059z"/><path data-name="Path 3203" d="M80.61 176.85c5.892 2.305 4.312 9.784 4.3 14.623a10.2 10.2 0 0 0 1.841 5.653c.685 1.038 2.162 3.362 3.664 3.266 1-.063.954-1.083.887-1.9-.169-2.07-.3-4.331 2.132-5.133a5.332 5.332 0 0 1 4.349.633c2.869 1.727 2.817 4.714 3.137 7.648.21 1.9 2.092 2.431 3.719 3.141a.37.37 0 1 0 .368-.641c-1.572-1.016-3.086-1.263-3.16-3.41a13.038 13.038 0 0 0-.49-3.392 7 7 0 0 0-3.174-4.051c-3.112-1.79-7.512-.688-7.733 3.347a11.244 11.244 0 0 1 .066 1.215c-.28 1.539-1.061 1.189-1.775.409a12.553 12.553 0 0 1-2.46-3.926c-1.024-2.71-.232-5.686-.328-8.507-.125-3.8-1.432-7.84-5.248-9.331-.228-.088-.328.28-.1.368z"/><path data-name="Path 3204" d="M120.764 177.185c-4.614 3.182-.549 8.768-.538 12.973a11.347 11.347 0 0 1-.405 2.964c-.136.49-.42 1.922-.851 2.235-.921.678-2.968-1.241-3.914-1.7a7.47 7.47 0 0 0-6.087-.582 4.424 4.424 0 0 0-2.946 3.506 6.558 6.558 0 0 0 .549 3.086c.291.777 1.631 3.219.9 3.878-.442.4-1.473.059-2.18.317a3.52 3.52 0 0 0-1.738 1.392c-1.1 1.727-.412 3.789.736 5.273l.368-.641c-4.139-.932-8.882-.177-11.7 3.289-2.066 2.545-2.125 6.79 1.3 8.175.331.133.556-.412.243-.574-3.793-1.959-2.272-6.463.46-8.547a10.417 10.417 0 0 1 9.493-1.6c.4.133.586-.368.368-.641-1.215-1.539-1.8-4.268.339-5.343 1.027-.516 1.9.346 2.791 0s.582-1.768.427-2.482c-.453-2.088-2.228-4.309-1.153-6.47 1.388-2.791 5.071-2.416 7.417-1.318 1.061.5 1.988 1.186 3 1.757.582.328.851.552 1.447.221 1.307-.736 1.86-3.484 2.018-4.787a13.325 13.325 0 0 0-.84-5.892c-.829-2.515-2.051-6.26.67-8.138.191-.129 0-.442-.18-.31z"/><path data-name="Path 3205" d="M90.269 223.087c-3.926 1.315-9.405 6.378-5.524 10.561a.335.335 0 0 0 .523-.4c-1.256-2.132-1.322-4 .2-6.006a10.439 10.439 0 0 1 4.909-3.7c.28-.1.158-.545-.125-.449z"/><path data-name="Path 3206" d="M145.292 176.423a21.369 21.369 0 0 1 4.051 13.445.46.46 0 0 0 .578.442 4.659 4.659 0 0 1 5.815 1.473c1.167 1.793.541 3.314.217 5.214-.409 2.39 1.208 2.9 3.156 3.377a4.391 4.391 0 0 1 3.462 3.951 10.036 10.036 0 0 1-.088 3 11.9 11.9 0 0 0-.457 2.482c.133 1.841 2.423 1.532 3.752 1.1 2.007-.615 2.257-2.39 1.823-4.2s-1.142-3.8 1.27-4.662a11.2 11.2 0 0 1 5.955-.228c2.18.552 4.1 2.1 4.29 4.463a12.257 12.257 0 0 1-1.2 5.616c-1.219 2.685-4.025 4.666-4.312 7.759-.2 2.106 1.351 4.6 3.738 4.191a5.561 5.561 0 0 0 2.578-1.635c.921-.8 1.841-1.635 3.137-.84.8.49 1.009 2.243 1.1 3.042.048.413.644.7.876.236a4.292 4.292 0 0 1 6.691-.9c2.257 2.235 1.237 5.954-.777 7.939a.521.521 0 0 0 .736.737c2.493-2.442 3.336-7.129.368-9.593-2.368-1.963-6.36-1.436-7.829 1.333l.88.239c-.214-1.841-.873-4.548-3.233-4.419a3.791 3.791 0 0 0-2.147 1.068 13.518 13.518 0 0 1-1.606 1.373c-1.753 1.053-3.428-.324-3.524-2.173-.114-2.121 1.591-3.911 2.747-5.524a13.546 13.546 0 0 0 2.209-4.787c.652-2.626.825-5.413-1.329-7.383-2.762-2.522-12.7-3.4-11.983 2.324.221 1.745 1.779 4.467-.957 5.155-.806.206-2.092.471-2.3-.6-.147-.736.4-1.919.49-2.71.291-2.5-.206-5.524-2.659-6.835a7.342 7.342 0 0 0-1.933-.567 4.365 4.365 0 0 1-.895-.206c-1.793-.9-1.149-1.941-.858-3.064a5.893 5.893 0 0 0-.144-3.9 5.494 5.494 0 0 0-7.317-2.813l.582.442a18.972 18.972 0 0 0-4.842-13.548c-.066-.07-.191.022-.136.1z"/><path data-name="Path 3207" d="M191.368 231.612c-.615 1.031-1.193 2.618.122 3.414 1.525.924 2.6-.9 3.557-1.7 2.846-2.379 6.3 1.278 7.56 3.682a10.581 10.581 0 0 1 .663 7.755c-.11.438.571.777.766.324 1.513-3.484.346-7.788-2.044-10.583a7.326 7.326 0 0 0-4.688-2.824 3.683 3.683 0 0 0-2.379.615 5.923 5.923 0 0 0-.847.818 10.542 10.542 0 0 1-.714.8q-3.167.608-1.657-2.1c.096-.226-.206-.418-.339-.201z"/><path data-name="Path 3208" d="M84.215 154.358a5.93 5.93 0 0 0-.9 2.191.269.269 0 1 0 .519.14c.136-.4.225-.814.339-1.219a5.767 5.767 0 0 0 .25-1.053.116.116 0 0 0-.214-.059z"/><path data-name="Path 3209" d="M83.453 156.768c.438 1.863.777 3.771 1.366 5.6a.236.236 0 0 0 .453-.125 34.44 34.44 0 0 0-1.609-5.524.11.11 0 0 0-.21.059z"/><path data-name="Path 3210" d="M93.797 154.417a6.1 6.1 0 0 0 .254 1.053c.114.405.2.821.339 1.219a.269.269 0 0 0 .516-.14 5.861 5.861 0 0 0-.891-2.191c-.063-.081-.229-.07-.218.059z"/><path data-name="Path 3211" d="M94.566 156.692a34.437 34.437 0 0 0-1.609 5.524.233.233 0 1 0 .449.125c.589-1.841.932-3.734 1.37-5.6a.11.11 0 0 0-.21-.059z"/><path data-name="Path 3212" d="M84.995 162.407c2.721.085 5.465.1 8.186.048a.158.158 0 0 0 0-.313 168.02 168.02 0 0 0-8.186.059.103.103 0 1 0 0 .206z"/><path data-name="Path 3213" d="M108.527 154.358a5.929 5.929 0 0 0-.91 2.191.269.269 0 1 0 .519.14c.136-.4.225-.814.339-1.219a5.77 5.77 0 0 0 .25-1.053.116.116 0 0 0-.214-.059z"/><path data-name="Path 3214" d="M107.765 156.768c.438 1.863.777 3.771 1.366 5.6a.236.236 0 0 0 .453-.125 34.445 34.445 0 0 0-1.609-5.524.11.11 0 0 0-.21.059z"/><path data-name="Path 3215" d="M118.114 154.417a5.764 5.764 0 0 0 .25 1.053c.114.405.2.821.339 1.219a.269.269 0 0 0 .516-.14 5.862 5.862 0 0 0-.891-2.191c-.065-.081-.23-.07-.214.059z"/><path data-name="Path 3216" d="M118.874 156.692a34.444 34.444 0 0 0-1.609 5.524.233.233 0 0 0 .449.125c.589-1.841.932-3.734 1.37-5.6a.11.11 0 0 0-.21-.059z"/><path data-name="Path 3217" d="M109.307 162.407c2.725.085 5.465.1 8.186.048a.158.158 0 0 0 0-.313 168.02 168.02 0 0 0-8.186.059.103.103 0 1 0 0 .206z"/><path data-name="Path 3218" d="M84.613 156.733c3.112 0 6.227.236 9.335.225.335 0 .313-.464 0-.5a42.993 42.993 0 0 0-9.335.151.066.066 0 0 0 0 .129z"/><path data-name="Path 3219" d="M108.29 156.928a83.733 83.733 0 0 0 9.806-.107.129.129 0 0 0 0-.258 83.792 83.792 0 0 0-9.806.059.155.155 0 0 0 0 .306z"/></g></svg>