<svg xmlns="http://www.w3.org/2000/svg" width="278.348" height="230.951"><defs><clipPath id="a"><path data-name="Path 2717" d="M98.484 320.922c-.983.231-1.958.488-2.933.777a72.128 72.128 0 0 0-4.908 1.652c-9.088 3.3-17.961 7.708-27.512 9.551-5.279 1.016-11.145 1.124-15.6-1.9a66.844 66.844 0 0 0 11.195-5.213 81.46 81.46 0 0 0-9.295-3.049 43.066 43.066 0 0 1-11.013-4.09c9.914 1.371 23.034-2.041 31.858-6.7 5.436-2.867 10.517-6.857 16.582-7.816a27.084 27.084 0 0 1 9.088.372c1.1.2 2.2.438 3.3.677a28.818 28.818 0 0 1 9.452 3.387 26.438 26.438 0 0 1 5.3 4.866c4.751 5.4 8.964 11.567 10.592 18.532a57.146 57.146 0 0 1 1 13.07v14.012c-1.545.611-2.883-.314-4.461-.826-3.776-1.247-6.965-3.3-10.418-5.3a2.281 2.281 0 0 1-.909-.826 66.526 66.526 0 0 0 .058-16.111c-.43-3.619-1.206-7.312-3.3-10.319s-4.597-5.159-8.076-4.746z" transform="translate(-38.42 -303.913)" fill="#f4f1ec"/></clipPath><clipPath id="b"><path data-name="Path 2736" d="M121.6 339.545a66.526 66.526 0 0 1-.058 16.111.727.727 0 0 1-.058-.512c-5.4-2.379-9.6-4.057-15-6.428l-.3-.248c.5-8.312.876-14.872 1.157-23.183.975-.289 1.95-.545 2.933-.777 3.478-.438 6.048 1.8 8.064 4.734s2.829 6.684 3.262 10.303z" transform="translate(-106.18 -324.454)" fill="#5fba66"/></clipPath></defs><g data-name="Layer 2"><path data-name="Path 2698" d="M144.84 103.361c.4-3.214 1.652-6.494 4.28-8.4a5.552 5.552 0 0 1 2.041-.975 4.751 4.751 0 0 1 4.718 1.933 6.2 6.2 0 0 1 .826 5.155 12 12 0 0 1-3.462 5.3 50.892 50.892 0 0 0-4.528 4.528 8.749 8.749 0 0 0-2.041 4.957 7.486 7.486 0 0 0-3.148-3.3 38.808 38.808 0 0 1-4.073-2.479 10.088 10.088 0 0 1-3.751-6.106 6.312 6.312 0 0 1 .644-4.478 3.66 3.66 0 0 1 3.966-1.694 5.081 5.081 0 0 1 2.437 2.016 18.117 18.117 0 0 1 2.041 3.5z" fill="#e23895"/><path data-name="Path 2699" d="M194.948 102.749a11.567 11.567 0 0 1 1.908-5.874 7.609 7.609 0 0 1 4.957-2.983 5.784 5.784 0 0 1 2.627.182c2.346.76 3.751 3.371 3.668 5.841a10.74 10.74 0 0 1-3.024 6.61 72.7 72.7 0 0 1-5.453 4.957 15.7 15.7 0 0 0-4.255 5.593 12.723 12.723 0 0 0-3.974-4.808 29.872 29.872 0 0 1-5.238-4.693 10.98 10.98 0 0 1-1.537-10.286h.05a4.065 4.065 0 0 1 3.9-1.818 6.472 6.472 0 0 1 4.128 3.008 17.067 17.067 0 0 1 2.239 4.271z" fill="#e23895"/><path data-name="Path 2700" d="M206.655 60.25c1.066-1.413 1.933-2.974 3.115-4.288a6.494 6.494 0 0 1 4.668-2.413c2.289 0 4.247 1.9 5.007 4.057a5.783 5.783 0 0 1 .339 2.4c-.2 2.206-1.925 3.916-3.544 5.42-2.322 2.156-6.106 5.833-8.427 7.989-2.66-3.354-7.593-4.85-9.485-8.692a7.5 7.5 0 0 1-.735-3.883 6.048 6.048 0 0 1 3.619-5.164 3.238 3.238 0 0 1 1.5-.215 3.3 3.3 0 0 1 1.314.5 5.676 5.676 0 0 1 2.627 4.28z" fill="#e23895"/><path data-name="Path 2701" d="M273.725 53.335a32.8 32.8 0 0 1-4.131 2.6 24.3 24.3 0 0 0-4.734 3.784 5.115 5.115 0 0 0-.826 1.057 6.68 6.68 0 0 0-2.677-4.627 42.412 42.412 0 0 1-4.519-3.685 7.89 7.89 0 0 1-2.049-5.37 6.609 6.609 0 0 1 2.5-5.081 5.651 5.651 0 0 1 5.577-.677c2.313 1.033 3.5 3.544 4.3 5.973l.149-.05a25.1 25.1 0 0 1 2.569-3.189 7.874 7.874 0 0 1 3.3-2.313 3.453 3.453 0 0 1 3.718 1.016 5.147 5.147 0 0 1 .719 2.751 11.671 11.671 0 0 1 0 2.28 8.924 8.924 0 0 1-3.896 5.531z" fill="#e23895"/><path data-name="Path 2702" d="M67.111 94.298c-1.991-6.246-4.073-11.839-5.874-18.424l.24-.554a347.571 347.571 0 0 1 8.551 3.767l.611.289-.107.223q2.3 9.592 5.387 19l-.826-.372a150.887 150.887 0 0 0-8.551-3.743z" fill="#c9c7c3"/><path data-name="Path 2703" d="M104.801 54.739c-11.905 7.584-23.315 15.9-34.7 24.2l-.05.107a291.616 291.616 0 0 0-8.551-3.767l-.273-.116v-.083c5.593-5.717 12.335-10.17 19.06-14.508 5.139-3.3 10.3-6.568 15.466-9.84l1.016-.644a11.638 11.638 0 0 0 1.008 1.5 9.2 9.2 0 0 0 4.957 2.834 9.089 9.089 0 0 0 2.066.314z" fill="#f4f1ec"/><path data-name="Path 2704" d="m103.934 38.026-2.388.826-.438.149a179.599 179.599 0 0 0-3.966-4.4c.826-.6 1.7-1.206 2.536-1.809l.223.314a36.808 36.808 0 0 0 7.609 3.751c-.537.157-1.066.339-1.586.512z" fill="#f4f1ec"/><path data-name="Path 2705" d="M45.936 26.318v.207a25.215 25.215 0 0 0 6.444 3.825c13.1 5.891 23.96 8.535 38.244 10.3a102.654 102.654 0 0 0-18.416-9.088c-7.534-2.699-18.068-5.599-26.272-5.244zm55.2 12.657a10.343 10.343 0 0 0-3.239 1.652 6.742 6.742 0 0 0-2.313 5.445 9.022 9.022 0 0 0 1.223 4.131l-1.016.644-.686-1.082c-5.916-.438-11.839-.876-17.755-1.355-8.617-.686-17.226-1.471-25.81-2.479-5.238-.6-10.55-1.314-15.409-3.387s-9.278-5.684-11.178-10.608a15.342 15.342 0 0 1 3.3-15.962 21.234 21.234 0 0 1 6.915-4.4A35.609 35.609 0 0 1 56.321 9.6c5.511 1.19 10.013 3.354 15.086 5.783a102.727 102.727 0 0 1 10.724 5.982c5.18 3.387 10.575 8.535 14.987 13.219a172.664 172.664 0 0 1 4.016 4.391z" fill="#f4f1ec"/><path data-name="Path 2706" d="M96.78 50.129a9.022 9.022 0 0 1-1.223-4.131 6.742 6.742 0 0 1 2.313-5.445 10.344 10.344 0 0 1 3.239-1.652l.438-.149 2.388-.826a4.767 4.767 0 0 0-1.652 3.8 7.981 7.981 0 0 0 4.048 6.692 9.782 9.782 0 0 0 7.923.62l-.173-1.058a10.476 10.476 0 0 0 5.469-2.586.458.458 0 0 1 0 .1 9.393 9.393 0 0 1-.479 1.058 14.731 14.731 0 0 1-7.18 6.395 14.2 14.2 0 0 1-2.958.925 36.826 36.826 0 0 1-6.213.5 9.2 9.2 0 0 1-4.957-2.834 11.64 11.64 0 0 1-.983-1.4z" fill="#f4f1ec"/><path data-name="Path 2707" d="m114.105 48.08.173 1.058a9.782 9.782 0 0 1-7.923-.62 7.981 7.981 0 0 1-4.048-6.692 4.767 4.767 0 0 1 1.652-3.8l1.991-.677c.521-.174 1.049-.355 1.586-.512 2.355-.719 4.817-1.181 7.047-.273a7.7 7.7 0 0 1 1.793 1.058 15.172 15.172 0 0 1 1.231 1.066 7.436 7.436 0 0 1 2.313 3.561 5.7 5.7 0 0 1-.322 3.247 10.476 10.476 0 0 1-5.493 2.584z" fill="#f4f1ec"/><path data-name="Path 2708" d="M157.844 20.758c-11.748 7.75-13.607 8.931-25.017 15.756-1.5.19-3.131.4-5.007.694 5.849-5.073 11.625-10.2 18.094-14.45 2.181-1.429 4.387-2.842 6.7-4.048 1.917.751 3.594 1.404 5.23 2.048z" fill="#f4f1ec"/><path data-name="Path 2709" d="M119.574 45.492a5.7 5.7 0 0 0 .322-3.247 7.435 7.435 0 0 0-2.313-3.561 15.182 15.182 0 0 0-1.231-1.066c5.114-8.047 11.459-17.614 18.375-24.183l.826-.76c6.775-6.2 15.194-10.9 24.323-11.748a19 19 0 0 1 9.642 1.272 15.549 15.549 0 0 1 7 6.7 14.045 14.045 0 0 1 1.834 5.957 19.713 19.713 0 0 1-1.553 7.783 43.524 43.524 0 0 1-2.082 4.866 23.393 23.393 0 0 1-2.908 4.461c-2.925 3.462-6.99 5.783-11.162 7.5-10.137 4.263-17.35 5.428-28.371 6.039a78.25 78.25 0 0 1-12.244-.091l-.116.306h-.05l-.306-.116a.463.463 0 0 0 .014-.112zm13.219-8.964c5.23-.677 8.733-1.115 14.871-3.644a54.025 54.025 0 0 0 12.219-7 34.741 34.741 0 0 0 3.412-2.933 17 17 0 0 0 4.66-7.436v-.421a16.621 16.621 0 0 0-3.949 0 31.047 31.047 0 0 0-8.171 2.049 34.275 34.275 0 0 0-3.3 1.537c-2.313 1.206-4.519 2.619-6.7 4.048-6.469 4.247-12.244 9.377-18.094 14.45 1.95-.248 3.586-.463 5.081-.653z" fill="#f4f1ec"/><path data-name="Path 2710" d="M126.556 63.902a7.949 7.949 0 0 1-1.884-1 108.048 108.048 0 0 0-15.623-8.468l-.091-.479a14.192 14.192 0 0 0 2.958-.925 14.731 14.731 0 0 0 7.18-6.395 9.387 9.387 0 0 0 .479-1.058l.306.116h.05q10.741 3.974 21.233 8.741l.05.083q-7.346 4.75-14.658 9.385z" fill="#f4f1ec"/><path data-name="Path 2711" d="M126.572 63.935q7.32-4.635 14.6-9.336l.173.273 8.444 18.011.364.826c-4.2 2.569-8.931 5.552-13.657 8.535l-.43-.686q-5-8.717-9.494-17.623z" fill="#f4f1ec"/><path data-name="Path 2712" d="M168.881 222.184c0 .5-.041 1.008-.041 1.52a4.189 4.189 0 0 1-2.842 1.14c-3.4.421-18.879 2.132-19.358 1.363-.149-.24-.107-1.008-.207-1.272-1.652-16.359 10.294-31.916 24.711-39.831 8.006-4.4 17.21-6.089 26.108-8.386 6.824-1.76 13.459-3.875 19.234-7.816 6.378-4.346 11.4-11.063 12.467-18.705a20.654 20.654 0 0 0-3.52-14.549 16.572 16.572 0 0 0-5.783-5.106 20.353 20.353 0 0 1 6.263.826c1.413.33 2.7.694 3.478.95 1.578.521 5.668 2.256 7.122 2.842a12.392 12.392 0 0 1 3.239 1.694l.074-.091a29.488 29.488 0 0 0 0-11.129c3.867 3.867 7.626 9.039 8.857 13.954a60.689 60.689 0 0 1 1.3 20.531c-.826 6.246-3.743 12.393-8.882 16.069-6.362 4.495-14.739 4.412-22.505 5.114a72.7 72.7 0 0 0-22.853 5.643 52.314 52.314 0 0 0-10.592 6.262c-9.098 6.901-15.691 17.592-16.27 28.977z" fill="#f4f1ec"/><path data-name="Path 2713" d="m216.8 130.592.124-.066c2.718-3.437 4.957-7.436 5.445-11.8a17.986 17.986 0 0 1 3.61 12.616 22.015 22.015 0 0 0-6.263-.826 16.574 16.574 0 0 1 5.783 5.106 15.947 15.947 0 0 1-1.322 4.486c-2.718 6.957-7.865 12.682-13.335 17.771-3.949 3.668-8.212 7.2-10.848 11.905l-1.281-.248c1.289-6.609 2.479-12.781 3.858-19.763v-.364h.339v-.157q-4.722-1.648-9.088-3.363c1.809-3.082 5.023-5.056 7.436-7.692a19.077 19.077 0 0 0 2.123-23.266 19.423 19.423 0 0 1 4.5 3.577c3.888 4.285 6.353 6.896 8.919 12.084z" fill="#f4f1ec"/><path data-name="Path 2714" d="M58.172 129.592v.132c.083 4.238.14 8.361.173 12.442a20.58 20.58 0 0 1-3.487-7.163c-2.33-7.618-2.479-16.8-1.231-24.67a59.493 59.493 0 0 0 4.478 7 21.805 21.805 0 0 0 2.834 3.123c.281 0 3.4-4.073 4.47-5.3 2.148-2.479 3.14-4.858 5.288-7.312a58.908 58.908 0 0 0 2.346 20.323v.57l-7.436.463c-2.478.145-4.957.293-7.435.392z" fill="#c9c7c3"/><path data-name="Path 2715" d="M60.749 183.708c-.983.231-1.958.488-2.933.777a72.128 72.128 0 0 0-4.908 1.652c-9.088 3.3-17.961 7.708-27.512 9.551-5.279 1.016-11.145 1.124-15.6-1.9a66.844 66.844 0 0 0 11.195-5.213 81.46 81.46 0 0 0-9.295-3.049 43.066 43.066 0 0 1-11.013-4.09c9.914 1.371 23.034-2.041 31.858-6.7 5.436-2.867 10.517-6.857 16.582-7.816a27.084 27.084 0 0 1 9.088.372c1.1.2 2.2.438 3.3.677a28.818 28.818 0 0 1 9.452 3.387 26.438 26.438 0 0 1 5.3 4.866c4.751 5.4 8.964 11.567 10.592 18.532a57.146 57.146 0 0 1 1 13.07v14.012c-1.545.611-2.883-.314-4.461-.826-3.776-1.247-6.965-3.3-10.418-5.3a2.281 2.281 0 0 1-.909-.826 66.526 66.526 0 0 0 .058-16.111c-.43-3.619-1.206-7.312-3.3-10.319s-4.597-5.159-8.076-4.746z" fill="#f4f1ec"/><g data-name="Group 7774" transform="translate(.685 166.699)" clip-path="url(#a)"><path data-name="Path 2716" d="M63.311 19.397c5.866-.256 12.93-.587 17.16 4.3a16.1 16.1 0 0 1 3.156 7.386 46.574 46.574 0 0 1 .727 9.914c-.058 4.057-.446 8.1-.826 12.145l4.057-.554-4.486-25.141-3.982 1.1a33.933 33.933 0 0 0 2.536 7.072l3.569-2.09a35.188 35.188 0 0 0-13.178-13.224l-1.041 3.85a28.329 28.329 0 0 1 7.617 2.09 2.132 2.132 0 0 0 2.826-.744 2.082 2.082 0 0 0-.735-2.826 72.354 72.354 0 0 0-10.36-4.585c-2.189-.768-3.71 2.76-1.595 3.776a66.348 66.348 0 0 0 9.6 3.734l1.1-3.982-8.989-2.669a2.085 2.085 0 0 0-2.016 3.453 26.587 26.587 0 0 1 6.2 11.311l3.99-1.1a74.29 74.29 0 0 0-5.362-11.963c-1.19-2.132-4.214-.628-3.767 1.586l3.3 16.747 3.982-1.1a61.071 61.071 0 0 0-4.172-13.492 2.041 2.041 0 0 0-2.578-.826 2.09 2.09 0 0 0-1.2 2.479q2.041 10.013 4.685 19.9l3.776-1.595a24.127 24.127 0 0 0-6.139-7.188c-1.652-1.181-4.007 1.173-2.826 2.826a133.137 133.137 0 0 0 9.353 11.641l2.916-2.916c-2.132-1.9-4.569-3.561-7.56-2.875a2.082 2.082 0 0 0-1.231 3.032 17.747 17.747 0 0 0 7.576 7.436 2.068 2.068 0 1 0 2.09-3.569 33.877 33.877 0 0 1-7.535-7.816l-2.826 2.826 3.14 1.38a8.716 8.716 0 0 0 3.131 1.016 3.065 3.065 0 0 0 2.809-1.479c.661-1.165.231-2.479-.1-3.643l-4.007-14.409-3.751 1.5 5.907 11.269c1.132 2.165 4.222.611 3.776-1.595q-1.157-5.6-2.536-11.162a2.07 2.07 0 0 0-3.991 1.1 40.434 40.434 0 0 0 4.668 13.021 2.082 2.082 0 0 0 3.85-1.041 35.467 35.467 0 0 0-.934-9.286c-.339-1.429-.942-2.842-1.173-4.3-.058-.413-.174-1.818.413-2.057l-2.619-1.991c-.289 4.693-.578 9.385-.826 14.045a46.835 46.835 0 0 0 1.041 13.649 2.082 2.082 0 0 0 3.453.917l1.2-1.248-3.453-.917 1.909 5.3a2.1 2.1 0 0 0 2.536 1.446c-.041-.091-.132-.107-.273-.058a2.082 2.082 0 0 0 3.032-1.231 62.462 62.462 0 0 0 1.074-13.7 2.065 2.065 0 0 0-4.057-.553 61.477 61.477 0 0 1-1.231 6.229 61.061 61.061 0 0 1-.826 2.958c-.2.644-.322 1.793-.826 2.206l.909-.529h.339l.909.529a9.321 9.321 0 0 1-2.338-3.784c-.62-1.479-1.124-3.007-1.652-4.5q-1.809-4.908-3.784-9.741-4.024-9.832-8.7-19.366a2.049 2.049 0 0 0-2.578-.826 2.082 2.082 0 0 0-1.19 2.437c1.454 7.436 2.545 15.028 4.5 22.4A72.7 72.7 0 0 0 72.6 52.547c1.33 3.024 3.206 5.676 6.37 6.924a2.074 2.074 0 0 0 2.536-1.438 2.115 2.115 0 0 0-1.438-2.545c-2.379-.942-3.528-4.04-4.4-6.213a78.928 78.928 0 0 1-3.2-10.113c-1.718-6.907-2.768-13.954-4.131-20.927l-3.756 1.6q5.213 10.633 9.6 21.671c1.413 3.569 2.636 7.221 4.073 10.782a19.944 19.944 0 0 0 2.627 4.866 3.511 3.511 0 0 0 2.586 1.652 3.09 3.09 0 0 0 2.627-1.479 10.558 10.558 0 0 0 1.058-2.7c.33-1.041.636-2.09.909-3.14a63.942 63.942 0 0 0 1.33-6.609l-4.065-.545a57.007 57.007 0 0 1-.925 12.6l3.032-1.231a3.735 3.735 0 0 0-2.908-.364l2.545 1.446-1.909-5.3a2.09 2.09 0 0 0-3.453-.909l-1.19 1.248 3.4.884a44.373 44.373 0 0 1-.826-12.93c.215-4.569.487-9.129.768-13.69a2.066 2.066 0 0 0-2.611-1.991 5.329 5.329 0 0 0-3.3 3.759 9.914 9.914 0 0 0 .479 5.131 32.832 32.832 0 0 1 1.487 10.741l3.85-1.041a36.93 36.93 0 0 1-4.247-12.038l-3.991 1.1q1.388 5.552 2.545 11.162l3.776-1.586-5.907-11.278c-1.1-2.09-4.4-.644-3.776 1.595l2.247 8.1 1.1 3.949.554 1.975.273.983.107.4c.107.554.19.355.256-.611l.909-.537c-.3.124-1.066-.347-1.553-.562l-2.8-1.223a2.148 2.148 0 0 0-2.479.322 2.09 2.09 0 0 0-.322 2.479 39.988 39.988 0 0 0 8.989 9.352l2.09-3.569a13.979 13.979 0 0 1-6.106-5.932l-1.231 3.032c1.305-.3 2.66 1.024 3.544 1.809a2.065 2.065 0 0 0 2.916-2.916 124.21 124.21 0 0 1-8.7-10.815l-2.826 2.834c2.016 1.438 3.354 3.643 4.651 5.709a2.068 2.068 0 0 0 3.776-1.595q-2.627-9.914-4.685-19.9l-3.776 1.586c1.892 3.941 2.826 8.262 3.759 12.509a2.066 2.066 0 1 0 3.982-1.1l-3.346-16.747-3.776 1.595a67.749 67.749 0 0 1 4.963 10.964c.868 2.479 4.676 1.5 3.991-1.1a31.122 31.122 0 0 0-7.27-13.128l-2.008 3.453 8.989 2.66c2.553.752 3.644-3.222 1.1-3.982a59.49 59.49 0 0 1-8.617-3.3l-1.586 3.767a65.007 65.007 0 0 1 9.369 4.172l2.09-3.569a35.42 35.42 0 0 0-9.708-2.652c-2.115-.264-2.7 2.908-1.041 3.85a31.023 31.023 0 0 1 11.666 11.7c1.322 2.338 4.709.281 3.569-2.09a29.331 29.331 0 0 1-2.123-6.081 2.066 2.066 0 1 0-3.982 1.1l4.486 25.166a2.041 2.041 0 0 0 2.264 1.479 2.09 2.09 0 0 0 1.793-2.024c1.181-12.451 3.619-32.436-11.856-37.022-4.048-1.2-8.328-1.058-12.492-.876-2.652.116-2.669 4.247 0 4.131z" fill="#c9c7c3"/></g><path data-name="Path 2718" d="M141.427 127.37c-24.976 1.471-51.835 1.917-75.754 2.9l-.066-1.066 7.436-.463c23.3-1.487 46.308-3.3 69.764-4.618 18.705 7.485 33.172 14.913 50.894 21.77q4.4 1.71 9.088 3.363v.165h-.339l-10.443.686-.149-2.247c-15.846-5.61-35.1-13.079-50.175-20.523z" fill="#8bda80"/><path data-name="Path 2719" d="M202.508 149.421v.364a7129.997 7129.997 0 0 1-3.858 19.763l-1.371 7.138c-8.9 2.3-18.1 3.991-26.108 8.386-14.417 7.915-26.331 23.472-24.711 39.831-12.393 1.52-20.192 3.024-33.709 5.056 4.131-26.157 6.915-49.448 8.683-75.233v-.38h.512c19.044-.826 48.018-2.76 70.094-4.23z" fill="#5fba66"/><path data-name="Path 2720" d="m169.385 222.126-.479.058c.554-11.385 7.147-22.076 16.243-29.016a52.312 52.312 0 0 1 10.641-6.246c-1.652 8.345-5.693 24.736-7.874 32.957-5.816.636-11.401 1.338-18.531 2.247z" fill="#5fba66"/><path data-name="Path 2721" d="m191.916 147.876.149 2.247c-22.076 1.471-51.05 3.379-70.094 4.23l-.1-2.222 15.7-1.041 34.3-2.255c1.381-.089 17.2-.959 20.045-.959z" fill="#8bda80"/><path data-name="Path 2722" d="M191.916 147.877c-2.842 0-18.664.867-20.019.958l-34.3 2.239c1.4-8.336 2.429-15.375 3.825-23.72h.314c15.075 7.444 34.334 14.91 50.18 20.523z" fill="#357735"/><path data-name="Path 2723" d="M179.572 30.16q4.04 9.741 8.262 19.416c-7.229 5.122-15.656 10.74-23.241 15.334q-6.353 3.842-12.723 7.675l-1.743 1.058-.364-.826q-4.214-9.005-8.444-18.011l-.174-.273q19.093-12.327 37.922-25.083z" fill="#5fba66"/><path data-name="Path 2724" d="m179.325 29.284-.215.149q-18.825 12.757-37.925 25.083l-.05-.083q-10.45-4.758-21.23-8.74l.116-.306a78.253 78.253 0 0 0 12.244.091c10.98-.611 18.234-1.776 28.371-6.039 4.172-1.752 8.262-4.04 11.162-7.5a23.392 23.392 0 0 0 2.908-4.461c1.967.815 2.586 1.038 4.619 1.806z" fill="#5fba66"/><path data-name="Path 2725" d="M163.338 22.956a34.748 34.748 0 0 1-3.412 2.933 54.027 54.027 0 0 1-12.219 7.039c-6.155 2.528-9.658 2.966-14.871 3.643 11.41-6.824 13.269-8.006 25.017-15.756 1.792.654 3.544 1.372 5.485 2.141z" fill="#5fba66"/><path data-name="Path 2726" d="M141.427 127.37c-1.4 8.345-2.421 15.384-3.825 23.72l-15.7 1.041-.173-.273c-17.722-7.3-38.972-12.856-56.024-21.588 23.861-.983 50.746-1.429 75.722-2.9z" fill="#357735"/><path data-name="Path 2727" d="m136.048 81.491.43.686c-5.263 3.3-10.517 6.61-15.02 9.361-11.311 6.857-16.706 11.368-26.347 15.7h-.091q-3.867-9.476-7.328-19.118v-.14q19.548-11.8 38.831-24.026h.05q4.488 8.895 9.475 17.537z" fill="#5fba66"/><path data-name="Path 2728" d="m135.536 12.678-.826.76c-6.915 6.61-13.219 16.136-18.375 24.183a7.7 7.7 0 0 0-1.793-1.058c-2.231-.909-4.693-.446-7.047.273a36.807 36.807 0 0 1-7.609-3.751l-.223-.314c10.831-7.717 20.159-14.665 29.908-22.051 1.972.545 4.016 1.338 5.965 1.958z" fill="#5fba66"/><path data-name="Path 2729" d="M104.801 54.739a9.086 9.086 0 0 1-2.09-.273 36.823 36.823 0 0 0 6.213-.5l.091.479a108.053 108.053 0 0 1 15.623 8.468 7.947 7.947 0 0 0 1.884 1q-19.283 12.236-38.831 24.026a49.951 49.951 0 0 1-7.651-3.8q-4.635-2.565-9.4-4.767l-.611-.289.05-.107c11.41-8.3 22.819-16.615 34.7-24.2z" fill="#5fba66"/><path data-name="Path 2730" d="m121.871 152.131.1 2.222h-.508v.38l-.719-.049c-2.346-1.223-20.143-6.7-24.381-8.262-14.144-5.2-19.738-8.782-38.145-16.689v-.141c2.479-.132 4.957-.281 7.436-.421l.066 1.066c17.053 8.733 38.3 14.293 56.024 21.588z" fill="#8bda80"/><path data-name="Path 2731" d="M58.362 142.2c0-4.081-.091-8.2-.173-12.442 18.408 7.907 24 11.492 38.145 16.689 4.238 1.561 22.035 7.039 24.381 8.262l.719.05c-1.768 25.785-4.552 49.076-8.683 75.233-8.692-2.908-16.425-5.106-24.918-8.592v-13.575a57.146 57.146 0 0 0-1-13.07c-1.652-7-5.841-13.136-10.592-18.531a26.436 26.436 0 0 0-5.3-4.866c-2.826-1.818-6.172-2.652-9.452-3.387a77.875 77.875 0 0 0-3.3-.677c.181-8.627.239-16.782.173-25.094z" fill="#5fba66"/><path data-name="Path 2732" d="m95.078 49.692.686 1.082c-5.164 3.3-10.327 6.535-15.466 9.84-6.725 4.337-13.467 8.791-19.06 14.508v.083c-2.569-1.091-5.147-2.148-7.725-3.214l-7.618-3.14a3.844 3.844 0 0 0-.173-.38c10.36-6.1 20.655-12.674 31.635-20.126 5.881.471 11.805.909 17.721 1.347z" fill="#5fba66"/><path data-name="Path 2733" d="M87.691 88.084q3.462 9.642 7.328 19.118c-5.833-2.859-13.963-6.221-19.11-8.609q-3.082-9.369-5.387-19l.107-.223c3.173 1.487 6.312 3.057 9.4 4.767a49.952 49.952 0 0 0 7.651 3.8z" fill="#357735"/><path data-name="Path 2734" d="M72.088 198.761a66.526 66.526 0 0 1-.058 16.111.727.727 0 0 1-.058-.512c-5.4-2.379-9.6-4.057-15-6.428l-.3-.248c.5-8.312.876-14.872 1.157-23.183.975-.289 1.95-.545 2.933-.777 3.478-.438 6.048 1.8 8.064 4.734s2.829 6.684 3.262 10.303z" fill="#5fba66"/><g data-name="Group 7775" transform="translate(56.668 183.67)" clip-path="url(#b)"><path data-name="Path 2735" d="M16.491 12.641a9.361 9.361 0 0 0-4.3-9.385A20.191 20.191 0 0 0 5.813.695c-1-.231-2.016-.4-3.032-.537a65 65 0 0 0-1.8-.223Q-1.498-.676.717.902l-.421 3.23c-1.752.785-1.793 1.041-.124.785a20.944 20.944 0 0 1 6.626.909c2.933.826 5.4 2.4 8.452 2.71 2.883.289 5.2-3.685 3.462-6.031-3-4.057-8.262-5.321-13.112-5.932C1.75-3.906-4.174-4.468-6.669-.684c-2.759 4.18 1.231 8.262 5.337 8.725 4.957.512 11.98.306 15.177 4.957.628.917 2.437.991 2.652-.347z" fill="#357735"/></g><path data-name="Path 2737" d="m67.111 94.298-.545.182c-3.09-1.248-5.973-2.363-10.617-4.5-5.023-7.662-9.088-18.766-10.088-21.129l7.617 3.14c2.578 1.066 5.155 2.123 7.725 3.214l.273.116-.24.554c1.802 6.625 3.884 12.177 5.875 18.423z" fill="#357735"/><path data-name="Path 2738" d="M144.84 103.361c.4-3.214 1.652-6.494 4.28-8.4a5.552 5.552 0 0 1 2.041-.975 4.751 4.751 0 0 1 4.718 1.933 6.2 6.2 0 0 1 .826 5.155 12 12 0 0 1-3.462 5.3 50.892 50.892 0 0 0-4.528 4.528 8.749 8.749 0 0 0-2.041 4.957 7.486 7.486 0 0 0-3.148-3.3 38.808 38.808 0 0 1-4.073-2.479 10.088 10.088 0 0 1-3.751-6.106 6.312 6.312 0 0 1 .644-4.478 3.66 3.66 0 0 1 3.966-1.694 5.081 5.081 0 0 1 2.437 2.016 18.117 18.117 0 0 1 2.041 3.5z" fill="#1ea1f1"/><path data-name="Path 2739" d="M194.948 102.749a11.567 11.567 0 0 1 1.908-5.874 7.609 7.609 0 0 1 4.957-2.983 5.784 5.784 0 0 1 2.627.182c2.346.76 3.751 3.371 3.668 5.841a10.74 10.74 0 0 1-3.024 6.61 72.7 72.7 0 0 1-5.453 4.957 15.7 15.7 0 0 0-4.255 5.593 12.723 12.723 0 0 0-3.974-4.808 29.872 29.872 0 0 1-5.238-4.693 10.98 10.98 0 0 1-1.537-10.286h.05a4.065 4.065 0 0 1 3.9-1.818 6.472 6.472 0 0 1 4.128 3.008 17.067 17.067 0 0 1 2.239 4.271z" fill="#1ea1f1"/><path data-name="Path 2740" d="M206.655 60.25c1.066-1.413 1.933-2.974 3.115-4.288a6.494 6.494 0 0 1 4.668-2.413c2.289 0 4.247 1.9 5.007 4.057a5.783 5.783 0 0 1 .339 2.4c-.2 2.206-1.925 3.916-3.544 5.42-2.322 2.156-6.106 5.833-8.427 7.989-2.66-3.354-7.593-4.85-9.485-8.692a7.5 7.5 0 0 1-.735-3.883 6.048 6.048 0 0 1 3.619-5.164 3.238 3.238 0 0 1 1.5-.215 3.3 3.3 0 0 1 1.314.5 5.676 5.676 0 0 1 2.627 4.28z" fill="#1ea1f1"/><path data-name="Path 2741" d="M273.725 53.335a32.8 32.8 0 0 1-4.131 2.6 24.3 24.3 0 0 0-4.734 3.784 5.115 5.115 0 0 0-.826 1.057 6.68 6.68 0 0 0-2.677-4.627 42.412 42.412 0 0 1-4.519-3.685 7.89 7.89 0 0 1-2.049-5.37 6.609 6.609 0 0 1 2.5-5.081 5.651 5.651 0 0 1 5.577-.677c2.313 1.033 3.5 3.544 4.3 5.973l.149-.05a25.1 25.1 0 0 1 2.569-3.189 7.874 7.874 0 0 1 3.3-2.313 3.453 3.453 0 0 1 3.718 1.016 5.147 5.147 0 0 1 .719 2.751 11.671 11.671 0 0 1 0 2.28 8.924 8.924 0 0 1-3.896 5.531z" fill="#1ea1f1"/><path data-name="Path 2742" d="m103.934 38.026-2.388.826-.438.149a179.599 179.599 0 0 0-3.966-4.4c.826-.6 1.7-1.206 2.536-1.809l.223.314a36.808 36.808 0 0 0 7.609 3.751c-.537.157-1.066.339-1.586.512z" fill="#c9c7c3"/><path data-name="Path 2743" d="M157.844 20.758c-11.748 7.75-13.607 8.931-25.017 15.756-1.5.19-3.131.4-5.007.694 5.849-5.073 11.625-10.2 18.094-14.45 2.181-1.429 4.387-2.842 6.7-4.048 1.917.751 3.594 1.404 5.23 2.048z" fill="#f4f1ec"/><path data-name="Path 2744" d="M126.572 63.935q7.32-4.635 14.6-9.336l.173.273 8.444 18.011.364.826c-4.2 2.569-8.931 5.552-13.657 8.535l-.43-.686q-5-8.717-9.494-17.623z" fill="#f4f1ec"/><path data-name="Path 2745" d="M58.172 129.592v.132c.083 4.238.14 8.361.173 12.442a20.58 20.58 0 0 1-3.487-7.163c-2.33-7.618-2.479-16.8-1.231-24.67a59.493 59.493 0 0 0 4.478 7 21.805 21.805 0 0 0 2.834 3.123c.281 0 3.4-4.073 4.47-5.3 2.148-2.479 3.14-4.858 5.288-7.312a58.908 58.908 0 0 0 2.346 20.323v.57l-7.436.463c-2.478.145-4.957.293-7.435.392z" fill="#c9c7c3"/><path data-name="Path 2746" d="M72.936 215.702c3.453 1.975 6.61 4.048 10.418 5.3 1.578.521 2.916 1.446 4.461.826v-14.011a57.146 57.146 0 0 0-1-13.07 31.983 31.983 0 0 0-2.479-6.8 15.7 15.7 0 0 0-7.89-5.114c-4.048-1.2-8.328-1.057-12.492-.876a2.016 2.016 0 0 0-1.95 1.7c2.834.19 5.015 2.214 6.767 4.775 2.065 3.007 2.842 6.7 3.3 10.319a66.525 66.525 0 0 1-.058 16.111 2.28 2.28 0 0 0 .917.843z" fill="#c9c7c3"/><path data-name="Path 2747" d="M68.813 188.443c-2.016-2.933-4.585-5.172-8.064-4.734-.983.231-1.958.487-2.933.777a550.013 550.013 0 0 1-.289 7.378c4.668.364 10.228.768 12.971 4.775a1.718 1.718 0 0 0 1.388.669 20.829 20.829 0 0 0-3.073-8.865z" fill="#357735"/><path data-name="Path 2748" d="M225.476 180.734a45.265 45.265 0 0 0-4.676-.826 41.314 41.314 0 0 0-7.494.165 82.319 82.319 0 0 0-15.07 2.76 72.92 72.92 0 0 0-24.356 11.748c-10.22 7.717-17.6 19.176-18.887 31.4 4.42-.388 9.3-.934 11.03-1.148a6.4 6.4 0 0 0 2.024-.512c.289-.934.595-1.859.917-2.784.76-11.145 7.262-21.572 16.185-28.38a52.311 52.311 0 0 1 10.641-6.246 72.7 72.7 0 0 1 22.852-5.643c2.289-.196 4.553-.34 6.834-.534z" fill="#c9c7c3"/><path data-name="Path 2749" d="M195.791 186.922a49.828 49.828 0 0 0-3.652 1.793 1.518 1.518 0 0 0 0 .19l-1.483.627a50.155 50.155 0 0 0-5.494 3.635 42.491 42.491 0 0 0-14.252 19.2 2.255 2.255 0 0 0 1.165-.768c5.9-7.155 13.4-11.5 21.6-14.921.819-3.708 1.645-7.129 2.116-9.756z" fill="#357735"/><path data-name="Path 2750" d="M220.816 144.514c-6.866-2.2-13.9-3.4-20.837-5.1-2.214 2.074-4.726 3.883-6.246 6.477q4.4 1.71 9.088 3.363v.165h-.339v.364a7129.997 7129.997 0 0 1-3.858 19.763l1.281.248c2.636-4.7 6.9-8.262 10.848-11.906a59.786 59.786 0 0 0 10.964-12.938 4.222 4.222 0 0 0-.901-.436z" fill="#c9c7c3"/><path data-name="Path 2751" d="M96.713 49.989a8.956 8.956 0 0 1-1.157-3.957 7.237 7.237 0 0 1 .479-2.834c-.091-.058-.165-.116-.256-.165a49.458 49.458 0 0 0-5.164-2.412c-14.252-1.768-25.149-4.412-38.244-10.3a30.685 30.685 0 0 1-4.957-2.669c-5.189-1.429-10.294-1.57-14.632 2.255-2.718 2.4-1.429 6.246 1.041 8.072a16.2 16.2 0 0 0 3.354 1.793 31.677 31.677 0 0 0 8.072 4.759 19.206 19.206 0 0 0 2.553.826c1.223.174 2.479.322 3.677.463 8.584 1 17.193 1.785 25.81 2.479 5.916.479 11.839.917 17.755 1.355l.669 1.049a3.618 3.618 0 0 0 1-.714z" fill="#c9c7c3"/><path data-name="Path 2752" d="M176.078 24.435c-.165-3.173-1.545-6.221-4.337-7.642a5.511 5.511 0 0 0-3.726-1.4v.14a17 17 0 0 1-4.66 7.436 34.736 34.736 0 0 1-3.412 2.933 54.024 54.024 0 0 1-12.236 7.031c-6.155 2.528-9.658 2.966-14.871 3.643-1.5.19-3.131.4-5.007.694l1.924-1.652a74.526 74.526 0 0 0-7.254 3.462 4.181 4.181 0 0 0-1.479 5.643 6.778 6.778 0 0 0 .595.876 78.871 78.871 0 0 0 10.658 0c10.98-.611 18.234-1.776 28.371-6.039 4.172-1.752 8.262-4.04 11.162-7.5a23.389 23.389 0 0 0 2.908-4.461c.496-1.09.943-2.107 1.364-3.164z" fill="#c9c7c3"/><path data-name="Path 2753" d="M111.878 53.046a14.731 14.731 0 0 0 7.18-6.395.315.315 0 0 1 .066-.14 1.553 1.553 0 0 0-1.355-.2c-3.991 1.33-7.907 2.206-12.071 1.074a.686.686 0 0 0-.529 1.248 15.914 15.914 0 0 0 3.842 1.991c-3.635 1.281-7.328 1.4-11-1.719a1.446 1.446 0 0 0-1.834-.066 12.2 12.2 0 0 0 .6 1.289 11.642 11.642 0 0 0 1.008 1.5 9.2 9.2 0 0 0 4.957 2.834 36.827 36.827 0 0 0 6.213-.5 14.194 14.194 0 0 0 2.925-.925z" fill="#c9c7c3"/><path data-name="Path 2754" d="M119.897 45.726h-.05l-.306-.116a9.4 9.4 0 0 1-.479 1.058 14.731 14.731 0 0 1-7.18 6.395 13 13 0 0 1-2.28.768 1.793 1.793 0 0 0 .058.934 68.405 68.405 0 0 1 3.495 1.652 9.369 9.369 0 0 0 6.428-2.536c1.809-1.6 3.685-4.247 3.817-6.791a81.391 81.391 0 0 0-3.503-1.364z" fill="#c9c7c3"/><path data-name="Path 2755" d="M104.802 54.781a9.089 9.089 0 0 1-2.09-.273 9.2 9.2 0 0 1-4.957-2.834 11.639 11.639 0 0 1-1.008-1.5l-1.016.644-2.231 1.413a2.577 2.577 0 0 0 .364.471c.785 2.883 4.288 4.131 7.3 4.4 1.259-.784 2.449-1.561 3.638-2.321z" fill="#c9c7c3"/><path data-name="Path 2756" d="m95.763 50.774-.686-1.082-13.5-1.025-5.255.347c-6.5 4.387-12.748 8.477-18.92 12.335 6.857.768 14.384-.884 20.944-2.049 1.776-.322 3.66-.628 5.569-1q5.918-3.775 11.848-7.526z" fill="#357735"/><path data-name="Path 2757" d="M174.665 27.508a23.392 23.392 0 0 1-2.908 4.461 21.976 21.976 0 0 1-4.371 3.883c2.479-1.305 4.883-2.619 7.328-3.916a23.424 23.424 0 0 0 4.28-2.768c-1.752-.677-2.421-.916-4.329-1.66z" fill="#357735"/><path data-name="Path 2758" d="M128.2 48.94c10.435-.355 21.117-3.668 30.28-8.378l1.884-.983c-10 4.131-17.226 5.321-28.091 5.932a79.174 79.174 0 0 1-9.914.066l-.487.24a1.52 1.52 0 0 0-.537.438q3.436 1.305 6.865 2.685z" fill="#357735"/><path data-name="Path 2759" d="M47.531 68.909c3.04 2.479 7.684 4.362 11.459 5.362 1 .264 1.71-1.239.727-1.727-1.793-.876-3.718-1.462-5.585-2.181a34.108 34.108 0 0 0-6.238-2.074c-.322-.05-.686.364-.364.62z" fill="#8bda80"/><path data-name="Path 2760" d="M124.737 63.852c-6.758 3.3-13.087 7.436-19.49 11.459-5.833 3.619-12.723 6.8-17.838 11.368a.584.584 0 0 0 .562.975c6.4-2.479 12.393-7.163 18.176-10.741a215.992 215.992 0 0 0 18.929-12.391.372.372 0 0 0-.372-.636z" fill="#8bda80"/><path data-name="Path 2761" d="M157.736 42.272a142.305 142.305 0 0 0-17.656 10.914.719.719 0 0 0 .711 1.223 74.53 74.53 0 0 0 17.243-11.748c.231-.2-.058-.545-.314-.4z" fill="#8bda80"/><path data-name="Path 2762" d="M101.464 33.043c4.627-4.222 10.873-7.072 16.02-10.641 4.817-3.3 9.41-6.94 14.045-10.534.826-.661-.3-2.165-1.165-1.5-5.205 3.957-10.584 7.717-15.962 11.426-4.841 3.3-9.584 6.279-13.682 10.517a.523.523 0 1 0 .744.735z" fill="#8bda80"/><path data-name="Path 2763" d="M119.219 156.031c-1.074 15.78-3.61 31.684-3.371 47.531 0 .752 1.248.992 1.371.19 2.388-15.7 2.041-31.883 3.123-47.721.05-.719-1.074-.719-1.123 0z" fill="#8bda80"/><path data-name="Path 2764" d="M58.676 131.072c4.354 5.222 12.244 7.551 18.465 9.65 7.708 2.611 15.086 5.222 22.307 9.088a1.1 1.1 0 0 0 1.107-1.9c-5.841-4.486-13.327-6.692-20.217-8.989-3.462-1.148-6.932-2.289-10.311-3.677-3.685-1.512-7.072-3.652-10.741-5.155-.62-.248-.925.6-.587 1.008z" fill="#8bda80"/><path data-name="Path 2765" d="M65.607 139.507c3.09 1.38 6.18 2.759 9.311 4.057.43.182.752-.562.322-.76-3.057-1.38-6.147-2.685-9.237-3.991-.462-.19-.875.479-.396.694z" fill="#8bda80"/><path data-name="Path 2766" d="M67.383 142.877c2.2.934 4.329 2.008 6.51 2.966a.454.454 0 1 0 .355-.826c-2.214-.892-4.47-1.652-6.676-2.578-.256-.107-.446.339-.19.446z" fill="#8bda80"/><path data-name="Path 2767" d="M121.367 156.13c5.428 1.785 11.682 1.132 17.292.727 6.254-.454 12.492-1.157 18.73-1.76 12.021-1.173 24.174-1.958 36.1-3.924 1.041-.174.826-1.859-.248-1.826-11.963.347-23.96 1.908-35.849 3.049-5.965.578-11.939 1.206-17.92 1.7s-12.013 0-17.92.7a.678.678 0 0 0-.182 1.33z" fill="#8bda80"/><path data-name="Path 2768" d="M133.628 161.078c8.625-.826 17.449-1.214 25.992-2.693.554-.1.421-1.008-.132-.983-8.609.281-17.292 1.719-25.86 2.636-.661.066-.669 1.104 0 1.04z" fill="#8bda80"/><path data-name="Path 2769" d="M139.056 164.153a70 70 0 0 0 10.741-1.074c.463-.083.363-.884-.116-.826-3.536.454-7.056.9-10.625 1.058-.537 0-.545.868 0 .826z" fill="#8bda80"/><path data-name="Path 2770" d="M29.371 16.751c3.61-2.793 8.262-4.073 12.682-4.866 5.61-1.008 9.865.306 15.095 2.09 4.313 1.471 8.617 2.991 12.8 4.825 4.313 1.892 8.138 4.569 12.343 6.61a1.314 1.314 0 0 0 1.586-2.049c-7.031-7.155-19.25-10.46-28.52-13.475-9.014-2.925-20.11-1.347-26.438 6.238-.273.322.1.942.5.636z" fill="#fff"/><path data-name="Path 2771" d="M137.04 13.76a44.565 44.565 0 0 1 16.524-9.022c6.5-1.834 12.236-1.115 18.8-.479a.826.826 0 0 0 .413-1.512c-12.393-6.32-27.4 1.933-36.41 10.352-.446.421.2 1.041.653.661z" fill="#fff"/><path data-name="Path 2772" d="M12.475 194.143c5.726 2.941 13.574 2.057 19.382-.223 7.89-3.1 15.574-6.676 23.472-9.741a.407.407 0 0 0-.215-.785 104.5 104.5 0 0 0-21.555 6.51 51.032 51.032 0 0 1-9.262 3c-3.908.777-7.733.364-11.658.611a.338.338 0 0 0-.164.628z" fill="#fff"/><path data-name="Path 2773" d="M5.84 183.295a60.544 60.544 0 0 0 16.144 5.783 1.149 1.149 0 1 0 .611-2.214c-5.139-1.776-11.154-4.4-16.7-3.726-.091 0-.149.141-.058.19z" fill="#fff"/><path data-name="Path 2774" d="M21.414 188.327c-1 1.124-2.916 1.586-4.271 2.231l-4.957 2.479a1.173 1.173 0 0 0 .587 2.165 14 14 0 0 0 6.312-2.479 7.435 7.435 0 0 0 3.476-3.785c.264-.636-.7-1.148-1.14-.661z" fill="#fff"/><path data-name="Path 2775" d="M222.229 132.344c3.363 2.107 7.32 3.206 10.906 4.858 2.809 1.305 5.346 2.586 8.46 2.908 1.355.132 1.652-2.181.322-2.4-6.783-1.082-12.393-6.147-19.374-6.5a.611.611 0 0 0-.314 1.132z" fill="#fff"/><path data-name="Path 2776" d="M240.338 127.114c-.066 2.132.521 4.238.512 6.378 0 1.983-.653 3.883-.653 5.825a.876.876 0 0 0 1.487.611c1.553-1.52 1.314-3.949 1.124-5.973-.231-2.379-.463-4.957-1.793-7.023a.364.364 0 0 0-.678.182z" fill="#fff"/><path data-name="Path 2777" d="M240.818 127.403c1.231 3.982 3.635 7.485 4.957 11.435s2.107 8 3.09 12.021a.727.727 0 0 0 1.429-.19c.182-4.643-1.314-8.782-3.156-12.963-1.652-3.668-3.239-7.5-5.874-10.567a.273.273 0 0 0-.454.264z" fill="#fff"/></g><g data-name="Layer 4" opacity=".5" fill="#fff"><path data-name="Path 2778" d="M149.259 97.115a2.636 2.636 0 0 1 4.635.463c.611 1.413.05 2.9-.62 4.189a.578.578 0 0 0 .909.7 4.833 4.833 0 0 0-.05-6.61 3.181 3.181 0 0 0-4.957 1.206.056.056 0 0 0 .1.041z"/><path data-name="Path 2779" d="M152.439 104.022a3.3 3.3 0 0 0-.306.281 1.4 1.4 0 0 0-.273.471.446.446 0 0 0 .826.24 2.558 2.558 0 0 0 .091-.421.607.607 0 0 1 .058-.314.264.264 0 0 0-.438-.256z"/><path data-name="Path 2780" d="M198.814 96.487c1.652-1.008 4.957-1.305 5.783.975.644 1.793-.215 4-.578 5.783a.322.322 0 0 0 .595.248c1.256-1.859 2.421-5.783.43-7.535-1.842-1.652-4.635-.95-6.329.446 0 0 0 .116.066.083z"/><path data-name="Path 2781" d="M203.085 105.344a.406.406 0 0 0-.1.107.627.627 0 0 0-.091.116l-.05.066a.924.924 0 0 0-.165.339.521.521 0 0 0 .76.587 1.049 1.049 0 0 0 .33-.33.6.6 0 0 0 .091-.314.6.6 0 0 0-.149-.38.446.446 0 0 0-.446-.116.628.628 0 0 0-.355.281c.107-.132 0-.05 0 0s.083-.058 0 0h-.036l.752.306a.117.117 0 0 0 0-.05v.041c0-.033.1-.132 0 0a.413.413 0 0 0 0-.578.421.421 0 0 0-.57 0z"/><path data-name="Path 2782" d="M216.712 62.018a4.419 4.419 0 0 0-.438-6.42c-1.9-1.413-5.527-.744-6.163 1.793-.157.595.653 1.165 1.1.644 1.148-1.355 2.363-2.272 4.131-1.256a3.644 3.644 0 0 1 1.239 5.155c0 .066.058.14.107.083z"/><path data-name="Path 2783" d="m208.886 59.152-.05.091.4-.231h-.058a.628.628 0 1 0 0 1.256.826.826 0 0 0 .661-.3.631.631 0 0 0 .1-.157.718.718 0 0 0 .1-.256.512.512 0 0 0 0-.273.586.586 0 0 0-.083-.264.826.826 0 0 0-.339-.289.661.661 0 0 0-.454 0 .752.752 0 0 0-.421.322l-.074.124.107-.149c-.041.058-.1.116-.132.174a.735.735 0 0 0-.091.289v-.008l1.058-.273-.066-.058.124.454v-.095a.454.454 0 0 0-.826-.347z"/><path data-name="Path 2784" d="M268.793 47.188a24.668 24.668 0 0 1 2.627-2.371 8.538 8.538 0 0 1 1.38-.983 7.073 7.073 0 0 1 1.917-.339.215.215 0 0 0 .091-.364c-2.132-1.776-5.23 2.479-6.2 3.908-.088.116.094.256.185.149z"/><path data-name="Path 2785" d="m275.344 44.28.157.132a.4.4 0 0 0 .421.14.314.314 0 0 0 .231-.306.421.421 0 0 0-.314-.388 2.023 2.023 0 0 0-.215-.05.289.289 0 0 0-.322.124.3.3 0 0 0 .042.348z"/></g><g data-name="Layer 3" fill="#231f20"><path data-name="Path 2786" d="M57.519 184.496q-.9 11.567-1.776 23.183c-.091 1.19 1.809 1.2 1.859 0 .322-7.7.6-15.475.537-23.183a.314.314 0 0 0-.62 0z"/><path data-name="Path 2787" d="M57.882 129.758c-.091 12.5-.587 25.042-.6 37.526a.934.934 0 0 0 1.859 0c.446-12.393-.066-25.116-.636-37.526a.314.314 0 0 0-.62 0z"/><path data-name="Path 2788" d="M87.642 222.128c8.526 1.851 16.342 6.684 24.959 8.444.587.116 1.049-.744.43-1.033-7.865-3.71-17.4-4.131-24.835-8.733-.909-.562-1.586 1.1-.554 1.322z"/><path data-name="Path 2789" d="M56.97 208.65c2.421.124 6.3 2.586 8.609 3.66a35.608 35.608 0 0 0 6.238 2.586.57.57 0 0 0 .438-1.033 32.51 32.51 0 0 0-6.172-2.743c-2.479-.95-6.775-1.917-8.6-3.7-.95-.925-1.9 1.165-.512 1.231z"/><path data-name="Path 2790" d="M120.904 154.378c-.826 12.6-1.842 25.133-3.3 37.683-.76 6.609-1.768 13.1-2.941 19.622-1.082 6-2.7 12.211-2.892 18.317a.975.975 0 0 0 1.909.256c1.652-5.841 1.975-12.327 2.578-18.358.636-6.37 1.281-12.723 2.032-19.085 1.5-12.765 2.809-25.612 3.726-38.435.05-.711-1.066-.711-1.115 0z"/><path data-name="Path 2791" d="M168.883 222.696c3.553-.463 7.105-.38 10.674-.628 2.908-.207 5.684-1.024 8.559-1.5.826-.132.6-1.438-.19-1.4a80.119 80.119 0 0 0-8.088.413c-3.685.562-7.246 1.652-10.955 2.1-.647.081-.655 1.106 0 1.015z"/><path data-name="Path 2792" d="M112.881 230.479c11.269-1.735 22.522-2.941 33.767-4.858.785-.132.6-1.462-.19-1.4a142.345 142.345 0 0 0-16.111 1.793c-5.924 1.157-11.757 2.586-17.738 3.478-.645.103-.372 1.086.272.987z"/><path data-name="Path 2793" d="M195.435 186.81c-1.421 5.676-2.726 11.377-4.131 17.053-1.256 5.056-3.726 10.8-3.9 16.012a.521.521 0 0 0 .967.256c2.413-4.577 2.991-10.906 4.181-15.921 1.347-5.692 2.751-11.41 3.61-17.193.066-.463-.6-.677-.719-.207z"/><path data-name="Path 2794" d="M202.176 149.702c-1.206 4.668-2.082 9.427-3.04 14.144-.826 4.238-2.173 8.617-2.388 12.93a.52.52 0 0 0 1.016.141c1.562-4.461 2.033-9.534 2.892-14.186.826-4.3 1.652-8.592 2.256-12.93.057-.421-.628-.495-.736-.099z"/><path data-name="Path 2795" d="M121.457 154.734c13.731-.587 27.454-1.5 41.177-2.181s27.52-1.231 41.153-2.66c.678-.074.711-1.107 0-1.082-27.454.752-54.876 3.933-82.33 5.205-.454-.001-.454.734 0 .718z"/><path data-name="Path 2796" d="M58.682 130.807a.066.066 0 1 0-.076-.022.066.066 0 0 0 .076.022z"/><path data-name="Path 2797" d="M57.962 130.155c11.823 5.593 23.761 11.476 35.89 16.392 4.478 1.818 9.088 3.239 13.715 4.676 4.288 1.338 8.568 3.3 12.938 4.255.711.165 1.454-.826.777-1.338-2.85-2.272-7.436-2.933-10.864-4.081-4.784-1.652-9.617-3.123-14.384-4.792-12.946-4.519-24.984-10.98-37.724-15.946-.471-.182-.826.611-.347.826z"/><path data-name="Path 2798" d="M58.171 130.083c14.392-.686 28.768-1.652 43.144-2.611q10.55-.7 21.1-1.371c6.833-.43 13.814-.421 20.589-1.38.719-.107.512-1.215-.165-1.239-7.039-.215-14.219.7-21.233 1.19s-14.045 1.016-21.1 1.537q-21.167 1.562-42.334 2.95c-.588.003-.596.953-.001.924z"/><path data-name="Path 2799" d="M142.649 124.446c19.829 8.634 39.4 18.845 60.056 25.3.636.2.867-.744.273-.975-20.159-7.964-39.723-17.507-60.031-25.017-.408-.151-.694.518-.298.692z"/><path data-name="Path 2800" d="M97.432 35.084c6.073-3.668 11.765-8.155 17.433-12.393 5.048-3.809 10.336-7.436 15.111-11.567a.532.532 0 0 0-.661-.826c-5.651 3.7-10.914 8.039-16.392 11.988s-11.046 7.675-16.193 11.938c-.512.421.149 1.239.7.909z"/><path data-name="Path 2801" d="M45.976 68.975a152.414 152.414 0 0 0 16.293-9.815c5.263-3.445 10.534-6.61 15.442-10.435.5-.388-.14-1.165-.661-.826-5.527 3.23-10.741 7-16.177 10.385-5.147 3.214-10.526 6.221-15.483 9.724a.58.58 0 1 0 .587 1z"/><path data-name="Path 2802" d="M45.382 68.653c3.536 7.056 5.412 15.252 10.327 21.572.248.33.719-.091.545-.421-2.322-4.519-4.957-8.749-6.957-13.442-1.148-2.652-2.049-5.469-3.3-8.064-.19-.4-.826-.05-.6.355z"/><path data-name="Path 2803" d="M55.742 90.331c6.56 3.14 13.327 5.783 19.911 8.89 6.3 2.958 12.789 6.106 19.325 8.5.545.2.826-.628.388-.917-6.006-3.693-13.054-6.039-19.465-8.972S62.682 92.47 56.163 89.62c-.479-.207-.909.479-.421.711z"/><path data-name="Path 2804" d="M95.35 107.633c7.254-3.09 13.731-7.337 20.382-11.567 7.882-4.957 15.846-9.832 23.737-14.8 16.317-10.278 33.543-19.449 48.795-31.321.52-.4-.157-1.256-.7-.909-16.449 10.484-33.048 20.721-49.572 31.123-7.5 4.726-15.128 9.278-22.563 14.1-6.75 4.379-13.335 8.989-20.564 12.55-.537.264-.066 1.008.454.785z"/><path data-name="Path 2805" d="M174.375 28.07c1.537.711 3.3 1.776 5.04 1.958.768.083.868-.958.355-1.322a9.963 9.963 0 0 0-2.429-1c-.826-.306-1.652-.562-2.479-.826-.694-.223-1.181.884-.5 1.2z"/><path data-name="Path 2806" d="M152.429 19.345c3.495 1.438 7.064 3.3 10.741 4.288a.711.711 0 0 0 .545-1.289c-3.346-1.867-7.3-2.974-10.914-4.255-.826-.281-1.1.95-.347 1.256z"/><path data-name="Path 2807" d="M129.413 11.348c1.966.661 4.065 1.826 6.13 2.032.719.074.925-.983.355-1.314a23.6 23.6 0 0 0-6.139-1.975.653.653 0 0 0-.347 1.256z"/><path data-name="Path 2808" d="M87.914 88.283c15.83-9.4 31.577-18.854 47.093-28.785q11.443-7.337 22.8-14.822c7.32-4.833 15.169-9.386 21.985-14.871.578-.471-.157-1.347-.768-1-7.857 4.371-15.185 10.005-22.7 14.954s-15.177 9.914-22.819 14.805c-15.268 9.766-30.569 19.581-45.986 29.074a.4.4 0 0 0 .4.686z"/><path data-name="Path 2809" d="M87.476 88.142c1.809 6.353 4.073 13.673 7.361 19.424a.306.306 0 0 0 .562-.24c-1.652-6.469-4.825-13.219-7.5-19.358-.109-.239-.497-.065-.423.174z"/><path data-name="Path 2810" d="M45.381 68.999c7.2 3.42 14.64 6.3 21.911 9.559 6.8 3.04 13.269 7.386 20.275 9.865.611.223.826-.719.264-.958-7.543-3.148-14.483-7.667-21.985-10.988-6.61-2.933-13.368-5.668-20.209-8.072a.33.33 0 0 0-.256.595z"/><path data-name="Path 2811" d="M179.224 30.25a167.237 167.237 0 0 0 8.105 19.622c.306.587 1.314.182 1.082-.454-2.379-6.61-5.536-13.1-8.526-19.449-.175-.371-.826-.107-.661.281z"/><path data-name="Path 2812" d="M105.652 54.342c-5.188-.306-11.071-4.6-9.129-10.567 1.4-4.263 10.964-7.237 15.21-6.973 3.065.19 7.312 3.049 7.436 6.568.074 2.479-2.032 4.957-3.751 6.436-3.668 3.123-8.039 3.834-12.69 4.024a.636.636 0 1 0 0 1.272c6.957-.124 14.8-1.6 17.573-9.088 2.008-5.4-3.1-10.831-8.551-10.741-3.792.074-8.328 1.991-11.773 3.462-2.669 1.14-4.594 2.925-5 5.932-.826 6.254 4.767 10.955 10.691 10.369a.372.372 0 0 0 0-.735z"/><path data-name="Path 2813" d="M103.983 37.43c-3.115 2.14-2.71 6.444-.677 9.22 2.561 3.5 7.171 4.4 11.145 3.115a.654.654 0 0 0-.339-1.264c-3.057.826-6.535.644-8.915-1.652-2.247-2.214-3.4-6.337-.661-8.658.4-.33-.124-1.016-.554-.719z"/><path data-name="Path 2814" d="M107.247 47.213a10.755 10.755 0 0 0 12.674-1.512c.306-.3-.1-.867-.463-.6-3.6 2.669-7.675 3.495-11.872 1.537-.38-.185-.719.376-.339.575z"/><path data-name="Path 2815" d="M108.841 55.103a91.966 91.966 0 0 1 10.658 5.288c2.421 1.4 4.85 3.569 7.609 4.181a.527.527 0 0 0 .281-1.016c-3.14-.744-6.2-3.453-8.989-5.065-2.949-1.7-5.973-3.148-9.039-4.635a.677.677 0 1 0-.521 1.248z"/><path data-name="Path 2816" d="M119.606 46.147c6.957 3.23 14.26 5.99 21.382 8.857.562.231.958-.711.413-.983a121.758 121.758 0 0 0-21.415-8.774c-.528-.15-.9.66-.38.9z"/><path data-name="Path 2817" d="M140.915 55.078c2.636 6.089 5.552 12.054 8.353 18.061.322.686 1.338.091 1.016-.595-2.817-5.99-5.552-12.038-8.543-17.945-.281-.562-1.067-.078-.826.479z"/><path data-name="Path 2818" d="M126.002 64.05c2.875 6.048 6.106 11.988 9.5 17.763a.636.636 0 0 0 1.091-.644c-3.3-5.858-6.444-11.765-9.617-17.689-.346-.644-1.288-.074-.974.57z"/><path data-name="Path 2819" d="M96.295 50.732a.207.207 0 1 0-.207-.207.207.207 0 0 0 .207.207z"/><path data-name="Path 2820" d="M96.663 49.798c-6.824 4.024-13.649 8.171-20.25 12.558-5.445 3.61-11.236 7.436-15.565 12.393a.554.554 0 0 0 .777.777c11-9.609 23.323-16.987 35.378-25.133a.347.347 0 0 0-.347-.595z"/><path data-name="Path 2821" d="M104.562 54.359c-12.145 6.882-23.621 15.747-34.824 24.092-.62.463 0 1.52.611 1.058 5.783-4.081 11.426-8.262 17.177-12.393s11.765-7.816 17.491-11.93c.5-.364.066-1.157-.487-.826z"/><path data-name="Path 2822" d="M60.955 75.95a131.189 131.189 0 0 0 5.577 18.606c.264.76 1.454.454 1.223-.339-1.809-6.188-4.007-12.393-6.229-18.424a.3.3 0 0 0-.57.157z"/><path data-name="Path 2823" d="M70.192 79.69a182.911 182.911 0 0 0 5.131 19.044c.231.76 1.438.421 1.181-.322-2.14-6.213-3.776-12.608-5.635-18.912a.355.355 0 0 0-.677.19z"/><path data-name="Path 2824" d="M131.788 37.521c9.369-4.3 17.656-10.823 26.256-16.4.438-.289 0-.991-.413-.7-8.526 5.726-17.986 10.352-26.174 16.524a.326.326 0 0 0 .33.562z"/><path data-name="Path 2825" d="M95.345 48.716a.454.454 0 1 0-.454-.454.454.454 0 0 0 .454.454z"/><path data-name="Path 2826" d="M99.663 33.49a25.124 25.124 0 0 0 7.807 3.809c.487.132.826-.611.355-.826-2.611-1.206-5.189-2.338-7.684-3.776a.478.478 0 0 0-.479.826z"/><path data-name="Path 2827" d="M101.497 38.595c-7.494-9.187-16.144-16.9-26.645-22.439-10.741-5.668-22.15-10.047-34.394-7.105-9.56 2.305-18.722 9.088-16.949 20.035s13.93 15.409 23.538 16.863a460.485 460.485 0 0 0 48.035 4.486c.967.041.934-1.4 0-1.5-14.987-1.5-30.032-2.123-45-3.916-7.312-.876-15.252-2.181-20.655-7.609s-6.444-14.045-1.371-20.151c4.841-5.783 13.946-7.882 21.184-7.816 7.832.074 14.871 3.206 21.795 6.61 11.8 5.783 20.779 13.8 29.743 23.3.487.521 1.2-.231.768-.76z"/><path data-name="Path 2828" d="M95.771 43.544c-5.783-4.957-13.69-8.692-20.729-11.567a86.833 86.833 0 0 0-21.6-5.957c-4.891-.636-25.918-.9-22.192 9.2a.653.653 0 1 0 1.256-.355c-1.19-5.445 6.138-6.915 10.154-7.518 5.949-.884 12.013.116 17.8 1.487a100.622 100.622 0 0 1 17.474 5.684c6.13 2.71 11.509 6.61 17.466 9.534.289.14.653-.248.372-.479z"/><path data-name="Path 2829" d="M45.629 26.831c5.6 4.833 13.74 7.337 20.7 9.493a102.8 102.8 0 0 0 24.315 4.866.562.562 0 0 0 .149-1.1c-7.651-1.528-15.293-2.371-22.811-4.594-7.328-2.173-15.59-4.718-21.787-9.394-.413-.322-.958.388-.562.727z"/><path data-name="Path 2830" d="M116.723 37.827c6.816-10.559 14.244-21.7 24.687-29.008 10.253-7.18 29.693-12.988 35.526 2.644 2.421 6.5-1.231 15.045-5.527 20.093s-11.187 7.758-17.457 9.757c-10.8 3.437-22.638 4.131-33.874 3.47-.826-.05-.826 1.2 0 1.272a87.328 87.328 0 0 0 32.4-2.933c10.187-3.049 19.6-7.51 23.869-17.8 1.793-4.3 3.487-9.088 2.09-13.7a16.392 16.392 0 0 0-8.526-10.005c-9.3-4.263-21.341.669-29.107 6.039-10.807 7.485-17.871 18.821-24.786 29.743-.3.471.438.892.735.43z"/><path data-name="Path 2831" d="M120.363 44.098c7.882-6.3 15.144-13.417 23.423-19.226a61.361 61.361 0 0 1 12.393-7.13c5.23-2.074 17.532-4.891 17.6 4.3a.578.578 0 0 0 1.132.157c.991-4.47-2.9-7.312-6.948-7.766-5.271-.595-10.939 1.38-15.541 3.776-12.294 6.4-22.026 16.6-32.717 25.207-.487.4.207 1.074.694.686z"/><path data-name="Path 2832" d="M167.493 15.379c-2.983 7.973-11.451 12.963-18.912 16.226-6.857 3.007-13.723 3.528-20.977 4.9-.826.157-.636 1.553.2 1.462 8.179-.884 16.094-2.14 23.547-5.783 6.849-3.379 15-8.683 17.16-16.524a.528.528 0 0 0-1.018-.281z"/><path data-name="Path 2833" d="M65.441 130.659a223.077 223.077 0 0 0 27.091 11.494c9.551 3.462 19.192 7.717 28.917 10.484a.826.826 0 0 0 .611-1.471c-8.262-4.511-18.176-6.841-27.058-9.914-9.914-3.371-19.746-6.816-29.14-11.418a.474.474 0 0 0-.463.826z"/><path data-name="Path 2834" d="M65.673 130.567c25.257-.934 50.91.165 76.068-2.479.967-.1 1.016-1.553 0-1.545-12.806.173-25.612 1.264-38.426 1.743-12.55.471-25.091 1.091-37.641 1.652-.388 0-.388.62 0 .6z"/><path data-name="Path 2835" d="M141.517 127.733c7.907 3.957 16 7.535 24.158 10.947 8.493 3.553 17.168 7.361 26.083 9.766.628.173 1.091-.826.454-1.091-7.841-3.478-16.111-6.089-24.117-9.187-8.84-3.42-17.581-7.089-26.133-11.2-.511-.251-.957.509-.445.765z"/><path data-name="Path 2836" d="M121.87 152.486c14.4-.529 28.785-1.743 43.169-2.545 8.948-.5 17.945-.644 26.876-1.33a.744.744 0 0 0 0-1.479c-8.832-.521-18.069.826-26.876 1.5-14.384 1.091-28.809 1.776-43.169 3.139-.446.038-.462.732 0 .715z"/><path data-name="Path 2837" d="M141.104 127.263c-1.487 7.816-3.412 15.888-4.015 23.827-.041.587.876.694 1.016.14 1.991-7.659 2.536-15.954 3.644-23.786.057-.421-.562-.61-.645-.181z"/><path data-name="Path 2838" d="M219.461 130.972c13.219 7.791 10.435 25.364.471 34.477s-23.885 10.41-36.179 13.938c-10.914 3.115-20.655 8.667-28.091 17.408-6.469 7.651-11.393 18.077-9.79 28.305.107.719 1.248.529 1.248-.165 0-14.392 6.7-26.438 18.176-35.113 11.054-8.311 24.455-9.914 37.3-13.847 10.617-3.3 20.762-9.171 25.273-19.829 3.974-9.41 1.314-20.853-7.882-26.042a.504.504 0 0 0-.512.868z"/><path data-name="Path 2839" d="M239.702 125.786c5.255 5.461 8.493 11.244 9.625 18.788.975 6.543 1.363 14-.892 20.324a21.258 21.258 0 0 1-15.7 14.045c-6.048 1.421-12.335 1.206-18.457 2.123-11.765 1.76-23.621 6.056-32.577 14.12-7.791 7.014-14.277 17.846-13.657 28.652a.826.826 0 0 0 1.562 0c1.347-15.119 9.162-27.479 22.753-34.659a63.889 63.889 0 0 1 19.539-6.37c6.609-1.082 13.376-.917 19.953-2.223 11.253-2.231 17.557-10.493 18.68-21.7a56.839 56.839 0 0 0-1.214-18.267c-1.4-5.973-5.065-10.889-9.311-15.2-.223-.231-.562.116-.347.347z"/><path data-name="Path 2840" d="M239.634 125.61a47.6 47.6 0 0 1-.174 11c-.083.554.752.826.826.24a23.7 23.7 0 0 0-.215-11.311c-.074-.248-.487-.215-.471.066z"/><path data-name="Path 2841" d="M240.082 136.623c-2.669-2.379-6.709-3.916-10.1-5.007-3.139-1.008-7.13-2.305-10.443-1.727-.768.14-.554 1.3.173 1.314 6.535.124 14.169 3 19.969 5.932.319.158.691-.247.401-.512z"/><path data-name="Path 2842" d="M145.913 224.935c.149 1.71.24 1.751 1.735 2.074 2.677.587 6.271-.273 8.964-.521 3.776-.355 13.219.521 13.393-4.858 0-.785-1.107-.744-1.2 0-.454 3.693-9.98 3.371-12.649 3.61-1.652.157-8.782 1.652-9.179-.454a.545.545 0 0 0-1.066.149z"/><path data-name="Path 2843" d="M88.575 221.828c.215-11.046 1.652-23.563-3.189-33.874-4.5-9.485-11.848-17.978-22.307-20.333-5.007-1.124-10.286-2.256-15.4-1.132-5.263 1.157-9.691 4.387-14.334 6.94-10.121 5.577-21.2 7.659-32.643 7.229a.744.744 0 0 0-.2 1.446c8.3 1.652 17.8-.826 25.546-3.718 9.815-3.677 18.077-12.071 29.2-10.9 6.23.653 13.219 2.33 17.92 6.7a50.158 50.158 0 0 1 9.79 12.9c5.618 10.6 3.924 23.133 4.131 34.741a.752.752 0 0 0 1.5 0z"/><path data-name="Path 2844" d="M80.677 185.228c-9.989-5.428-21.481-2.421-31.4 1.438-11.848 4.618-26.537 12.632-39.1 6.444a.786.786 0 1 0-.826 1.338c9.088 6.609 23.076.545 32.147-3.04 11.748-4.651 26.331-12.558 38.393-4.957.785.5 1.537-.826.727-1.248z"/><path data-name="Path 2845" d="M60.526 184.295c6.957-.471 9.848 7.609 10.741 13.219.892 5.858.347 11.517.306 17.35a.5.5 0 0 0 .983.132c1.875-8.485 1.917-32.866-11.988-31.841-.719.05-.727 1.181 0 1.132z"/><path data-name="Path 2846" d="M.437 181.865c6.271 3.6 13.649 4.792 20.423 7.2l-.124-.95c-3.586 2.1-7.436 3.478-11.2 5.2-.562.256-.149 1.082.4.958 4.131-.934 7.576-3.453 11.319-5.271.454-.215.248-.826-.124-.95-6.61-2.751-13.888-3.66-20.184-7.072a.507.507 0 1 0-.512.876z"/><path data-name="Path 2847" d="M71.597 214.351c.116 1.157.058 1.066 1.066 1.826a51.225 51.225 0 0 0 6.006 3.429c2.7 1.479 6.2 3.71 9.377 3.024 1.041-.223.6-1.834-.446-1.6-2.4.545-6.692-1.578-8.824-2.636-1.95-.975-5.445-2.28-6.486-4.222-.165-.314-.727-.19-.694.182z"/><path data-name="Path 2848" d="M73.473 128.055c-1.652-6.717-2.016-13.31-2.346-20.176a.413.413 0 0 0-.76-.207c-1.735 2.4-3.3 4.957-5.222 7.237-.975 1.181-2.156 3.189-3.4 4.007-.909.587-.33.669-1.223.355-.471-.173-1.148-1.347-1.479-1.76a74.14 74.14 0 0 1-5.048-7.345.4.4 0 1 0-.694.4c1.652 3.3 4.024 8.328 7.436 10.385a.52.52 0 0 0 .545 0c3.164-2.363 5.635-7.08 7.824-10.286 1.454-2.132.983-1.181.934.876a46.267 46.267 0 0 0 .273 5.858 56.554 56.554 0 0 0 2.338 10.9.454.454 0 0 0 .826-.24z"/><path data-name="Path 2849" d="M53.429 110.308c-1.875 9.914-2.636 24.389 4.825 32.4a.413.413 0 0 0 .644-.5c-5.783-9.179-6.089-21.3-5.032-31.833.001-.257-.388-.314-.437-.067z"/><path data-name="Path 2850" d="M193.898 146.323c3.487-5.4 9.427-8.039 11.773-14.359a19.217 19.217 0 0 0-1.916-17.243.5.5 0 0 0-.826.5c3.239 6.477 3.941 13.3.107 19.746-2.569 4.3-7.138 6.758-9.732 11.03-.24.4.372.744.62.364z"/><path data-name="Path 2851" d="M226.5 131.344c.306-4.478.107-10.03-3.883-13.037-.339-.264-.826.165-.711.545.611 1.975 1.842 3.7 2.479 5.7a21.158 21.158 0 0 1 1.082 6.791.517.517 0 0 0 1.033.001z"/><path data-name="Path 2852" d="M200.4 170.076c4.2-7.031 11.74-11.567 17.053-17.681 3.834-4.42 8.394-10.641 8.493-16.739a.487.487 0 0 0-.95-.132 49.763 49.763 0 0 1-11.972 19c-4.792 4.891-9.914 9.088-13.517 15.028a.521.521 0 0 0 .892.521z"/><path data-name="Path 2853" d="M222.03 118.629c-.909 4.528-2.925 7.907-5.436 11.7a.388.388 0 0 0 .611.471 21.348 21.348 0 0 0 5.527-12.079.355.355 0 0 0-.7-.091z"/><path data-name="Path 2854" d="M216.899 130.89a.248.248 0 1 0-.248-.248.248.248 0 0 0 .248.248z"/><path data-name="Path 2855" d="M217.223 130.567a32.223 32.223 0 0 0-5.5-8.948c-2.322-2.776-4.792-5.783-8.262-7.105a.438.438 0 0 0-.43.727 74.738 74.738 0 0 1 13.492 15.626c.223.355.876.132.711-.3z"/><path data-name="Path 2856" d="M145.02 103.298c-.644-2.115-2.123-5.387-4.552-5.957-2.222-.521-4.131 1.148-4.858 3.106-.983 2.669.041 5.841 1.652 8.039 2.4 3.3 6.973 4.131 8.873 7.824.421.826 1.652.1 1.231-.719-1.388-2.883-4.065-3.668-6.61-5.263a9.344 9.344 0 0 1-4.569-6.444c-.413-3.131 3.974-5.916 6.254-3.66a21.48 21.48 0 0 1 2.231 3.239c.132.19.471.083.4-.165z"/><path data-name="Path 2857" d="M145.26 103.51c.529-3.4 3.173-11.666 8.766-8.6 5.436 2.974.545 9.278-2.148 11.9-2.958 2.892-5.783 5.618-5.7 10.013a.554.554 0 1 0 1.107 0c-.107-6.444 6.7-8.576 9.286-13.657 1.19-2.346 1.38-5.428-.322-7.617-5.3-6.775-11.063 3.016-11.856 7.725-.091.57.785.826.826.24z"/><path data-name="Path 2858" d="M195.253 103.634a15.036 15.036 0 0 1 1.264-5.593c1.561-2.916 6.279-5.428 9.385-2.594 3.85 3.52.653 8.915-2.173 11.773-3.263 3.3-7.18 5.535-8.972 10.005-.223.57.735.983 1 .421 2.479-5.461 8.155-7.907 11.236-12.889 1.652-2.718 2.388-6.411.281-9.129-1.95-2.479-5.189-2.677-7.882-1.314-3.577 1.818-4.585 5.626-4.908 9.319-.041.496.728.496.769.001z"/><path data-name="Path 2859" d="M195.261 103.254c-.545-4.544-6.857-11.8-10.8-6.073-.165.24.223.545.413.314 2.107-2.644 5.387-1.652 7.163.735 1.19 1.586 1.942 3.4 2.966 5.089.06.107.274.074.258-.065z"/><path data-name="Path 2860" d="M184.529 97.04a10.93 10.93 0 0 0 .5 9.8c2.644 4.536 8.311 5.907 10.253 11.046.165.438.884.248.711-.2-1.082-2.867-3.082-4.643-5.362-6.61-4.428-3.809-7.163-7.865-5.734-13.938a.19.19 0 0 0-.363-.1z"/><path data-name="Path 2861" d="M206.926 60.349c-.628-5.569-7.006-7.081-9.179-1.479-2.85 7.328 5.957 10.584 9.782 14.871.347.388.909-.182.57-.578-2.049-2.421-4.957-3.7-7.287-5.833a7.783 7.783 0 0 1-2.834-6.378c.1-1.454 1-3.924 2.561-4.528 3.115-1.206 5.213 1.058 5.858 4.032.066.289.57.231.529-.074z"/><path data-name="Path 2862" d="M206.795 60.539c1.479-1.842 2.718-4.494 4.825-5.676 4.569-2.553 9.047 2.437 7.023 6.907a10.925 10.925 0 0 1-2.379 2.883c-2.892 2.859-6.039 5.436-8.642 8.568-.182.223.058.636.33.438a78.043 78.043 0 0 0 9.485-8.617c2.132-2.156 3.611-4.561 2.479-7.642-.991-2.735-3.586-4.742-6.56-4.131-3.412.694-5.337 4.271-7.031 6.94-.174.264.24.595.446.339z"/><path data-name="Path 2863" d="M267.496 47.568c-.826-5.478-6.857-10.1-11.426-4.957a7.551 7.551 0 0 0-1 8.155c1.991 4.329 7.717 5.37 8.419 10.484.083.57 1.016.43 1-.132-.074-3.3-2.264-5.023-4.751-6.866-3.371-2.479-5.783-6.023-3.66-10.286 2.264-4.6 7.684-2.123 9.443.744.595.967.983 2.065 1.529 3.065.14.264.487.066.446-.19z"/><path data-name="Path 2864" d="M267.429 47.377a38.144 38.144 0 0 1 3.14-3.577c1.892-1.785 5.362-3.032 6.362.43 1.2 4.131-1.537 6.824-4.23 9.311-.372.339.1.826.5.661a9.229 9.229 0 0 0 4.734-5.213c.595-1.851.669-4.957-.644-6.61-3.3-4.048-8.6 2.148-10.129 4.767-.091.165.14.355.264.207z"/><path data-name="Path 2865" d="M274.154 52.36c-1.975 1.95-4.833 2.966-7.039 4.643-1.479 1.124-3.3 2.528-3.8 4.4a.438.438 0 0 0 .826.231c.636-2.322 4.09-4.23 5.94-5.428a33.484 33.484 0 0 0 4.668-3.222c.421-.372-.215-1.008-.611-.62z"/></g></svg>