<svg xmlns="http://www.w3.org/2000/svg" width="234.001" height="222.373"><path data-name="Path 2866" d="M211.4 177.883c-.084 6.276-.163 12.636-.248 19.137q-37.435-.321-74.86-.45-18.456-.067-36.906-.084-38.837-.051-77.674.107-.141-9.726-.259-19.458 94.988.984 189.947.748z" fill="#e9e9e9"/><path data-name="Path 2867" d="M26.081 72.072c-.062 35.218-.129 65.477-.191 100.661q90.3.94 180.6.653c.259-35.46.512-65.584.765-101.049h-.045c-64.714-.041-116.423-.232-181.129-.265zm186.867-9.332c-.512 40.345-1.024 76.1-1.531 115.143q-94.965.225-189.952-.771-.7-57.462-.36-114.9c67.058.158 124.74.349 191.826.523zm-95.089 6.388a.6.6 0 0 0 0-.315 1.52 1.52 0 0 0-.141-.445.76.76 0 0 0-.208-.27.676.676 0 0 0-.478-.107 1.086 1.086 0 0 0-.473.152h-.039a.884.884 0 0 0-.535.749.788.788 0 0 0 .158.417 1.036 1.036 0 0 0 .563.394.85.85 0 0 0 .653-.079 1.689 1.689 0 0 0 .349-.31.872.872 0 0 0 .152-.186z"/><path data-name="Path 2868" d="M116.582 68.121a1.085 1.085 0 0 1 .473-.152.676.676 0 0 1 .479.107.76.76 0 0 1 .208.27 1.519 1.519 0 0 1 .141.445.6.6 0 0 1 0 .315.87.87 0 0 1-.146.208 1.689 1.689 0 0 1-.349.31.85.85 0 0 1-.653.079 1.036 1.036 0 0 1-.563-.394.789.789 0 0 1-.158-.417.884.884 0 0 1 .535-.749z" fill="#e9e9e9"/><path data-name="Path 2869" d="M207.218 72.337h.045c-.253 35.46-.507 65.584-.765 101.049q-90.293.287-180.6-.653c.062-35.184.129-65.443.191-100.661 64.697.034 116.407.225 181.129.265z" fill="#252a25"/><path data-name="Path 2870" d="M97.794 165.905c-5.786 2.522-11.674 4.908-17.572 7.272q63.135.405 126.271.208c.22-29.634.433-55.542.642-83.95a335.225 335.225 0 0 1-109.341 76.47z" fill="#434943"/><path data-name="Path 2871" d="M98.115 212.453a85.105 85.105 0 0 0 1.272-15.675v-.315q18.456 0 36.906.084v.242a59.831 59.831 0 0 0 1.385 15.822 8.973 8.973 0 0 0 2.55 3.872 3.035 3.035 0 0 0 .529.478 3.374 3.374 0 0 0 .861.383c1.48.518 2.91 1.165 4.334 1.812a3.225 3.225 0 0 1 1.593 1.176 1.115 1.115 0 0 1-.563 1.638l-.2-.242q-26.206-.737-52.441-.512l-4.9.051-.518-.3a1.036 1.036 0 0 1-.951-.946 1.689 1.689 0 0 1 .732-1.4 5.489 5.489 0 0 1 1.48-.7c3.006-1.126 5.921-2.814 7.655-5.522z" fill="#e9e9e9"/><path data-name="Path 2872" d="M136.293 196.788v-.242q-18.456-.068-36.906-.084v.315q.051 4.1-.3 8.2a188.838 188.838 0 0 0 37.21-2.938c-.06-1.581-.054-3.275-.004-5.251z" fill="#bcbcbc"/><path data-name="Path 2873" d="M103.798 214.681c4.447-.062 8.893-.287 13.34-.287 4.846 0 9.619.22 14.454-.135.563-.045.777-.957.146-1.052-9.006-1.328-18.287-1.61-27.388-2.432-1.959-.174-3.94-.349-5.882-.512a74.845 74.845 0 0 1-.355 2.189l-.253-.045a11.254 11.254 0 0 1-2.094 2.375z" fill="#bcbcbc"/><path data-name="Path 2874" d="M108.347 210.405c6.568.405 13.114.861 19.7 1.188 3.1.152 6.191.394 9.3.563h.253a89.584 89.584 0 0 1-.467-2.482c-3.028.068-6.056.169-9.09.18-6.557.028-13.131.129-19.7.129a.211.211 0 1 0 0 .422z" fill="#fff"/><path data-name="Path 2875" d="M211.153 196.997c.084-6.478.163-12.839.248-19.137-6.028 0-2.251.034-8.268.039-11.026 8.612-58.12 16.475-75.394 18.715 18.529.113 64.89.225 83.414.383z" fill="#fff"/><path data-name="Path 2876" d="M20.84 62.217q-.923 67.143.535 134.37a.338.338 0 0 0 .67 0q-.473-67.188-.7-134.37a.253.253 0 0 0-.5 0z" fill="#231f20"/><path data-name="Path 2877" d="M21.403 196.952q74.3 0 148.593.445c14.015.084 28.041.377 42.056.1a.5.5 0 1 0 0-.991c-24.642-.906-49.368-.563-74.021-.636q-37.283-.1-74.572 0c-14.015.051-28.03.208-42.045.321a.388.388 0 0 0 0 .771z" fill="#231f20"/><path data-name="Path 2878" d="M212.47 62.74c-.726 22.447-.884 44.927-1.238 67.385q-.253 16.289-.478 32.578-.118 8.584-.242 17.178c-.079 5.8-.642 11.854-.034 17.623a.67.67 0 1 0 1.34 0c.754-5.752.349-11.82.416-17.623s.141-11.454.214-17.178l.4-32.578c.253-22.458.709-44.927.563-67.385a.467.467 0 0 0-.929 0z" fill="#231f20"/><path data-name="Path 2879" d="M25.822 72.066c-.484 16.824-.276 33.687-.338 50.51s-.5 33.7-.039 50.51a.445.445 0 0 0 .884 0c.518-16.812.152-33.687.158-50.51s.281-33.687-.146-50.51a.259.259 0 0 0-.518 0z" fill="#231f20"/><path data-name="Path 2880" d="M21.319 177.417c24.574 1.126 49.289.8 73.886.951q37.216.219 74.443.242c13.981 0 28 .22 41.978-.338a.394.394 0 1 0 0-.788c-24.591-.856-49.283-.242-73.88-.293q-37.221-.079-74.449-.315c-13.981-.084-28-.411-41.978-.068a.304.304 0 1 0 0 .608z" fill="#231f20"/><path data-name="Path 2881" d="M25.259 173.019c23.437 1.086 47.021.765 70.481.9s46.993.214 70.486.2c13.413 0 26.865.2 40.272-.349a.388.388 0 0 0 0-.771c-23.454-.816-47.01-.208-70.481-.248s-46.987-.129-70.486-.265c-13.413-.079-26.865-.4-40.272-.056a.3.3 0 0 0 0 .591z" fill="#231f20"/><path data-name="Path 2882" d="M206.954 72.066c-.4 16.931-.411 33.873-.563 50.809s-.659 33.884-.377 50.8a.49.49 0 0 0 .974 0c.523-16.914.281-33.884.388-50.8s.355-33.873.2-50.809a.31.31 0 0 0-.619 0z" fill="#231f20"/><path data-name="Path 2883" d="M25.968 72.415c6.191.563 12.518.332 18.737.383 6.045.051 12.09.068 18.135.1q17.263.084 34.531.107 34.39.107 68.786.169h19.621c7.109 0 14.358.383 21.439-.253a.614.614 0 0 0 0-1.221c-6.191-.563-12.523-.281-18.737-.287h-18.13l-34.531-.028q-34.4-.056-68.786-.062-9.811 0-19.627.045c-7.109.034-14.353-.265-21.439.371a.349.349 0 0 0 0 .692z" fill="#231f20"/><path data-name="Path 2884" d="M20.97 62.841c49.531.794 99.141.535 148.7.63 14.364.028 28.925.7 43.261-.253a.478.478 0 1 0 0-.957c-12.737-.917-25.666-.422-38.432-.473q-18.574-.068-37.148-.1-36.586-.084-73.137-.163c-14.42 0-28.846-.113-43.267.039a.636.636 0 0 0 0 1.272z" fill="#231f20"/><path data-name="Path 2885" d="M99.094 196.77c-.287 5.471-1.193 10.852-1.553 16.323-.039.563.794.63.94.124 1.475-5.139 1.537-11.122 1.2-16.418a.3.3 0 0 0-.591 0z" fill="#231f20"/><path data-name="Path 2886" d="M97.597 212.143a14.747 14.747 0 0 1-4.148 3.585c-1.441.856-3.079 1.323-4.5 2.173a2.5 2.5 0 0 0-1.52 2.122 1.458 1.458 0 0 0 1.689 1.424.5.5 0 0 0 .129-.974c-.18-1.126.107-1.739.861-1.9l.827-.276c.242-.084.478-.169.715-.27a17.156 17.156 0 0 0 2.916-1.582 11.966 11.966 0 0 0 3.63-3.844c.214-.355-.326-.8-.6-.456z" fill="#231f20"/><path data-name="Path 2887" d="M89.463 221.662c9.445.18 18.895.208 28.34.146q7.25-.039 14.5.124c4.79.107 9.726.6 14.5.186.405-.034.563-.709.1-.777-4.43-.625-9.006-.417-13.509-.478q-7.531-.1-15.062-.253-14.448-.321-28.9.248a.405.405 0 0 0 0 .8z" fill="#231f20"/><path data-name="Path 2888" d="M135.997 196.704c-.794 4.807-.608 11.572 1.334 16.109.169.394.754.163.76-.208.039-2.606-.782-5.257-1.03-7.88s-.152-5.319-.456-7.959c-.034-.31-.563-.456-.608-.079z" fill="#231f20"/><path data-name="Path 2889" d="M137.205 212.74a8.893 8.893 0 0 0 3.2 4.677 15.635 15.635 0 0 0 2.871 1.182c.788.326 4.931 1.6 3.45 3.09-.225.225-.079.72.281.681 2.049-.242 1.126-2.606-.084-3.377a29.186 29.186 0 0 0-4.5-2 7.463 7.463 0 0 1-4.25-4.542.5.5 0 0 0-.951.265z" fill="#231f20"/><path data-name="Path 2890" d="M100.754 213.726a.113.113 0 1 0-.088-.11.113.113 0 0 0 .088.11z" fill="#231f20"/><path data-name="Path 2891" d="M98.998 214.564a216.007 216.007 0 0 1 28.756.535c.293 0 .281-.417 0-.45a163.593 163.593 0 0 0-28.756-.636.282.282 0 0 0 0 .563z" fill="#231f20"/><path data-name="Path 2892" d="M117.15 68.002c-.6-.512-1.508.118-1.582.811a1.34 1.34 0 0 0 1.649 1.334 1.536 1.536 0 0 0 .878-.737 1.215 1.215 0 0 0-.034-1.126 1.126 1.126 0 0 0-.794-.737 1.053 1.053 0 0 0-1.075.473c-.18.248.113.523.366.473s.737-.253.906 0a.45.45 0 0 1 0 .563.6.6 0 0 1-.467.236c-.248 0-.563-.242-.518-.523s.439-.563.659-.67a.073.073 0 0 0 0-.118z" fill="#231f20"/><path data-name="Path 2893" d="M100.754 213.726a.113.113 0 1 0-.088-.11.113.113 0 0 0 .088.11z" fill="#231f20"/><path data-name="Path 2894" d="M232.873 24.579c-.2 28.79-.039 66.923.653 95.162-24.811-.265-60.867-.749-85.678-1.008h-.034q.174-47.077-.467-94.154c26.505-.523 55.098-.231 85.526 0zm-54.749 89.933c.236-2.814.349-5.629.332-8.493 0-1.458 0-7.8-.236-8.218-.146-.293-17.73-.09-25.4.349.045 5.443.146 11.533.3 16.97q12.509-.051 25.004-.609zm.287-22c.09-3.614.056-8.381-.152-11.82l-.338-5.533c-6.529-.372-9.777-.045-16.458.034-2.409 0-6.129-.034-8.64.073v.36c.158 4.841.31 17.167.31 17.167s17.691.178 25.278-.284zm-.749-22.514c.214-5.932.051-12.383-.169-18.31-8.4-.051-16.886-.388-25.295 0 .18 5.955-.276 18.011.1 18.2s17.612.366 25.362.1zm-25.694-23.142 25.441-.141c-.028-5.961-.343-11.342-.473-17.19-8.111-.388-17.876.3-25.6.394-.169 5.358.259 11.578.63 16.931z" fill="#fff"/><path data-name="Path 2895" d="M178.456 106.017c0 2.814-.1 5.674-.332 8.493q-12.5.563-25 .608a913.75 913.75 0 0 1-.3-16.97c7.666-.439 25.25-.642 25.4-.349.21.422.221 6.788.232 8.218z" fill="#1ea1f1"/><path data-name="Path 2896" d="M178.259 80.706c.208 3.422.242 8.19.152 11.82-7.587.462-25.278.3-25.278.3s-.152-12.327-.31-17.167v-.36c2.51-.107 6.231-.051 8.64-.073 6.681-.079 9.929-.405 16.458-.034z" fill="#5fbd66"/><path data-name="Path 2897" d="M177.494 51.679c.22 5.927.383 12.383.169 18.31-7.728.276-25.058.056-25.362-.118s.079-12.248-.1-18.2c8.384-.38 16.889-.046 25.293.008z" fill="#1ea1f1"/><path data-name="Path 2898" d="m177.41 46.709-25.441.141c-.372-5.353-.8-11.572-.63-16.936 7.722-.09 17.488-.782 25.6-.394.129 5.837.443 11.229.471 17.189z" fill="#5fbd66"/><path data-name="Path 2899" d="M80.717 118.834a1.8 1.8 0 0 1 0 .794.856.856 0 0 1-1.092.507c-21.732-.349-44.691.113-66.653-.084a84.556 84.556 0 0 1-.09-7.469v-.146c20.859.056 46.959-.073 66.507.034.383 0 .85 0 1.03.355a1.125 1.125 0 0 1 .079.3c.275 1.887-.018 3.846.219 5.709z" fill="#fff"/><path data-name="Path 2900" d="M80.458 102.596a37.46 37.46 0 0 1-.191 6.1.794.794 0 0 1-.068.287c-.135.236-.456.259-.726.259-21.034.281-45.028-.49-66.541-.383v-.113q-.056-3.6-.056-7.165c21.388-.214 46.154-.8 66.586 0 .2-.169.642 0 .794.242a1.452 1.452 0 0 1 .202.773z" fill="#fff"/><path data-name="Path 2901" d="M84.061 46.991c.028 10.176.084 20.668.135 31.16-25.424-.062-57.935-1.036-83.387-.2q.056-15.45.118-30.912c26.679-.281 55.469-.231 83.111-.045z" fill="#fff"/><path data-name="Path 2902" d="M1.056 6.196a1.188 1.188 0 0 1 .225-.681 1.311 1.311 0 0 1 .715-.484 4.774 4.774 0 0 1 .94 0H4.85l5.735.039h24.208l6.191-.034 6.225-.039 6.192-.034h23.983l3.377.028h1.734a2.251 2.251 0 0 1 1.323.214.923.923 0 0 1 .265.5 2.606 2.606 0 0 1 .068.591h.039c-.045 4.447-.079 9.1-.1 13.919-25.734 0-56.764-.6-83.032-.22V6.163z" fill="#fff"/><path data-name="Path 2903" d="M12.96 120.05c21.951.2 44.921-.265 66.653.084a.856.856 0 0 0 1.092-.507 1.8 1.8 0 0 0 0-.794c-.236-1.891.056-3.822-.231-5.707a1.126 1.126 0 0 0-.079-.3c-.18-.343-.647-.371-1.03-.355-19.548-.107-45.647 0-66.507-.034H6.105a3.479 3.479 0 0 0-.995.106.332.332 0 0 0-.18.079.411.411 0 0 0-.079.174 6.254 6.254 0 0 0-.18 1.649c0 .5.129.974.141 1.48q.045 1.689.129 3.377a.76.76 0 0 0 .231.625.715.715 0 0 0 .377.079 3.346 3.346 0 0 0 .563-.034q3.387.05 6.848.078zm-.084-18.467c-2.482 0-4.919.045-7.317.056a.788.788 0 0 1 .253-.034v-.034a.5.5 0 0 0-.321-.051.794.794 0 0 0-.523.366 1.9 1.9 0 0 0-.191.968c0 .895-.045 1.79-.062 2.685a12.879 12.879 0 0 0 .124 2.719.816.816 0 0 0 .332.6.513.513 0 0 0 .186.056h1.52q2.972-.045 6.023-.051c21.535-.107 45.507.664 66.541.383.27 0 .591 0 .726-.259a.794.794 0 0 0 .068-.287 37.463 37.463 0 0 0 .191-6.1 1.453 1.453 0 0 0-.191-.76c-.152-.219-.563-.411-.794-.242-20.411-.815-45.177-.229-66.565-.016zM.746 142.671H.6q.034-32.387.2-64.728c25.452-.833 57.974.141 83.387.2.118 22.812.236 45.591.1 65.032a2.777 2.777 0 0 1-.152.411 1.576 1.576 0 0 1-.27.411 1.347 1.347 0 0 1-.326.236 3.985 3.985 0 0 1-1.959.225l-2.37-.028-4.728-.051q-7.176-.073-14.347-.118t-14.342-.045H31.444q-7.165 0-14.347.09c-3.158 0-6.321.056-9.484.09l-2.9.034H3.234a2.477 2.477 0 0 1-1.193-.163 2.252 2.252 0 0 1-1.126-.833 1.689 1.689 0 0 1-.158-.777z" fill="#e9e9e9"/><path data-name="Path 2904" d="M84.038 20.244c-.034 8.482-.028 17.482 0 26.747-27.642-.186-56.432-.236-83.111.045Q.978 33.528 1 20.019c26.274-.377 57.304.208 83.038.225z" fill="#e9e9e9"/><path data-name="Path 2905" d="M6.121 119.965a3.346 3.346 0 0 1-.563.034.715.715 0 0 1-.377-.079.76.76 0 0 1-.231-.625q-.084-1.689-.129-3.377c0-.507-.124-.979-.141-1.48a6.254 6.254 0 0 1 .18-1.649.411.411 0 0 1 .079-.174.332.332 0 0 1 .18-.079 3.478 3.478 0 0 1 .991-.113h6.754v.146a84.556 84.556 0 0 0 .09 7.469q-3.439 0-6.833-.079z" fill="#1ea1f1"/><path data-name="Path 2906" d="M5.525 101.52a.5.5 0 0 1 .321.051v.034a.788.788 0 0 0-.253.034c2.375 0 4.812-.034 7.317-.056q0 3.58.045 7.165v.113q-3.045 0-6.023.051h-1.52a.513.513 0 0 1-.186-.056.816.816 0 0 1-.332-.6 12.878 12.878 0 0 1-.124-2.719c0-.895.039-1.79.062-2.685a1.9 1.9 0 0 1 .191-.968.794.794 0 0 1 .502-.364z" fill="#5fbd66"/><path data-name="Path 2907" d="M.606 147.685v-5.026h.146a1.688 1.688 0 0 0 .169.822 2.251 2.251 0 0 0 1.126.833 2.476 2.476 0 0 0 1.193.163h1.475l2.9-.034c3.163-.034 6.326-.09 9.484-.09q7.176-.062 14.347-.09t14.341 0q7.165 0 14.342.045t14.347.118l4.728.051 2.37.028a3.984 3.984 0 0 0 1.959-.225 1.346 1.346 0 0 0 .326-.236 1.575 1.575 0 0 0 .27-.411 2.78 2.78 0 0 0 .152-.411q0 2.719-.051 5.347a4.62 4.62 0 0 1-.174.771 1.07 1.07 0 0 1-.3.529 1.125 1.125 0 0 1-.411.2 6.66 6.66 0 0 1-2.291.158l-2.251-.028q-2.313 0-4.627-.068-5.961-.09-11.91-.236l-12.242-.281q-6.191-.146-12.383-.27t-12.3-.191c-4.024-.1-8.043-.1-12.051-.1q-4.559 0-9.124.084l-1.649.028c-.49 0-.923.09-1.266-.326a3.8 3.8 0 0 1-.388-.563 1.21 1.21 0 0 1-.2-.591z" fill="#252a25"/><path data-name="Path 2908" d="M.601 151.822v-4.137h.062a1.21 1.21 0 0 0 .2.591 3.8 3.8 0 0 0 .388.563c.343.417.777.338 1.266.326l1.649-.028q4.565-.073 9.124-.084c4.008 0 8.015 0 12.017.062q6.152.067 12.3.191t12.383.27l12.242.281q5.955.135 11.91.236 2.313.039 4.627.068l2.251.028a6.658 6.658 0 0 0 2.291-.158 1.124 1.124 0 0 0 .411-.2 1.069 1.069 0 0 0 .3-.529 4.624 4.624 0 0 0 .174-.771q0 1.987-.045 3.906v.068a1.745 1.745 0 0 1-.411.8 1.522 1.522 0 0 1-.366.225 4.716 4.716 0 0 1-2.251.287l-2.336-.034-4.722-.051q-5.876-.051-11.741-.028-5.978 0-11.949.068t-12.034.1q-5.994.051-11.989.084t-11.82 0q-4.8 0-9.569-.09a13.335 13.335 0 0 1-2.64-.129 1.555 1.555 0 0 1-.383-.107 2.106 2.106 0 0 1-.664-.518c-.107-.113-.214-.22-.31-.338a2.144 2.144 0 0 1-.417-.962z" fill="#5fbd66"/><path data-name="Path 2909" d="M2.914 5.036a4.773 4.773 0 0 0-.94 0 1.312 1.312 0 0 0-.715.484 1.188 1.188 0 0 0-.225.681V2.086a.67.67 0 0 1 .141-.36 1.88 1.88 0 0 1 .462-.405 4.046 4.046 0 0 1 .467-.293 4.12 4.12 0 0 1 1.863-.3h77.724a3.135 3.135 0 0 1 1.632.315 1.936 1.936 0 0 1 .833 1.2 3.878 3.878 0 0 1 .045 1.486q0 1.283-.034 2.6h-.039a2.606 2.606 0 0 0-.068-.591.923.923 0 0 0-.265-.5c-.315-.265-.94-.208-1.323-.214h-1.734l-3.377-.028H59.526l-6.124-.028-6.191.028-6.22.034-6.191.034H10.563l-5.735-.039z" fill="#5fbd66"/><path data-name="Path 2910" d="M147.054 24.578c.09 15.861.107 31.722.146 47.584v23.51c0 7.976-.462 16.115.113 24.073a.484.484 0 0 0 .962 0c.619-7.767.2-15.726.2-23.516q0-12.028-.1-24.068c-.118-15.867-.4-31.728-.743-47.584a.3.3 0 0 0-.591 0z" fill="#231f20"/><path data-name="Path 2911" d="M233.667 119.734c.332-7.553-.056-15.2-.113-22.728q-.085-12.326-.135-24.642-.039-12.135 0-24.27c0-7.756.67-15.76 0-23.516a.563.563 0 0 0-1.064 0c-.76 7.553-.186 15.45-.169 23.043q.034 12.383.141 24.766.1 12.085.326 24.169c.158 7.711.034 15.518.743 23.2a.141.141 0 1 0 .281 0z" fill="#231f20"/><path data-name="Path 2912" d="M147.852 119.267c14.28.186 28.554.411 42.833.6s28.582.777 42.839.394a.529.529 0 0 0 0-1.053c-14.246-.687-28.576-.456-42.839-.613s-28.554-.293-42.833-.405a.563.563 0 0 0 0 1.075z" fill="#231f20"/><path data-name="Path 2913" d="M232.879 24.145c-14.752-.146-29.5-.3-44.246-.383-13.722-.073-27.58-.5-41.28.281a.563.563 0 0 0 0 1.069c13.745.248 27.529-.287 41.28-.287 14.747 0 29.494.1 44.246.18a.433.433 0 0 0 0-.861z" fill="#231f20"/><path data-name="Path 2914" d="M151.338 30.077c6.343 0 12.681-.281 19.024-.3a25.676 25.676 0 0 1 4.745.062c1.041.214 1.176.135 1.43 1.306a15.872 15.872 0 0 1 .068 2.685c.107 3.49.642 7.188.332 10.694-.068.754.158 1.368-.63 1.857-.433.27-2.814 0-3.315 0h-5.53c-3.5 0-7.008-.039-10.509 0-1.486 0-3.974.6-4.553-.929-.507-1.351-.236-3.54-.315-4.987q-.287-5.263-.22-10.514a.523.523 0 0 0-1.041 0 149.3 149.3 0 0 0 .636 16.936.529.529 0 0 0 .518.518c8.443-.146 16.97-.405 25.441-.281a.383.383 0 0 0 .377-.377c.259-5.707-.253-11.488-.422-17.2a.445.445 0 0 0-.433-.428c-8.55-.2-17.054.4-25.6.664a.163.163 0 0 0 0 .326z" fill="#231f20"/><path data-name="Path 2915" d="M152.199 51.882c5.482.287 11.015.146 16.5.2h3.3c.917 0 3.647-.518 4.4-.051 1.492.923.884 5.128.912 6.709.039 2.4.056 4.8.028 7.2 0 .675.321 3.1-.18 3.6-.186.191-1.424.073-1.655.084-3.265.118-6.54.039-9.8 0q-4.649-.045-9.3-.146c-.968 0-1.959-.124-2.921-.079a2.251 2.251 0 0 1-.749 0c-.614-.242.135.563-.028-.1-.563-2.251-.056-5.128-.039-7.43.028-3.377 0-6.8-.113-10.2a.355.355 0 0 0-.7 0c.056 4.807-.158 9.614-.191 14.426 0 1.548-.653 3.878 1.075 4.334a17.7 17.7 0 0 0 3.94.107c2.184.034 4.373.039 6.563.039 4.8 0 9.636.056 14.432-.158a.445.445 0 0 0 .439-.433c.18-6.1 0-12.208-.22-18.31a.394.394 0 0 0-.388-.388c-8.409-.056-16.976-.962-25.328.174-.248.034-.169.405.056.422z" fill="#231f20"/><path data-name="Path 2916" d="M152.745 75.635c.079 5.724-.051 11.448-.056 17.167a.456.456 0 0 0 .45.45c3.377.079 6.754.073 10.131.034 4.976-.068 10.261.231 15.2-.642.163-.028.113-.27-.039-.276-7.88-.49-16-.039-23.927 0h-1.126c-.36 0 .214.726.242.163.062-1.3-.107-2.645-.163-3.94-.186-4.311-.3-8.629-.512-12.946a.079.079 0 1 0-.158 0z" fill="#231f20"/><path data-name="Path 2917" d="M178.518 92.509a153.585 153.585 0 0 0-.321-17.336.287.287 0 0 0-.276-.276c-8.3-.5-16.79-.326-25.1-.073-.563 0-.563.929 0 .906 6.591-.253 13.25-.416 19.846-.416 1.418 0 4.289-.563 5.066.968.664 1.311.242 4.126.31 5.662.158 3.518.236 7.041.276 10.565a.107.107 0 1 0 .214 0z" fill="#231f20"/><path data-name="Path 2918" d="M152.746 98.149c-.293 5.629-.2 11.319-.062 16.97a.445.445 0 0 0 .439.439q12.5-.045 25-.563a.506.506 0 0 0 .49-.49 108.274 108.274 0 0 0 .163-14.8c-.113-2.06 0-2.325-2.009-2.4a231.2 231.2 0 0 0-23.944.659c-.231 0-.231.371 0 .36 5.932-.265 11.91-.186 17.848-.208a44.4 44.4 0 0 1 6.417-.039c.833.124.563-.1.839.433.439.81.034 3.034.034 3.974 0 3.2.445 6.754-.174 9.9-.326 1.638-.4 1.43-1.835 1.728a25.815 25.815 0 0 1-4.351.174q-3.259.118-6.518.2-3.8.1-7.61.146c-.563 0-2.78.293-3.265.034-1.024-.563-.709-1.5-.737-2.488-.158-4.683-.236-9.366-.563-14.038a.079.079 0 0 0-.158 0z" fill="#231f20"/><path data-name="Path 2919" d="M184.152 33.223c7.345.3 14.7.27 22.047.3 3.681 0 7.362.039 11.043.045 3.557 0 7.39.394 10.88-.326a.917.917 0 0 0 0-1.756c-3.507-.664-7.317-.248-10.88-.253-3.681 0-7.362 0-11.043-.039-7.362-.034-14.713-.039-22.047.608a.715.715 0 0 0 0 1.424z" fill="#a6a6a6"/><path data-name="Path 2920" d="M184.152 38.987a124.954 124.954 0 0 0 16.486.259 1.171 1.171 0 0 0 0-2.336c-5.443-.428-11.026.2-16.486.236a.923.923 0 0 0 0 1.841z" fill="#a6a6a6"/><path data-name="Path 2921" d="M184.153 54.797c7.475.518 14.927.49 22.424.445 3.552 0 7.1 0 10.649-.084s7.441.259 10.925-.563a1.019 1.019 0 0 0 0-1.947c-3.332-.72-6.974-.36-10.362-.371-3.737 0-7.475.056-11.212.1-7.5.084-14.955.186-22.424.827a.794.794 0 0 0 0 1.582z" fill="#a6a6a6"/><path data-name="Path 2922" d="M184.052 61.153c5.066 1 10.655.563 15.822.664 5.533.079 11.353.563 16.846-.129a.912.912 0 1 0 0-1.824c-5.488-.659-11.319-.2-16.846-.107-5.173.084-10.739-.321-15.822.687a.371.371 0 0 0 0 .709z" fill="#a6a6a6"/><path data-name="Path 2923" d="M184.152 78.725c13.925.484 27.912.563 41.848.248a1.248 1.248 0 0 0 0-2.493 740.88 740.88 0 0 0-41.848.642.8.8 0 0 0 0 1.6z" fill="#a6a6a6"/><path data-name="Path 2924" d="M184.152 84.354c4.993.1 9.985.259 14.978.231 4.587-.028 9.613.518 14.122-.36a.931.931 0 0 0 0-1.779c-4.5-.8-9.568-.191-14.122-.152-4.993.051-9.985.281-14.978.456a.8.8 0 0 0 0 1.6z" fill="#a6a6a6"/><path data-name="Path 2925" d="M218.379 84.42a34.86 34.86 0 0 0 7.655.332.974.974 0 0 0 0-1.942 56.174 56.174 0 0 0-7.655.4.608.608 0 0 0 0 1.21z" fill="#a6a6a6"/><path data-name="Path 2926" d="M184.152 89.391a138.157 138.157 0 0 0 22.936-.861.4.4 0 0 0 0-.794 137.539 137.539 0 0 0-22.936.484.585.585 0 0 0 0 1.171z" fill="#a6a6a6"/><path data-name="Path 2927" d="M184.113 101.453c3.186.867 6.754.681 10.064.743 3.524.062 7.053.045 10.576.028 7.244-.039 14.482-.124 21.721-.191a1.127 1.127 0 0 0 0-2.251c-7.238.068-14.477.124-21.721.225-3.523.051-7.052.1-10.576.231-3.281.118-6.895 0-10.064.929a.141.141 0 0 0 0 .27z" fill="#a6a6a6"/><path data-name="Path 2928" d="M184.029 106.569a29.873 29.873 0 0 0 9.675.3c1.013-.174.72-1.689-.231-1.734a73.85 73.85 0 0 0-9.321.563c-.473.039-.664.8-.124.895z" fill="#a6a6a6"/><path data-name="Path 2929" d="M198.359 105.933c9.569 1.188 19.2 1.058 28.813.912a1.039 1.039 0 0 0 0-2.077c-9.6.2-19.221.028-28.812.377a.394.394 0 1 0 0 .788z" fill="#a6a6a6"/><path data-name="Path 2930" d="M184.023 111.576c3.647.917 7.779.664 11.522.726 4.143.062 8.358.231 12.484-.084a1.126 1.126 0 0 0 0-2.2c-4.148-.152-8.33-.068-12.484-.1-3.737 0-7.908-.326-11.522.737a.478.478 0 0 0 0 .912z" fill="#a6a6a6"/><path data-name="Path 2931" d="M.831 2.014C.595 40.952.268 79.885.122 118.823c-.039 10.993-.253 22.008 0 33a.49.49 0 0 0 .974 0c.445-19.368.113-38.775.169-58.143q.084-29.336.1-58.666c0-11-.079-22-.135-33a.2.2 0 0 0-.388 0z" fill="#231f20"/><path data-name="Path 2932" d="M83.881 3.088c-.749 19.137-.405 38.274-.343 57.411.062 20.263.22 40.525.242 60.788 0 10.373 0 20.752-.09 31.126a.512.512 0 0 0 1.019 0c.63-39.4 0-78.8-.135-118.2-.039-10.373.084-20.758-.056-31.131a.321.321 0 0 0-.636 0z" fill="#231f20"/><path data-name="Path 2933" d="M.161 151.924c.6 2.251 2.364 2.415 4.4 2.454 4.238.079 8.443.174 12.709.191q13.3.059 26.589-.084c8.662-.056 17.325-.107 25.987-.073 3.771 0 7.553.152 11.33.084 1.689-.028 3.563-.219 3.659-2.251.045-.827-1.176-.794-1.266 0-.169 1.6-7.914.81-9.006.8q-5.066-.039-10.081-.034c-7.064 0-14.128.1-21.191.174-6.889.079-13.779.158-20.674.191h-10.18c-2.251 0-10.582 1.182-11.448-1.689a.441.441 0 1 0-.85.236z" fill="#231f20"/><path data-name="Path 2934" d="M.33 147.505c0 1.891 1.52 2.066 3.017 2.077 4.047.028 8.088.034 12.13.068q13.6.124 27.191.445c8.865.208 17.73.456 26.589.619 3.8.073 7.6.107 11.4.107 2.077 0 3.749.056 3.94-2.3.039-.473-.636-.5-.782-.1-.782 2.128-8 .991-9.7.951-3.428-.073-6.856-.129-10.289-.2q-10.869-.242-21.737-.467c-7.053-.135-14.105-.253-21.163-.27q-5.347 0-10.694.073c-1.475.028-9.124 1.126-9.191-1a.366.366 0 0 0-.732 0z" fill="#231f20"/><path data-name="Path 2935" d="M.415 142.299c0 2.032 1.418 2.493 3.2 2.583 4.131.2 8.313 0 12.445 0h26.983c8.972 0 18.011.062 27.017.146 3.833.039 7.677.141 11.51.09 2.06 0 3.377-.563 3.259-2.854 0-.478-.8-.642-.884-.118-.428 2.741-6.5 1.638-8.527 1.61-3.439-.051-6.884-.073-10.323-.1q-10.756-.073-21.518-.062-10.478 0-20.961.13c-3.6.045-7.193.073-10.784.158-1.61.039-10.694 1.244-10.694-1.576a.36.36 0 0 0-.715 0z" fill="#231f20"/><path data-name="Path 2936" d="M1.31 2.379c.22-1.03 3.377-1.283 4.21-1.278s1.767 0 2.651 0l4.79.028 10.053.068q10 .034 19.993.1 9.726.056 19.464.062h10.058c2.251 0 11.448-1.452 11.392 2.364 0 .366.512.343.563 0 .27-2.251-.613-3.18-2.78-3.456-4-.512-8.325-.135-12.349-.129H44.061c-8.432 0-16.841 0-25.261.056Q12.687.233 6.58.312C4.891.312 1.216-.172.794 2.237c-.056.343.456.5.523.146z" fill="#231f20"/><path data-name="Path 2937" d="M1.338 6.398c.1-1.841 18.084-.754 20.133-.743 7.019.039 14.038 0 21.051 0q10.278 0 20.544-.056H73c1.531 0 10.424-.811 10.694.917.079.478.856.366.833-.113-.1-2.623-2.91-1.981-4.931-2.021-4.008-.084-8.021-.062-12.034-.068-8.522 0-17.043.056-25.57.124s-17.032.124-25.548.174c-3.872 0-7.75.056-11.629.073-1.559 0-4.064-.512-4.053 1.728a.281.281 0 1 0 .563 0z" fill="#231f20"/><path data-name="Path 2938" d="M1.005 20.34q20.865.062 41.719.248c6.974.062 13.953.141 20.927.191 6.726.051 13.689.563 20.387-.158a.377.377 0 1 0 0-.754c-6.7-.743-13.649-.3-20.387-.355q-10.463-.073-20.927-.135c-13.908-.073-27.816-.107-41.719.332a.315.315 0 1 0 0 .63z" fill="#231f20"/><path data-name="Path 2939" d="M.933 47.452c13.728.051 27.462.034 41.19.051 13.908 0 28.036.822 41.916-.051a.467.467 0 0 0 0-.929c-13.857-1.053-28.019-.36-41.916-.349-13.734 0-27.462.107-41.19.445a.417.417 0 0 0 0 .833z" fill="#231f20"/><path data-name="Path 2940" d="M.628 78.438c13.869-.754 27.9-.276 41.781-.129 7.1.073 14.212.174 21.321.265 6.788.084 13.689.478 20.471.045a.467.467 0 1 0 0-.934c-6.788-.473-13.672-.231-20.471-.315q-10.66-.124-21.321-.253c-13.942-.135-27.85.214-41.781.355-.625-.002-.625 1 0 .966z" fill="#231f20"/><path data-name="Path 2941" d="M5.594 102.021c12.3.388 24.642-.073 36.946-.163s24.63.366 36.929.18a.45.45 0 0 0 0-.9c-12.208-1.126-24.681-.664-36.929-.563s-24.647.129-36.946.647a.388.388 0 0 0 0 .771z" fill="#231f20"/><path data-name="Path 2942" d="M6.91 109.249q18.405.18 36.805.433 9.1.124 18.2.208c5.792.045 11.91.5 17.657-.281.462-.068.287-.709-.1-.749-5.735-.642-11.781-.163-17.555-.2-6.242-.034-12.484-.113-18.726-.186-12.09-.146-24.2-.321-36.282.1a.338.338 0 0 0 0 .675z" fill="#231f20"/><path data-name="Path 2943" d="M6.121 112.682c12.214.248 24.422.326 36.642.349s24.5.613 36.636-.169a.4.4 0 0 0 0-.794c-12.124-.912-24.49-.281-36.636-.231s-24.428.175-36.642.293a.281.281 0 1 0 0 .563z" fill="#231f20"/><path data-name="Path 2944" d="M6.122 120.28c12.248.259 24.5.293 36.743.236s24.512.253 36.749 0a.372.372 0 1 0 0-.743c-12.2-.642-24.529-.231-36.749-.175s-24.5.191-36.743.073a.31.31 0 1 0 0 .619z" fill="#231f20"/><path data-name="Path 2945" d="M6.161 112.271c-.456 0-1.081 0-1.356.388-.563.85-.158 2.854-.158 3.8 0 .754.068 1.514.056 2.251 0 .332-.152.76 0 1.075.36.687 1.2.49 1.841.394.371-.051.214-.613-.158-.563-1.824.265-1.323-2.617-1.435-3.732s-.76-3.265 1.193-3.377a.13.13 0 1 0 0-.259z" fill="#231f20"/><path data-name="Path 2946" d="M5.83 101.408a1.688 1.688 0 0 0-.478.09c-.051 0-.045.1 0 .1a2.031 2.031 0 0 0 .484-.084c.056 0 .045-.113 0-.107z" fill="#231f20"/><path data-name="Path 2947" d="M5.919 101.554a.7.7 0 0 0-.343.045.039.039 0 0 0 0 .073h.158a.793.793 0 0 1 .163 0 .054.054 0 0 0 0-.107z" fill="#231f20"/><path data-name="Path 2948" d="M5.891 101.526c-1.5-1.182-1.379 2.758-1.413 3.208-.09 1.188-.383 2.814.146 3.968.366.777 1.126.625 1.841.614a.366.366 0 0 0 0-.726c-.715-.051-1.075-.1-1.311-.872a8.262 8.262 0 0 1-.073-1.908c0-1-.484-3.732.782-4.176.039 0 .068-.079 0-.107z" fill="#231f20"/><path data-name="Path 2949" d="M79.445 101.683c1.182.231.816 2.887.788 3.687s.169 3.411-.839 3.574c-.343.056-.259.608.079.6.636 0 .962-.146 1.126-.766a18.728 18.728 0 0 0 .163-4.244c0-.473.214-4.171-1.334-3.034-.062.045-.068.163 0 .18z" fill="#231f20"/><path data-name="Path 2950" d="M79.338 112.614c1.514.276 1.126 2.493 1.041 3.647a17.071 17.071 0 0 0-.1 1.717c0 .394.439 1.987-.563 1.773a.394.394 0 1 0-.1.777c2.15.22 1.328-2.758 1.25-3.979-.084-1.311.63-4.5-1.492-4.244-.154.001-.233.275-.036.309z" fill="#231f20"/><path data-name="Path 2951" d="M12.82 101.38c-.749 2.218-.366 5.066-.118 7.368a.231.231 0 0 0 .462 0c.169-2.285.518-5.156-.2-7.368a.073.073 0 0 0-.141 0z" fill="#231f20"/><path data-name="Path 2952" d="M12.618 112.507c-.428 2.538.056 5.066-.079 7.6-.034.563.934.529.833-.113-.388-2.437.034-4.97-.231-7.418 0-.271-.473-.395-.523-.069z" fill="#231f20"/><path data-name="Path 2953" d="M10.193 11.475c11.4.659 22.779.754 34.193.749 5.51 0 11.021-.028 16.531-.118 2.854-.045 5.707-.1 8.567-.191 2.578-.09 5.341.186 7.784-.749a.9.9 0 0 0 0-1.689c-2.454-.912-5.206-.608-7.784-.675a500.18 500.18 0 0 0-8.567-.124c-5.51-.051-11.021-.045-16.531-.034-11.415 0-22.79.079-34.193.636a1.126 1.126 0 0 0 0 2.223z" fill="#231f20"/><path data-name="Path 2954" d="M19.068 15.584c8.049.338 16.1.405 24.152.484 4.008.039 8.009.079 12.017.051 3.743 0 7.542.124 11.15-.923a.416.416 0 0 0 0-.8c-3.647-.839-7.418-.563-11.15-.563H43.22c-8.054-.062-16.1-.22-24.152.2a.788.788 0 0 0 0 1.57z" fill="#231f20"/><path data-name="Path 2955" d="M5.165 53.509c6.754-.523 13.767.163 20.522.259 12.011.169 24.023.281 36.023.253 3.09 0 6.191.028 9.281.045 2.477 0 5.353.45 7.767-.163a.788.788 0 0 0 0-1.508c-2.066-.563-4.469-.265-6.591-.287l-8.071-.1c-6.1-.084-12.191-.236-18.287-.3-10.841-.113-21.692-.174-32.533-.1-2.69 0-5.392.135-8.083.051-1.2-.034-1.176 1.936 0 1.841z" fill="#231f20"/><path data-name="Path 2956" d="M5.163 57.027c12.2.884 24.546.687 36.777.822 5.674.056 11.353-.107 17.026-.191 2.758-.039 5.51-.084 8.268-.107a53.006 53.006 0 0 0 8.769-.231.659.659 0 0 0 0-1.261c-5.251-1.013-11.184-.253-16.525-.169q-8.775.124-17.539 0c-12.231-.174-24.557-.7-36.777-.135a.642.642 0 0 0 0 1.283z" fill="#231f20"/><path data-name="Path 2957" d="M5.165 60.871c11.021 1.356 22.514.906 33.6.895 5.426 0 10.79-.512 16.2-.72 5.792-.225 11.612.529 17.4.163a.726.726 0 0 0 0-1.447c-5.8-.141-11.595.8-17.4.692-5.4-.1-10.784-.563-16.2-.563-11.128 0-22.514-.771-33.6.129a.428.428 0 0 0 0 .85z" fill="#231f20"/><path data-name="Path 2958" d="M5.165 64.535c12.175.27 24.349.259 36.535.236l16.886-.051c6.062 0 12.45.529 18.473-.135a.6.6 0 0 0 0-1.188c-5.859-.659-12.1-.107-18.011-.073l-17.341.09c-12.18.051-24.36-.045-36.535-.146a.636.636 0 0 0 0 1.266z" fill="#231f20"/><path data-name="Path 2959" d="M5.165 67.608c11.724.681 23.679 1.193 35.409.478 11.522-.7 23.212-.439 34.756-.3a.563.563 0 0 0 0-1.069c-11.584-.135-23.19.619-34.756.3-11.781-.321-23.64.417-35.409.4a.1.1 0 0 0 0 .2z" fill="#231f20"/><path data-name="Path 2960" d="M5.162 71.599c6.754.456 13.39.208 20.128.242 3.343 0 6.692-.107 10.036-.09a97.367 97.367 0 0 0 10.092.039.7.7 0 0 0 0-1.4c-3.2-.163-6.4.259-9.568.377-3.5.124-7.024 0-10.531 0-6.72 0-13.407-.428-20.128-.36a.6.6 0 0 0 0 1.188z" fill="#231f20"/><path data-name="Path 2961" d="M26.576 84.224c5.966.293 11.932.372 17.91.383q4.5 0 8.955.039c2.7 0 5.471.281 8.133-.287a1.126 1.126 0 0 0 0-2.144c-2.651-.6-5.432-.371-8.133-.371h-8.955c-5.983.034-11.944.186-17.91.608a.878.878 0 0 0 0 1.75z" fill="#231f20"/><path data-name="Path 2962" d="M5.165 89.954c7.081-.827 14.561-.332 21.687-.253 3.523.045 7.047.051 10.57.09 3.681.039 7.452.4 11.122.146.473-.034.659-.816.118-.895-6.884-.991-14.3-.7-21.253-.653-7.368.045-14.9.811-22.244.439-.743-.04-.714 1.21 0 1.126z" fill="#231f20"/><path data-name="Path 2963" d="M50.868 89.785c2.589.281 5.285.737 7.88.3a.439.439 0 0 0 0-.839 29.767 29.767 0 0 0-7.88-.135.338.338 0 0 0 0 .67z" fill="#231f20"/><path data-name="Path 2964" d="M5.165 94.287c5.7.039 11.37-.062 17.06-.3a.3.3 0 0 0 0-.6 102.777 102.777 0 0 0-17.06.084.406.406 0 0 0 0 .811z" fill="#231f20"/><path data-name="Path 2965" d="M13.051 130.58a13.068 13.068 0 0 0 4.165.405c1.553.028 3.124 0 4.677-.073a.951.951 0 0 0 0-1.9c-2.69-.231-6.45-.563-9.006.507-.507.214-.27.906.141 1.058z" fill="#231f20"/><path data-name="Path 2966" d="M10.878 135.888c2.094.811 4.469.563 6.687.614a72.6 72.6 0 0 0 7.655-.411.433.433 0 0 0 0-.861 62.7 62.7 0 0 0-7.655-.743c-2.251 0-4.57-.321-6.687.462a.49.49 0 0 0 0 .94z" fill="#231f20"/><path data-name="Path 2967" d="M39.589 129.916c1.047 1.053 2.882.867 4.272.895 1.6.034 3.568.276 5.015-.484.518-.27.293-.923-.146-1.126-1.424-.6-3.332-.276-4.869-.3-1.368 0-3.051-.4-4.2.461a.343.343 0 0 0-.068.563z" fill="#231f20"/><path data-name="Path 2968" d="M37.146 135.585c4.019 1.486 9.31 1.019 13.508 1.03a.968.968 0 0 0 0-1.931c-4.272-.045-9.383-.827-13.508.242a.343.343 0 0 0 0 .659z" fill="#231f20"/><path data-name="Path 2969" d="M33.201 2.47c-3.405-.912-7.188-.563-10.694-.647-3.895-.068-7.8-.214-11.69-.169a1.242 1.242 0 0 0 0 2.482h11.69c3.5 0 7.317.293 10.694-.816a.439.439 0 0 0 0-.844z" fill="#fff"/><path data-name="Path 2970" d="M65.286 130.034a8.652 8.652 0 0 0 3.985.7c1.739.056 3.49.062 5.229.062a.963.963 0 0 0 0-1.925c-2.7-.129-6.754-.771-9.214.647a.3.3 0 0 0 0 .512z" fill="#231f20"/><path data-name="Path 2971" d="M63.257 135.989c2.381.208 4.762.265 7.154.293 2.015.028 4.5.478 6.411-.2a.72.72 0 0 0 0-1.373c-1.88-.754-4.4-.394-6.411-.45-2.392-.068-4.767-.107-7.154 0a.861.861 0 1 0 0 1.722z" fill="#231f20"/><path data-name="Path 2972" d="M6.91 2.84a1.2 1.2 0 0 1-1.356 1.238A1.069 1.069 0 0 1 4.49 2.89a1.188 1.188 0 0 1 1.3-1.266A1.126 1.126 0 0 1 6.91 2.84z" fill="#fff"/></svg>