<svg xmlns="http://www.w3.org/2000/svg" width="48.868" height="49.165" viewBox="0 0 48.868 49.165">
  <g id="step-number-3" transform="translate(0.001 13.083)">
    <path id="blob" d="M-17.358-38.449c3.082,9.87,1.563,20.857-5.136,26.127-6.744,5.222-18.713,4.69-28.137-1.652-9.379-6.3-16.3-18.356-13.4-27.958S-48.487-58.68-38.3-57.876-20.44-48.319-17.358-38.449Z" transform="translate(64.698 44.855)" fill="#5fbd66"/>
    <path id="_3" data-name="3" d="M8.023-9.93a5.622,5.622,0,0,1,2.959,1.69A4.524,4.524,0,0,1,12.12-5.088a4.908,4.908,0,0,1-1.7,3.96A6.25,6.25,0,0,1,6.24.312,6.714,6.714,0,0,1,2.8-.576,5.047,5.047,0,0,1,.6-3.168L2.952-4.536A3.116,3.116,0,0,0,6.24-2.376a3.351,3.351,0,0,0,2.28-.732,2.492,2.492,0,0,0,.84-1.98,2.456,2.456,0,0,0-.84-1.968,3.387,3.387,0,0,0-2.28-.72H5.616l-1.1-1.656,3.624-4.776H1.1V-16.8h10.32l0,2.351Z" transform="translate(18.074 19.745)" fill="#fefefe"/>
  </g>
</svg>
