<svg xmlns="http://www.w3.org/2000/svg" width="42.748" height="49.837" viewBox="0 0 42.748 49.837">
  <g id="step-number-2" transform="translate(-0.5 13.416)">
    <path id="blob_2_" data-name="blob (2)" d="M-13.885-33.023c3.267,9.08,2.588,20.41-5.092,27.2S-41.338,3.214-48.721-2.6c-7.383-5.856-7.426-19.773-3.31-29.957C-47.958-42.782-39.768-49.274-32.046-49.1-24.365-48.977-17.152-42.1-13.885-33.023Z" transform="translate(55.281 35.687)" fill="#5fbd66"/>
    <path id="_2" data-name="2" d="M.744,0V-2.16L6.6-8.136q2.136-2.136,2.136-3.7A2.483,2.483,0,0,0,8-13.74a2.617,2.617,0,0,0-1.86-.684,3.291,3.291,0,0,0-3.12,2.088L.7-13.7a5.71,5.71,0,0,1,2.232-2.544,6.086,6.086,0,0,1,3.192-.864A5.551,5.551,0,0,1,9.912-15.72,4.789,4.789,0,0,1,11.5-11.928q0,2.555-2.885,5.443L4.8-2.664h7.008V0Z" transform="translate(15.622 20.058)" fill="#fefefe"/>
  </g>
</svg>
