<svg id="Group_9299" data-name="Group 9299" xmlns="http://www.w3.org/2000/svg" xmlns:xlink="http://www.w3.org/1999/xlink" width="219.455" height="29.318" viewBox="0 0 219.455 29.318">
  <defs>
    <clipPath id="clip-path">
      <path id="Path_1039" data-name="Path 1039" d="M10684.674-22799.68c2.227-1.107,3.288-2.447,0-3.848s-18.35-1.275-21.469-.252-4.437,3.373-2.217,4.34S10682.447-22798.57,10684.674-22799.68Z" transform="translate(-10659.883 22804.563)" fill="#252a25"/>
    </clipPath>
    <clipPath id="clip-path-2">
      <path id="Path_1041" data-name="Path 1041" d="M10674.761-22809.406c-1.516-.988,3.554-4.52,6.75-4.52s7.74,2.988,6.061,3.979c-.826.492-3.223.145-6.425.281S10675.531-22808.9,10674.761-22809.406Z" transform="translate(-10674.484 22813.926)" fill="#252a25"/>
    </clipPath>
    <clipPath id="clip-path-3">
      <path id="Path_1043" data-name="Path 1043" d="M10658.06-22799.5c-4.143-.859-3.754-2.256,0-3.02s10.87-1.408,15.012-.541,5.3,3.385,1.551,4.152S10662.2-22798.637,10658.06-22799.5Z" transform="translate(-10655.097 22803.477)" fill="#252a25"/>
    </clipPath>
    <clipPath id="clip-path-4">
      <path id="Path_1045" data-name="Path 1045" d="M10655.389-22799.57c-4.017-.779-2.309-2.141,1.33-2.828s10.542-1.416,14.556-.635,5.145,3.055,1.506,3.748S10659.406-22798.791,10655.389-22799.57Z" transform="translate(-10653.073 22803.371)" fill="#252a25"/>
    </clipPath>
  </defs>
  <g id="Group_8984" data-name="Group 8984">
    <path id="Path_1033" data-name="Path 1033" d="M10674.761-22809.406c-1.516-.988,3.554-4.52,6.75-4.52s7.74,2.988,6.061,3.979c-.826.492-3.223.145-6.425.281S10675.531-22808.9,10674.761-22809.406Z" transform="translate(-10668.496 22813.926)" fill="#d02d29"/>
    <path id="Path_1034" data-name="Path 1034" d="M.277,3.984C-1.238,2.988,3.8,0,7,0s7.741,2.988,6.06,3.984S1.793,4.98.277,3.984Z" transform="translate(20.155 29.318) rotate(180)" fill="#5bb9f9"/>
    <path id="Path_1035" data-name="Path 1035" d="M10684.674-22799.68c2.227-1.107,3.288-2.447,0-3.848s-18.35-1.275-21.469-.252-4.437,3.373-2.217,4.34S10682.447-22798.57,10684.674-22799.68Z" transform="translate(-10659.883 22816.031)" fill="#ffc21f"/>
    <path id="Path_1036" data-name="Path 1036" d="M10658.06-22799.5c-4.143-.859-3.754-2.256,0-3.02s10.87-1.408,15.012-.541,5.3,3.385,1.551,4.152S10662.2-22798.637,10658.06-22799.5Z" transform="translate(-10652.553 22822.09)" fill="#1da1f2"/>
    <path id="Path_1037" data-name="Path 1037" d="M10655.389-22799.57c-4.017-.779-2.309-2.141,1.33-2.828s10.542-1.416,14.556-.635,5.145,3.055,1.506,3.748S10659.406-22798.791,10655.389-22799.57Z" transform="translate(-10651.181 22809.113)" fill="#5fbd66"/>
    <g id="Group_4611" data-name="Group 4611" transform="translate(0 2.598)" opacity="0.58">
      <g id="Mask_Group_96" data-name="Mask Group 96" transform="translate(0 11.47)" opacity="0.2" clip-path="url(#clip-path)">
        <path id="Path_1038" data-name="Path 1038" d="M10658.06-22799.5c-4.143-.859-3.754-2.256,0-3.02s10.87-1.408,15.012-.541,5.3,3.385,1.551,4.152S10662.2-22798.637,10658.06-22799.5Z" transform="translate(-10652.553 22808.02)" fill="#252a25"/>
      </g>
      <g id="Mask_Group_97" data-name="Mask Group 97" transform="translate(5.988 0)" opacity="0.2" clip-path="url(#clip-path-2)">
        <path id="Path_1040" data-name="Path 1040" d="M10655.389-22799.57c-4.017-.779-2.309-2.141,1.33-2.828s10.542-1.416,14.556-.635,5.145,3.055,1.506,3.748S10659.406-22798.791,10655.389-22799.57Z" transform="translate(-10657.169 22806.514)" fill="#252a25"/>
      </g>
      <g id="Mask_Group_98" data-name="Mask Group 98" transform="translate(2.544 18.614)" opacity="0.2" clip-path="url(#clip-path-3)">
        <path id="Path_1042" data-name="Path 1042" d="M.277,3.984C-1.238,2.988,3.8,0,7,0s7.741,2.988,6.06,3.984S1.793,4.98.277,3.984Z" transform="translate(17.61 8.106) rotate(180)" fill="#252a25"/>
      </g>
      <g id="Mask_Group_99" data-name="Mask Group 99" transform="translate(1.893 5.742)" opacity="0.2" clip-path="url(#clip-path-4)">
        <path id="Path_1044" data-name="Path 1044" d="M10684.674-22799.68c2.227-1.107,3.288-2.447,0-3.848s-18.35-1.275-21.469-.252-4.437,3.373-2.217,4.34S10682.447-22798.57,10684.674-22799.68Z" transform="translate(-10661.776 22807.693)" fill="#252a25"/>
      </g>
    </g>
  </g>
  <g id="Group_8985" data-name="Group 8985" transform="translate(35.466 4)">
    <path id="Path_1057" data-name="Path 1057" d="M-1301.811-530.854a8.753,8.753,0,0,0-3.322-1.227,6.576,6.576,0,0,0-5.121.974,5.963,5.963,0,0,0-2.388,5,6.145,6.145,0,0,0,1.921,4.99,5.739,5.739,0,0,0,3.464,1.373,7.32,7.32,0,0,0,3.3-.4.516.516,0,0,0,.3-.345c.021-1.441.014-2.883.014-4.381h-3.41v-2.214h5.922c.009.152.025.3.025.439,0,2.438-.006,4.878.009,7.316a.765.765,0,0,1-.416.746,9.874,9.874,0,0,1-5.751,1.283,8.439,8.439,0,0,1-5.4-2.054,7.533,7.533,0,0,1-2.461-4.291,9.715,9.715,0,0,1,.542-6.155,7.906,7.906,0,0,1,6.431-4.717,10.718,10.718,0,0,1,5.861.757.68.68,0,0,1,.5.763C-1301.842-532.324-1301.811-531.64-1301.811-530.854Z" transform="translate(1315.384 535.598)"/>
    <path id="Path_1058" data-name="Path 1058" d="M-615.023-484.346l2.367.379c-.041.165-.066.292-.106.415q-1.811,5.71-3.62,11.419a.43.43,0,0,1-.5.365c-.8-.022-1.607-.008-2.466-.008l-2.685-9.756c-.529,1.966-1.05,3.909-1.577,5.85-.323,1.189-.664,2.373-.983,3.563a.387.387,0,0,1-.454.349c-.714-.022-1.431.006-2.145-.019a.492.492,0,0,1-.368-.258c-1.261-3.959-2.505-7.924-3.773-11.957l2.513-.407q1.379,5.007,2.725,9.894l2.831-9.922h2.459l2.885,9.988Q-616.493-479.318-615.023-484.346Z" transform="translate(692.495 489.887)"/>
    <path id="Path_1059" data-name="Path 1059" d="M362.24-469.138H359.8v-17.429l2.433.385v1.371a13.37,13.37,0,0,1,.985-1.018,5.016,5.016,0,0,1,6.733.663,7.689,7.689,0,0,1,1.444,6.48,6.017,6.017,0,0,1-2.356,4.007c-1.617,1.209-4.978,1.512-6.645-.952a1.2,1.2,0,0,0-.153-.137v6.631Zm-.009-11.051c.027.263.051.695.119,1.119a4.689,4.689,0,0,0,.234.857,3.435,3.435,0,0,0,3.071,2.277,3.219,3.219,0,0,0,3.031-2.353,6.1,6.1,0,0,0-.131-4.357,2.877,2.877,0,0,0-2.716-1.974,3.25,3.25,0,0,0-3.085,1.758A5.775,5.775,0,0,0,362.231-480.189Z" transform="translate(-210.014 492.065)"/>
    <path id="Path_1060" data-name="Path 1060" d="M-104.357-522.292h-2.414v-.522c0-2.363,0-4.727,0-7.091a6.372,6.372,0,0,0-.09-1.153,2.4,2.4,0,0,0-3.585-1.614,3.036,3.036,0,0,0-1.832,2.794c-.067,2.332-.046,4.667-.063,7,0,.189,0,.378,0,.588h-2.436V-539.5l2.426-.388v6.928a9.3,9.3,0,0,1,.933-1.112,4.447,4.447,0,0,1,4.65-.757,3.517,3.517,0,0,1,2.414,3.432c.085,2.986.036,5.975.04,8.963A.593.593,0,0,1-104.357-522.292Z" transform="translate(222.132 540.379)"/>
    <path id="Path_1061" data-name="Path 1061" d="M31.29-480.433a6.894,6.894,0,0,1,2.206-5.585,5.95,5.95,0,0,1,9.659,3.244,7.6,7.6,0,0,1-.84,5.886,5.523,5.523,0,0,1-5.071,2.6,5.534,5.534,0,0,1-4.76-2.351A6.721,6.721,0,0,1,31.29-480.433Zm9.471-.333.115-.023a22.139,22.139,0,0,0-.545-2.41,2.856,2.856,0,0,0-2.684-2.06,2.947,2.947,0,0,0-2.893,1.295,5.91,5.91,0,0,0,0,6.238,3.158,3.158,0,0,0,5.261-.105A5.484,5.484,0,0,0,40.761-480.765Z" transform="translate(89.123 492.62)"/>
    <path id="Path_1062" data-name="Path 1062" d="M516.519-479.2a3.8,3.8,0,0,0,3.7,3.369,6.467,6.467,0,0,0,3.958-.938c0,.746.013,1.407-.013,2.066,0,.1-.158.235-.275.291a7.516,7.516,0,0,1-3.295.675,6.7,6.7,0,0,1-4.062-1.123,5.958,5.958,0,0,1-2.526-4.748,7.769,7.769,0,0,1,.841-4.315c1.8-3.277,6.692-3.809,8.949-.96a6.377,6.377,0,0,1,1.169,4.3c-.032,1.386-.056,1.386-1.443,1.386h-7Zm6.017-1.947c.217-2.33-1.272-3.794-3.4-3.441a3.49,3.49,0,0,0-2.581,3.441Z" transform="translate(-350.411 491.973)"/>
    <path id="Path_1063" data-name="Path 1063" d="M-902.612-479.074h-8.334a3.438,3.438,0,0,0,2.129,2.976,6.006,6.006,0,0,0,5.009-.281c.13-.064.256-.137.458-.246,0,.74.012,1.415-.014,2.089,0,.094-.186.207-.308.266a7.6,7.6,0,0,1-3.344.653,6.8,6.8,0,0,1-3.477-.824,5.62,5.62,0,0,1-2.829-3.871,7.969,7.969,0,0,1,.566-5.3,5.4,5.4,0,0,1,5.544-2.951,4.933,4.933,0,0,1,4.631,4.989C-902.535-480.769-902.6-479.954-902.612-479.074Zm-2.308-1.954c-.029-.371-.034-.695-.081-1.013a2.707,2.707,0,0,0-1.335-2.148,2.863,2.863,0,0,0-3.05.133,3.855,3.855,0,0,0-1.639,3.028Z" transform="translate(949.462 491.859)"/>
    <path id="Path_1064" data-name="Path 1064" d="M-396.027-481.454c-.047-.584-.05-1.077-.134-1.556a2,2,0,0,0-1.88-1.734,6.248,6.248,0,0,0-3.947.815c-.125.072-.255.138-.464.249,0-.8-.012-1.539.014-2.273,0-.093.191-.2.315-.263a8.614,8.614,0,0,1,4.8-.611,5.338,5.338,0,0,1,1.533.451,3.768,3.768,0,0,1,2.15,3.123,9.217,9.217,0,0,1,.09,1.332c.008,2.468,0,4.936,0,7.4v.458h-2.434v-1.394c-.146.162-.218.241-.289.322a3.37,3.37,0,0,1-2.3,1.142,4.279,4.279,0,0,1-4.018-1.3,3.61,3.61,0,0,1,1.17-5.533,6.147,6.147,0,0,1,2.671-.626C-397.87-481.465-396.994-481.454-396.027-481.454Zm-.043,1.863c-.942,0-1.845-.045-2.741.02a2.658,2.658,0,0,0-1.192.433,1.777,1.777,0,0,0-.139,2.835,2.89,2.89,0,0,0,3.52-.378C-395.878-477.562-396.1-478.6-396.07-479.591Z" transform="translate(484.96 492.144)"/>
    <path id="Path_1065" data-name="Path 1065" d="M-756.1-474.373h-2.386v-1.44a3.413,3.413,0,0,1-2.591,1.509,4.363,4.363,0,0,1-3.99-1.274,3.62,3.62,0,0,1,1.154-5.566,6.137,6.137,0,0,1,2.626-.622c.876-.016,1.754,0,2.615,0a2.489,2.489,0,0,0-2.774-3.348,6.866,6.866,0,0,0-3.208.966,3.2,3.2,0,0,1-.292.134c0-.775-.009-1.5.011-2.219,0-.092.14-.219.242-.263a8.1,8.1,0,0,1,6.211-.273,3.671,3.671,0,0,1,2.379,3.612c.084,2.88.037,5.765.042,8.646A.48.48,0,0,1-756.1-474.373Zm-2.446-5.548c-.963,0-1.836-.018-2.708.01a2.515,2.515,0,0,0-.856.217,1.793,1.793,0,0,0-1.163,1.686,1.622,1.622,0,0,0,1.123,1.647,3.048,3.048,0,0,0,2.3-.1,1.926,1.926,0,0,0,1.187-1.508C-758.574-478.608-758.579-479.261-758.544-479.921Z" transform="translate(815.036 492.462)"/>
    <path id="Path_1066" data-name="Path 1066" d="M-259.775-483.112c-.846,2.271-1.664,4.469-2.484,6.666-.69,1.85-1.36,3.708-2.08,5.546a7.443,7.443,0,0,1-2.682,3.644,4.751,4.751,0,0,1-3.579.739c-.12-.021-.3-.175-.309-.275-.029-.605-.014-1.213-.014-1.861.178.013.308.017.435.034a3.418,3.418,0,0,0,3.772-2.518.754.754,0,0,0-.1-.454q-2.255-5.55-4.516-11.1c-.061-.149-.12-.3-.2-.5.819-.129,1.592-.266,2.372-.355.1-.012.3.2.35.345q1.541,4.059,3.056,8.128c.094.249.189.5.311.822.075-.19.131-.316.175-.444.951-2.781,1.911-5.558,2.842-8.346.135-.405.324-.483.708-.4C-261.094-483.312-260.462-483.226-259.775-483.112Z" transform="translate(364.866 489.072)"/>
    <path id="Path_1067" data-name="Path 1067" d="M-1060.92-482.237c.739-.118,1.482-.25,2.23-.339.087-.011.252.2.3.342q1.208,3.7,2.39,7.416c.265.833.509,1.674.783,2.583.055-.157.093-.258.126-.361q1.581-4.869,3.171-9.735c.036-.108.193-.265.276-.255.733.092,1.462.216,2.243.34-.422,1.161-.823,2.259-1.222,3.357-1.019,2.8-2.043,5.606-3.048,8.415a.5.5,0,0,1-.575.393c-.7-.023-1.4.006-2.1-.019a.5.5,0,0,1-.377-.254q-2.109-5.867-4.187-11.743A.916.916,0,0,1-1060.92-482.237Z" transform="translate(1083.673 488.198)"/>
    <path id="Path_1068" data-name="Path 1068" d="M669.24-485.224l2.412-.385v2.01a12.731,12.731,0,0,1,.765-1.087,3.423,3.423,0,0,1,3.124-1.051c.083.008.219.133.221.208.017.723.01,1.447.01,2.126a7.662,7.662,0,0,0-1.94.029,3.009,3.009,0,0,0-1.989,2.434,6.369,6.369,0,0,0-.162,1.544c-.018,1.947-.007,3.9-.007,5.843v.545H669.24Z" transform="translate(-491.785 491.095)"/>
    <path id="Path_1069" data-name="Path 1069" d="M-1116.75-482.73c.766.122,1.515.23,2.255.378.1.02.211.252.213.387.016,1.262.01,2.524.01,3.787v7.92h-2.478Z" transform="translate(1134.511 488.33)"/>
    <path id="Path_1070" data-name="Path 1070" d="M-1117.177-543.793a1.563,1.563,0,0,1-1.573,1.539,1.515,1.515,0,0,1-1.51-1.54,1.543,1.543,0,0,1,1.539-1.566A1.564,1.564,0,0,1-1117.177-543.793Z" transform="translate(1137.707 545.36)"/>
    <path id="Path_1071" data-name="Path 1071" d="M200.94-469.138H198.5V-486.12l2.433-.51v1.818a13.367,13.367,0,0,1,.984-1.018,5.016,5.016,0,0,1,6.733.663,7.689,7.689,0,0,1,1.444,6.48,6.017,6.017,0,0,1-2.356,4.007c-1.617,1.209-4.978,1.512-6.645-.952a1.2,1.2,0,0,0-.153-.137v6.631Zm-.009-11.051c.027.263.051.695.119,1.119a4.69,4.69,0,0,0,.234.857,3.435,3.435,0,0,0,3.071,2.277,3.219,3.219,0,0,0,3.031-2.353,6.1,6.1,0,0,0-.131-4.357,2.877,2.877,0,0,0-2.716-1.974,3.25,3.25,0,0,0-3.085,1.758A5.775,5.775,0,0,0,200.931-480.189Z" transform="translate(-63.136 492.065)"/>
  </g>
</svg>
